{
	"asset":{
		"generator":"Khronos glTF Blender I/O v4.4.56",
		"version":"2.0"
	},
	"scene":0,
	"scenes":[
		{
			"name":"Scene",
			"nodes":[
				0,
				1,
				2,
				3,
				4,
				5,
				6,
				7,
				8
			]
		}
	],
	"nodes":[
		{
			"mesh":0,
			"name":"Object_25"
		},
		{
			"mesh":1,
			"name":"Object_21"
		},
		{
			"mesh":2,
			"name":"Object_17"
		},
		{
			"mesh":3,
			"name":"Object_9.005"
		},
		{
			"mesh":4,
			"name":"Object_11"
		},
		{
			"mesh":5,
			"name":"Object_15"
		},
		{
			"mesh":6,
			"name":"Object_7"
		},
		{
			"mesh":7,
			"name":"Object_19"
		},
		{
			"mesh":8,
			"name":"Object_23"
		}
	],
	"materials":[
		{
			"doubleSided":true,
			"name":"Wolf3D_Outfit_Top",
			"normalTexture":{
				"index":0
			},
			"pbrMetallicRoughness":{
				"baseColorTexture":{
					"index":1
				},
				"metallicFactor":0,
				"roughnessFactor":0.8590909838676453
			}
		},
		{
			"doubleSided":true,
			"name":"Wolf3D_Outfit_Bottom.006",
			"normalTexture":{
				"index":2
			},
			"pbrMetallicRoughness":{
				"baseColorTexture":{
					"index":3
				},
				"metallicFactor":0,
				"roughnessFactor":0.5
			}
		},
		{
			"alphaMode":"BLEND",
			"doubleSided":true,
			"name":"Wolf3D_Beard.006",
			"normalTexture":{
				"index":4
			},
			"pbrMetallicRoughness":{
				"baseColorTexture":{
					"index":5
				},
				"metallicFactor":0,
				"roughnessFactor":0.699999988079071
			}
		},
		{
			"doubleSided":true,
			"name":"Wolf3D_Eye.006",
			"pbrMetallicRoughness":{
				"baseColorTexture":{
					"index":6
				},
				"metallicFactor":0
			}
		},
		{
			"doubleSided":true,
			"name":"Wolf3D_Skin.006",
			"pbrMetallicRoughness":{
				"baseColorTexture":{
					"index":7
				},
				"metallicFactor":0,
				"roughnessFactor":0.699999988079071
			}
		},
		{
			"alphaMode":"BLEND",
			"name":"Wolf3D_Hair.006",
			"normalTexture":{
				"index":8
			},
			"pbrMetallicRoughness":{
				"baseColorTexture":{
					"index":9
				},
				"metallicFactor":0,
				"roughnessFactor":0.7272729873657227
			}
		},
		{
			"doubleSided":true,
			"name":"Wolf3D_Body.006",
			"normalTexture":{
				"index":10
			},
			"pbrMetallicRoughness":{
				"baseColorTexture":{
					"index":11
				},
				"metallicFactor":0,
				"roughnessFactor":0.5527859926223755
			}
		},
		{
			"doubleSided":true,
			"name":"Wolf3D_Outfit_Footwear.006",
			"normalTexture":{
				"index":12
			},
			"pbrMetallicRoughness":{
				"baseColorTexture":{
					"index":13
				},
				"metallicFactor":0,
				"roughnessFactor":0.5
			}
		}
	],
	"meshes":[
		{
			"name":"Object_9",
			"primitives":[
				{
					"attributes":{
						"POSITION":0,
						"NORMAL":1,
						"TEXCOORD_0":2,
						"TEXCOORD_1":3,
						"TANGENT":4
					},
					"indices":5,
					"material":0
				}
			]
		},
		{
			"name":"Object_7.006",
			"primitives":[
				{
					"attributes":{
						"POSITION":6,
						"NORMAL":7,
						"TEXCOORD_0":8,
						"TEXCOORD_1":9,
						"TEXCOORD_2":10,
						"TEXCOORD_3":11,
						"TANGENT":12
					},
					"indices":13,
					"material":1
				}
			]
		},
		{
			"name":"mesh_5.006",
			"primitives":[
				{
					"attributes":{
						"POSITION":14,
						"NORMAL":15,
						"TEXCOORD_0":16,
						"TEXCOORD_1":17,
						"TANGENT":18
					},
					"indices":19,
					"material":2
				}
			]
		},
		{
			"name":"mesh_1.006",
			"primitives":[
				{
					"attributes":{
						"POSITION":20,
						"NORMAL":21,
						"TEXCOORD_0":22,
						"TANGENT":23
					},
					"indices":24,
					"material":3
				}
			]
		},
		{
			"name":"mesh_2.006",
			"primitives":[
				{
					"attributes":{
						"POSITION":25,
						"NORMAL":26,
						"TEXCOORD_0":27,
						"TANGENT":28
					},
					"indices":29,
					"material":4
				}
			]
		},
		{
			"name":"Object_4.006",
			"primitives":[
				{
					"attributes":{
						"POSITION":30,
						"NORMAL":31,
						"TEXCOORD_0":32,
						"TEXCOORD_1":33,
						"TANGENT":34
					},
					"indices":35,
					"material":5
				}
			]
		},
		{
			"name":"mesh_0.006",
			"primitives":[
				{
					"attributes":{
						"POSITION":36,
						"NORMAL":37,
						"TEXCOORD_0":38,
						"TANGENT":39
					},
					"indices":40,
					"material":3
				}
			]
		},
		{
			"name":"Object_6.006",
			"primitives":[
				{
					"attributes":{
						"POSITION":41,
						"NORMAL":42,
						"TEXCOORD_0":43,
						"TEXCOORD_1":44,
						"TANGENT":45
					},
					"indices":46,
					"material":6
				}
			]
		},
		{
			"name":"Object_8.006",
			"primitives":[
				{
					"attributes":{
						"POSITION":47,
						"NORMAL":48,
						"TEXCOORD_0":49,
						"TEXCOORD_1":50,
						"TEXCOORD_2":51,
						"TEXCOORD_3":52,
						"TANGENT":53
					},
					"indices":54,
					"material":7
				}
			]
		}
	],
	"textures":[
		{
			"sampler":0,
			"source":0
		},
		{
			"sampler":0,
			"source":1
		},
		{
			"sampler":0,
			"source":2
		},
		{
			"sampler":0,
			"source":3
		},
		{
			"sampler":0,
			"source":4
		},
		{
			"sampler":0,
			"source":5
		},
		{
			"sampler":0,
			"source":6
		},
		{
			"sampler":0,
			"source":7
		},
		{
			"sampler":0,
			"source":8
		},
		{
			"sampler":0,
			"source":5
		},
		{
			"sampler":0,
			"source":9
		},
		{
			"sampler":0,
			"source":10
		},
		{
			"sampler":0,
			"source":11
		},
		{
			"sampler":0,
			"source":12
		}
	],
	"images":[
		{
			"mimeType":"image/jpeg",
			"name":"Wolf3D_Outfit_Top_normal",
			"uri":"textures/Wolf3D_Outfit_Top_normal.jpg"
		},
		{
			"mimeType":"image/png",
			"name":"Screenshot 2025-12-24 225745",
			"uri":"textures/Screenshot%202025-12-24%20225745.png"
		},
		{
			"mimeType":"image/jpeg",
			"name":"Wolf3D_Outfit_Bottom_normal",
			"uri":"textures/Wolf3D_Outfit_Bottom_normal.jpg"
		},
		{
			"mimeType":"image/png",
			"name":"Screenshot 2025-12-21 121138",
			"uri":"textures/Screenshot%202025-12-21%20121138.png"
		},
		{
			"mimeType":"image/jpeg",
			"name":"Wolf3D_Beard_normal",
			"uri":"textures/Wolf3D_Beard_normal.jpg"
		},
		{
			"mimeType":"image/png",
			"name":"Screenshot 2025-12-21 121138",
			"uri":"textures/Screenshot%202025-12-21%20121138-1.png"
		},
		{
			"mimeType":"image/jpeg",
			"name":"Wolf3D_Eye_baseColor",
			"uri":"textures/Wolf3D_Eye_baseColor.jpg"
		},
		{
			"mimeType":"image/jpeg",
			"name":"Wolf3D_Skin_baseColor",
			"uri":"textures/Wolf3D_Skin_baseColor.jpg"
		},
		{
			"mimeType":"image/jpeg",
			"name":"Wolf3D_Hair_normal",
			"uri":"textures/Wolf3D_Hair_normal.jpg"
		},
		{
			"mimeType":"image/jpeg",
			"name":"Wolf3D_Body_normal",
			"uri":"textures/Wolf3D_Body_normal.jpg"
		},
		{
			"mimeType":"image/jpeg",
			"name":"Wolf3D_Body_baseColor",
			"uri":"textures/Wolf3D_Body_baseColor.jpg"
		},
		{
			"mimeType":"image/jpeg",
			"name":"Wolf3D_Outfit_Footwear_normal",
			"uri":"textures/Wolf3D_Outfit_Footwear_normal.jpg"
		},
		{
			"mimeType":"image/jpeg",
			"name":"Wolf3D_Outfit_Footwear_baseColor",
			"uri":"textures/Wolf3D_Outfit_Footwear_baseColor.jpg"
		}
	],
	"accessors":[
		{
			"bufferView":0,
			"componentType":5126,
			"count":2570,
			"max":[
				-182.1371612548828,
				21.722869873046875,
				-77.73613739013672
			],
			"min":[
				-185.1491241455078,
				15.7318115234375,
				-83.46051788330078
			],
			"type":"VEC3"
		},
		{
			"bufferView":1,
			"componentType":5126,
			"count":2570,
			"type":"VEC3"
		},
		{
			"bufferView":2,
			"componentType":5126,
			"count":2570,
			"type":"VEC2"
		},
		{
			"bufferView":3,
			"componentType":5126,
			"count":2570,
			"type":"VEC2"
		},
		{
			"bufferView":4,
			"componentType":5126,
			"count":2570,
			"type":"VEC4"
		},
		{
			"bufferView":5,
			"componentType":5123,
			"count":13761,
			"type":"SCALAR"
		},
		{
			"bufferView":6,
			"componentType":5126,
			"count":2403,
			"max":[
				-182.03167724609375,
				16.527734756469727,
				-77.8203125
			],
			"min":[
				-188.6575469970703,
				10.478538513183594,
				-83.3196029663086
			],
			"type":"VEC3"
		},
		{
			"bufferView":7,
			"componentType":5126,
			"count":2403,
			"type":"VEC3"
		},
		{
			"bufferView":8,
			"componentType":5126,
			"count":2403,
			"type":"VEC2"
		},
		{
			"bufferView":9,
			"componentType":5126,
			"count":2403,
			"type":"VEC2"
		},
		{
			"bufferView":10,
			"componentType":5126,
			"count":2403,
			"type":"VEC2"
		},
		{
			"bufferView":11,
			"componentType":5126,
			"count":2403,
			"type":"VEC2"
		},
		{
			"bufferView":12,
			"componentType":5126,
			"count":2403,
			"type":"VEC4"
		},
		{
			"bufferView":13,
			"componentType":5123,
			"count":12129,
			"type":"SCALAR"
		},
		{
			"bufferView":14,
			"componentType":5126,
			"count":262,
			"max":[
				-184.27146911621094,
				22.991796493530273,
				-79.87254333496094
			],
			"min":[
				-185.34934997558594,
				21.38230323791504,
				-81.4263916015625
			],
			"type":"VEC3"
		},
		{
			"bufferView":15,
			"componentType":5126,
			"count":262,
			"type":"VEC3"
		},
		{
			"bufferView":16,
			"componentType":5126,
			"count":262,
			"type":"VEC2"
		},
		{
			"bufferView":17,
			"componentType":5126,
			"count":262,
			"type":"VEC2"
		},
		{
			"bufferView":18,
			"componentType":5126,
			"count":262,
			"type":"VEC4"
		},
		{
			"bufferView":19,
			"componentType":5123,
			"count":1320,
			"type":"SCALAR"
		},
		{
			"bufferView":20,
			"componentType":5126,
			"count":152,
			"max":[
				-184.88534545898438,
				22.93310546875,
				-80.7833023071289
			],
			"min":[
				-185.08798217773438,
				22.53801727294922,
				-81.1771011352539
			],
			"type":"VEC3"
		},
		{
			"bufferView":21,
			"componentType":5126,
			"count":152,
			"type":"VEC3"
		},
		{
			"bufferView":22,
			"componentType":5126,
			"count":152,
			"type":"VEC2"
		},
		{
			"bufferView":23,
			"componentType":5126,
			"count":152,
			"type":"VEC4"
		},
		{
			"bufferView":24,
			"componentType":5123,
			"count":618,
			"type":"SCALAR"
		},
		{
			"bufferView":25,
			"componentType":5126,
			"count":2286,
			"max":[
				-182.9736328125,
				23.863046646118164,
				-79.70098876953125
			],
			"min":[
				-185.4205322265625,
				20.629392623901367,
				-81.6724853515625
			],
			"type":"VEC3"
		},
		{
			"bufferView":26,
			"componentType":5126,
			"count":2286,
			"type":"VEC3"
		},
		{
			"bufferView":27,
			"componentType":5126,
			"count":2286,
			"type":"VEC2"
		},
		{
			"bufferView":28,
			"componentType":5126,
			"count":2286,
			"type":"VEC4"
		},
		{
			"bufferView":29,
			"componentType":5123,
			"count":12282,
			"type":"SCALAR"
		},
		{
			"bufferView":30,
			"componentType":5126,
			"count":297,
			"max":[
				-183.092041015625,
				24.092554092407227,
				-79.75309753417969
			],
			"min":[
				-185.1581268310547,
				22.123291015625,
				-81.49183654785156
			],
			"type":"VEC3"
		},
		{
			"bufferView":31,
			"componentType":5126,
			"count":297,
			"type":"VEC3"
		},
		{
			"bufferView":32,
			"componentType":5126,
			"count":297,
			"type":"VEC2"
		},
		{
			"bufferView":33,
			"componentType":5126,
			"count":297,
			"type":"VEC2"
		},
		{
			"bufferView":34,
			"componentType":5126,
			"count":297,
			"type":"VEC4"
		},
		{
			"bufferView":35,
			"componentType":5123,
			"count":1617,
			"type":"SCALAR"
		},
		{
			"bufferView":36,
			"componentType":5126,
			"count":152,
			"max":[
				-184.90306091308594,
				22.917770385742188,
				-80.1332015991211
			],
			"min":[
				-185.1060028076172,
				22.522964477539062,
				-80.52752685546875
			],
			"type":"VEC3"
		},
		{
			"bufferView":37,
			"componentType":5126,
			"count":152,
			"type":"VEC3"
		},
		{
			"bufferView":38,
			"componentType":5126,
			"count":152,
			"type":"VEC2"
		},
		{
			"bufferView":39,
			"componentType":5126,
			"count":152,
			"type":"VEC4"
		},
		{
			"bufferView":40,
			"componentType":5123,
			"count":618,
			"type":"SCALAR"
		},
		{
			"bufferView":41,
			"componentType":5126,
			"count":1022,
			"max":[
				-183.7611846923828,
				17.76555633544922,
				-78.2406234741211
			],
			"min":[
				-187.7620849609375,
				15.74841022491455,
				-83.07953643798828
			],
			"type":"VEC3"
		},
		{
			"bufferView":42,
			"componentType":5126,
			"count":1022,
			"type":"VEC3"
		},
		{
			"bufferView":43,
			"componentType":5126,
			"count":1022,
			"type":"VEC2"
		},
		{
			"bufferView":44,
			"componentType":5126,
			"count":1022,
			"type":"VEC2"
		},
		{
			"bufferView":45,
			"componentType":5126,
			"count":1022,
			"type":"VEC4"
		},
		{
			"bufferView":46,
			"componentType":5123,
			"count":4878,
			"type":"SCALAR"
		},
		{
			"bufferView":47,
			"componentType":5126,
			"count":973,
			"max":[
				-187.09043884277344,
				11.359867095947266,
				-77.40470886230469
			],
			"min":[
				-190.2462158203125,
				9.526156425476074,
				-83.81948852539062
			],
			"type":"VEC3"
		},
		{
			"bufferView":48,
			"componentType":5126,
			"count":973,
			"type":"VEC3"
		},
		{
			"bufferView":49,
			"componentType":5126,
			"count":973,
			"type":"VEC2"
		},
		{
			"bufferView":50,
			"componentType":5126,
			"count":973,
			"type":"VEC2"
		},
		{
			"bufferView":51,
			"componentType":5126,
			"count":973,
			"type":"VEC2"
		},
		{
			"bufferView":52,
			"componentType":5126,
			"count":973,
			"type":"VEC2"
		},
		{
			"bufferView":53,
			"componentType":5126,
			"count":973,
			"type":"VEC4"
		},
		{
			"bufferView":54,
			"componentType":5123,
			"count":4650,
			"type":"SCALAR"
		}
	],
	"bufferViews":[
		{
			"buffer":0,
			"byteLength":30840,
			"byteOffset":0,
			"target":34962
		},
		{
			"buffer":0,
			"byteLength":30840,
			"byteOffset":30840,
			"target":34962
		},
		{
			"buffer":0,
			"byteLength":20560,
			"byteOffset":61680,
			"target":34962
		},
		{
			"buffer":0,
			"byteLength":20560,
			"byteOffset":82240,
			"target":34962
		},
		{
			"buffer":0,
			"byteLength":41120,
			"byteOffset":102800,
			"target":34962
		},
		{
			"buffer":0,
			"byteLength":27522,
			"byteOffset":143920,
			"target":34963
		},
		{
			"buffer":0,
			"byteLength":28836,
			"byteOffset":171444,
			"target":34962
		},
		{
			"buffer":0,
			"byteLength":28836,
			"byteOffset":200280,
			"target":34962
		},
		{
			"buffer":0,
			"byteLength":19224,
			"byteOffset":229116,
			"target":34962
		},
		{
			"buffer":0,
			"byteLength":19224,
			"byteOffset":248340,
			"target":34962
		},
		{
			"buffer":0,
			"byteLength":19224,
			"byteOffset":267564,
			"target":34962
		},
		{
			"buffer":0,
			"byteLength":19224,
			"byteOffset":286788,
			"target":34962
		},
		{
			"buffer":0,
			"byteLength":38448,
			"byteOffset":306012,
			"target":34962
		},
		{
			"buffer":0,
			"byteLength":24258,
			"byteOffset":344460,
			"target":34963
		},
		{
			"buffer":0,
			"byteLength":3144,
			"byteOffset":368720,
			"target":34962
		},
		{
			"buffer":0,
			"byteLength":3144,
			"byteOffset":371864,
			"target":34962
		},
		{
			"buffer":0,
			"byteLength":2096,
			"byteOffset":375008,
			"target":34962
		},
		{
			"buffer":0,
			"byteLength":2096,
			"byteOffset":377104,
			"target":34962
		},
		{
			"buffer":0,
			"byteLength":4192,
			"byteOffset":379200,
			"target":34962
		},
		{
			"buffer":0,
			"byteLength":2640,
			"byteOffset":383392,
			"target":34963
		},
		{
			"buffer":0,
			"byteLength":1824,
			"byteOffset":386032,
			"target":34962
		},
		{
			"buffer":0,
			"byteLength":1824,
			"byteOffset":387856,
			"target":34962
		},
		{
			"buffer":0,
			"byteLength":1216,
			"byteOffset":389680,
			"target":34962
		},
		{
			"buffer":0,
			"byteLength":2432,
			"byteOffset":390896,
			"target":34962
		},
		{
			"buffer":0,
			"byteLength":1236,
			"byteOffset":393328,
			"target":34963
		},
		{
			"buffer":0,
			"byteLength":27432,
			"byteOffset":394564,
			"target":34962
		},
		{
			"buffer":0,
			"byteLength":27432,
			"byteOffset":421996,
			"target":34962
		},
		{
			"buffer":0,
			"byteLength":18288,
			"byteOffset":449428,
			"target":34962
		},
		{
			"buffer":0,
			"byteLength":36576,
			"byteOffset":467716,
			"target":34962
		},
		{
			"buffer":0,
			"byteLength":24564,
			"byteOffset":504292,
			"target":34963
		},
		{
			"buffer":0,
			"byteLength":3564,
			"byteOffset":528856,
			"target":34962
		},
		{
			"buffer":0,
			"byteLength":3564,
			"byteOffset":532420,
			"target":34962
		},
		{
			"buffer":0,
			"byteLength":2376,
			"byteOffset":535984,
			"target":34962
		},
		{
			"buffer":0,
			"byteLength":2376,
			"byteOffset":538360,
			"target":34962
		},
		{
			"buffer":0,
			"byteLength":4752,
			"byteOffset":540736,
			"target":34962
		},
		{
			"buffer":0,
			"byteLength":3234,
			"byteOffset":545488,
			"target":34963
		},
		{
			"buffer":0,
			"byteLength":1824,
			"byteOffset":548724,
			"target":34962
		},
		{
			"buffer":0,
			"byteLength":1824,
			"byteOffset":550548,
			"target":34962
		},
		{
			"buffer":0,
			"byteLength":1216,
			"byteOffset":552372,
			"target":34962
		},
		{
			"buffer":0,
			"byteLength":2432,
			"byteOffset":553588,
			"target":34962
		},
		{
			"buffer":0,
			"byteLength":1236,
			"byteOffset":556020,
			"target":34963
		},
		{
			"buffer":0,
			"byteLength":12264,
			"byteOffset":557256,
			"target":34962
		},
		{
			"buffer":0,
			"byteLength":12264,
			"byteOffset":569520,
			"target":34962
		},
		{
			"buffer":0,
			"byteLength":8176,
			"byteOffset":581784,
			"target":34962
		},
		{
			"buffer":0,
			"byteLength":8176,
			"byteOffset":589960,
			"target":34962
		},
		{
			"buffer":0,
			"byteLength":16352,
			"byteOffset":598136,
			"target":34962
		},
		{
			"buffer":0,
			"byteLength":9756,
			"byteOffset":614488,
			"target":34963
		},
		{
			"buffer":0,
			"byteLength":11676,
			"byteOffset":624244,
			"target":34962
		},
		{
			"buffer":0,
			"byteLength":11676,
			"byteOffset":635920,
			"target":34962
		},
		{
			"buffer":0,
			"byteLength":7784,
			"byteOffset":647596,
			"target":34962
		},
		{
			"buffer":0,
			"byteLength":7784,
			"byteOffset":655380,
			"target":34962
		},
		{
			"buffer":0,
			"byteLength":7784,
			"byteOffset":663164,
			"target":34962
		},
		{
			"buffer":0,
			"byteLength":7784,
			"byteOffset":670948,
			"target":34962
		},
		{
			"buffer":0,
			"byteLength":15568,
			"byteOffset":678732,
			"target":34962
		},
		{
			"buffer":0,
			"byteLength":9300,
			"byteOffset":694300,
			"target":34963
		}
	],
	"samplers":[
		{
			"magFilter":9729,
			"minFilter":9987
		}
	],
	"buffers":[
		{
			"byteLength":703600,
			"uri":"ManSittingOutside.bin"
		}
	]
}
