{
	"asset":{
		"generator":"Khronos glTF Blender I/O v4.4.56",
		"version":"2.0"
	},
	"scene":0,
	"scenes":[
		{
			"name":"Scene",
			"nodes":[
				7
			]
		}
	],
	"nodes":[
		{
			"mesh":0,
			"name":"Cylinder_0"
		},
		{
			"mesh":1,
			"name":"Cylinder_1"
		},
		{
			"mesh":2,
			"name":"Cylinder_2"
		},
		{
			"children":[
				0,
				1,
				2
			],
			"name":"Cylinder"
		},
		{
			"name":"Lamp.001"
		},
		{
			"children":[
				4
			],
			"name":"Lamp"
		},
		{
			"children":[
				3,
				5
			],
			"name":"Root"
		},
		{
			"children":[
				6
			],
			"name":"Sketchfab_model"
		}
	],
	"materials":[
		{
			"doubleSided":true,
			"name":"petals",
			"pbrMetallicRoughness":{
				"baseColorFactor":[
					0.4099098742008209,
					0,
					0.005554406903684139,
					1
				],
				"metallicFactor":0.20293444395065308,
				"roughnessFactor":0.5626905560493469
			}
		},
		{
			"doubleSided":true,
			"name":"stem",
			"pbrMetallicRoughness":{
				"baseColorFactor":[
					0.00544047262519598,
					0.09760766476392746,
					0.0018911900697275996,
					1
				],
				"metallicFactor":0.13586127758026123,
				"roughnessFactor":0.6663491129875183
			}
		},
		{
			"alphaMode":"BLEND",
			"doubleSided":true,
			"name":"leaves",
			"pbrMetallicRoughness":{
				"baseColorTexture":{
					"index":0
				},
				"metallicFactor":0,
				"roughnessFactor":0.6000000238418579
			}
		}
	],
	"meshes":[
		{
			"name":"Cylinder_0",
			"primitives":[
				{
					"attributes":{
						"POSITION":0,
						"NORMAL":1,
						"TEXCOORD_0":2
					},
					"indices":3,
					"material":0
				}
			]
		},
		{
			"name":"Cylinder_1",
			"primitives":[
				{
					"attributes":{
						"POSITION":4,
						"NORMAL":5,
						"TEXCOORD_0":6
					},
					"indices":7,
					"material":1
				}
			]
		},
		{
			"name":"Cylinder_2",
			"primitives":[
				{
					"attributes":{
						"POSITION":8,
						"NORMAL":9,
						"TEXCOORD_0":10
					},
					"indices":11,
					"material":2
				}
			]
		}
	],
	"textures":[
		{
			"sampler":0,
			"source":0
		}
	],
	"images":[
		{
			"mimeType":"image/png",
			"name":"Image_0",
			"uri":"Image_0.png"
		}
	],
	"accessors":[
		{
			"bufferView":0,
			"componentType":5126,
			"count":250,
			"max":[
				0.046389807015657425,
				0.5140178203582764,
				0.04541684314608574
			],
			"min":[
				-0.049557849764823914,
				0.3930211067199707,
				-0.046539586037397385
			],
			"type":"VEC3"
		},
		{
			"bufferView":1,
			"componentType":5126,
			"count":250,
			"type":"VEC3"
		},
		{
			"bufferView":2,
			"componentType":5126,
			"count":250,
			"type":"VEC2"
		},
		{
			"bufferView":3,
			"componentType":5123,
			"count":1368,
			"type":"SCALAR"
		},
		{
			"bufferView":4,
			"componentType":5126,
			"count":318,
			"max":[
				0.0791512057185173,
				0.5071557760238647,
				0.06440014392137527
			],
			"min":[
				-0.1159287840127945,
				0.00026069581508636475,
				-0.07172589749097824
			],
			"type":"VEC3"
		},
		{
			"bufferView":5,
			"componentType":5126,
			"count":318,
			"type":"VEC3"
		},
		{
			"bufferView":6,
			"componentType":5126,
			"count":318,
			"type":"VEC2"
		},
		{
			"bufferView":7,
			"componentType":5123,
			"count":1806,
			"type":"SCALAR"
		},
		{
			"bufferView":8,
			"componentType":5126,
			"count":196,
			"max":[
				0.09828419238328934,
				0.4140269458293915,
				0.07729688286781311
			],
			"min":[
				-0.14173877239227295,
				0.20289279520511627,
				-0.08926239609718323
			],
			"type":"VEC3"
		},
		{
			"bufferView":9,
			"componentType":5126,
			"count":196,
			"type":"VEC3"
		},
		{
			"bufferView":10,
			"componentType":5126,
			"count":196,
			"type":"VEC2"
		},
		{
			"bufferView":11,
			"componentType":5123,
			"count":288,
			"type":"SCALAR"
		}
	],
	"bufferViews":[
		{
			"buffer":0,
			"byteLength":3000,
			"byteOffset":0,
			"target":34962
		},
		{
			"buffer":0,
			"byteLength":3000,
			"byteOffset":3000,
			"target":34962
		},
		{
			"buffer":0,
			"byteLength":2000,
			"byteOffset":6000,
			"target":34962
		},
		{
			"buffer":0,
			"byteLength":2736,
			"byteOffset":8000,
			"target":34963
		},
		{
			"buffer":0,
			"byteLength":3816,
			"byteOffset":10736,
			"target":34962
		},
		{
			"buffer":0,
			"byteLength":3816,
			"byteOffset":14552,
			"target":34962
		},
		{
			"buffer":0,
			"byteLength":2544,
			"byteOffset":18368,
			"target":34962
		},
		{
			"buffer":0,
			"byteLength":3612,
			"byteOffset":20912,
			"target":34963
		},
		{
			"buffer":0,
			"byteLength":2352,
			"byteOffset":24524,
			"target":34962
		},
		{
			"buffer":0,
			"byteLength":2352,
			"byteOffset":26876,
			"target":34962
		},
		{
			"buffer":0,
			"byteLength":1568,
			"byteOffset":29228,
			"target":34962
		},
		{
			"buffer":0,
			"byteLength":576,
			"byteOffset":30796,
			"target":34963
		}
	],
	"samplers":[
		{
			"magFilter":9729,
			"minFilter":9987
		}
	],
	"buffers":[
		{
			"byteLength":31372,
			"uri":"freshRose.bin"
		}
	]
}
