{
	"asset":{
		"generator":"Khronos glTF Blender I/O v4.4.56",
		"version":"2.0"
	},
	"extensionsUsed":[
		"KHR_materials_specular"
	],
	"scene":0,
	"scenes":[
		{
			"name":"Scene",
			"nodes":[
				0,
				1,
				2,
				3,
				4,
				5,
				6
			]
		}
	],
	"nodes":[
		{
			"mesh":0,
			"name":"Object_16"
		},
		{
			"mesh":1,
			"name":"Object_15.001"
		},
		{
			"mesh":2,
			"name":"Object_13"
		},
		{
			"mesh":3,
			"name":"Object_8"
		},
		{
			"mesh":4,
			"name":"Object_7.001"
		},
		{
			"mesh":5,
			"name":"Object_9.001"
		},
		{
			"mesh":6,
			"name":"Object_11.001"
		}
	],
	"materials":[
		{
			"doubleSided":true,
			"extensions":{
				"KHR_materials_specular":{
					"specularFactor":0.0960002914071083
				}
			},
			"name":"haircut",
			"normalTexture":{
				"index":0
			},
			"pbrMetallicRoughness":{
				"baseColorTexture":{
					"index":1
				},
				"metallicFactor":0,
				"roughnessFactor":0.585454523563385
			}
		},
		{
			"doubleSided":true,
			"name":"outfit.001",
			"pbrMetallicRoughness":{
				"baseColorTexture":{
					"index":2
				},
				"metallicFactor":0.6872727274894714,
				"roughnessFactor":0.800000011920929
			}
		},
		{
			"doubleSided":true,
			"name":"AvatarRightEyeball",
			"normalTexture":{
				"index":3
			},
			"pbrMetallicRoughness":{
				"baseColorTexture":{
					"index":4
				},
				"metallicFactor":0
			}
		},
		{
			"doubleSided":true,
			"name":"AvatarEyelashes",
			"pbrMetallicRoughness":{
				"baseColorFactor":[
					0,
					0,
					0,
					1
				],
				"metallicFactor":0
			}
		},
		{
			"doubleSided":true,
			"extensions":{
				"KHR_materials_specular":{
					"specularFactor":0.2118101716041565
				}
			},
			"name":"AvatarBody",
			"normalTexture":{
				"index":5
			},
			"pbrMetallicRoughness":{
				"baseColorTexture":{
					"index":6
				},
				"metallicFactor":0,
				"roughnessFactor":0.6601894497871399
			}
		},
		{
			"doubleSided":true,
			"extensions":{
				"KHR_materials_specular":{
					"specularFactor":0.010666699148714542
				}
			},
			"name":"AvatarHead",
			"normalTexture":{
				"index":7
			},
			"pbrMetallicRoughness":{
				"baseColorTexture":{
					"index":8
				},
				"metallicFactor":0,
				"roughnessFactor":0.6784752011299133
			}
		},
		{
			"doubleSided":true,
			"name":"AvatarLeftEyeball",
			"normalTexture":{
				"index":9
			},
			"pbrMetallicRoughness":{
				"baseColorTexture":{
					"index":10
				},
				"metallicFactor":0
			}
		}
	],
	"meshes":[
		{
			"name":"haircut_haircut_0",
			"primitives":[
				{
					"attributes":{
						"POSITION":0,
						"NORMAL":1,
						"TEXCOORD_0":2,
						"TEXCOORD_1":3,
						"TANGENT":4
					},
					"indices":5,
					"material":0
				}
			]
		},
		{
			"name":"outfit_outfit_0.001",
			"primitives":[
				{
					"attributes":{
						"POSITION":6,
						"NORMAL":7,
						"TEXCOORD_0":8,
						"TEXCOORD_1":9,
						"TANGENT":10
					},
					"indices":11,
					"material":1
				}
			]
		},
		{
			"name":"AvatarRightEyeball_AvatarRightEyeball_0",
			"primitives":[
				{
					"attributes":{
						"POSITION":12,
						"NORMAL":13,
						"TEXCOORD_0":14,
						"TEXCOORD_1":15,
						"TANGENT":16
					},
					"indices":17,
					"material":2
				}
			]
		},
		{
			"name":"0",
			"primitives":[
				{
					"attributes":{
						"POSITION":18,
						"NORMAL":19,
						"TEXCOORD_0":20,
						"TANGENT":21
					},
					"indices":22,
					"material":3
				}
			]
		},
		{
			"name":"AvatarBody_AvatarBody_0",
			"primitives":[
				{
					"attributes":{
						"POSITION":23,
						"NORMAL":24,
						"TEXCOORD_0":25,
						"TEXCOORD_1":26,
						"TANGENT":27
					},
					"indices":28,
					"material":4
				}
			]
		},
		{
			"name":"1",
			"primitives":[
				{
					"attributes":{
						"POSITION":29,
						"NORMAL":30,
						"TEXCOORD_0":31,
						"TEXCOORD_1":32,
						"TANGENT":33
					},
					"indices":34,
					"material":5
				}
			]
		},
		{
			"name":"AvatarLeftEyeball_AvatarLeftEyeball_0",
			"primitives":[
				{
					"attributes":{
						"POSITION":35,
						"NORMAL":36,
						"TEXCOORD_0":37,
						"TEXCOORD_1":38,
						"TANGENT":39
					},
					"indices":40,
					"material":6
				}
			]
		}
	],
	"textures":[
		{
			"sampler":0,
			"source":0
		},
		{
			"sampler":0,
			"source":1
		},
		{
			"sampler":0,
			"source":2
		},
		{
			"sampler":0,
			"source":3
		},
		{
			"sampler":0,
			"source":4
		},
		{
			"sampler":0,
			"source":5
		},
		{
			"sampler":0,
			"source":6
		},
		{
			"sampler":0,
			"source":7
		},
		{
			"sampler":0,
			"source":8
		},
		{
			"sampler":0,
			"source":3
		},
		{
			"sampler":0,
			"source":4
		}
	],
	"images":[
		{
			"mimeType":"image/png",
			"name":"haircut_normal",
			"uri":"textures/haircut_normal.png"
		},
		{
			"mimeType":"image/png",
			"name":"haircut_baseColor",
			"uri":"textures/haircut_baseColor.png"
		},
		{
			"mimeType":"image/jpeg",
			"name":"Untitled design (1)",
			"uri":"textures/Untitled%20design%201.jpg"
		},
		{
			"mimeType":"image/png",
			"name":"AvatarLeftEyeball_normal",
			"uri":"textures/AvatarLeftEyeball_normal.png"
		},
		{
			"mimeType":"image/jpeg",
			"name":"AvatarLeftEyeball_baseColor",
			"uri":"textures/AvatarLeftEyeball_baseColor.jpg"
		},
		{
			"mimeType":"image/png",
			"name":"AvatarBody_normal",
			"uri":"textures/AvatarBody_normal.png"
		},
		{
			"mimeType":"image/jpeg",
			"name":"AvatarBody_baseColor",
			"uri":"textures/AvatarBody_baseColor.jpg"
		},
		{
			"mimeType":"image/png",
			"name":"AvatarHead_normal",
			"uri":"textures/AvatarHead_normal.png"
		},
		{
			"mimeType":"image/png",
			"name":"AvatarHead_baseColor",
			"uri":"textures/AvatarHead_baseColor.png"
		}
	],
	"accessors":[
		{
			"bufferView":0,
			"componentType":5126,
			"count":48815,
			"max":[
				41.01922607421875,
				16.631460189819336,
				47.84910202026367
			],
			"min":[
				38.398719787597656,
				13.163616180419922,
				45.23001480102539
			],
			"type":"VEC3"
		},
		{
			"bufferView":1,
			"componentType":5126,
			"count":48815,
			"type":"VEC3"
		},
		{
			"bufferView":2,
			"componentType":5126,
			"count":48815,
			"type":"VEC2"
		},
		{
			"bufferView":3,
			"componentType":5126,
			"count":48815,
			"type":"VEC2"
		},
		{
			"bufferView":4,
			"componentType":5126,
			"count":48815,
			"type":"VEC4"
		},
		{
			"bufferView":5,
			"componentType":5123,
			"count":137229,
			"type":"SCALAR"
		},
		{
			"bufferView":6,
			"componentType":5126,
			"count":19032,
			"max":[
				41.90338897705078,
				14.13979434967041,
				48.91423416137695
			],
			"min":[
				37.78993606567383,
				1.2759201126755215e-05,
				44.27459716796875
			],
			"type":"VEC3"
		},
		{
			"bufferView":7,
			"componentType":5126,
			"count":19032,
			"type":"VEC3"
		},
		{
			"bufferView":8,
			"componentType":5126,
			"count":19032,
			"type":"VEC2"
		},
		{
			"bufferView":9,
			"componentType":5126,
			"count":19032,
			"type":"VEC2"
		},
		{
			"bufferView":10,
			"componentType":5126,
			"count":19032,
			"type":"VEC4"
		},
		{
			"bufferView":11,
			"componentType":5123,
			"count":109890,
			"type":"SCALAR"
		},
		{
			"bufferView":12,
			"componentType":5126,
			"count":481,
			"max":[
				39.376399993896484,
				15.554489135742188,
				45.83317184448242
			],
			"min":[
				39.151126861572266,
				15.333479881286621,
				45.60694122314453
			],
			"type":"VEC3"
		},
		{
			"bufferView":13,
			"componentType":5126,
			"count":481,
			"type":"VEC3"
		},
		{
			"bufferView":14,
			"componentType":5126,
			"count":481,
			"type":"VEC2"
		},
		{
			"bufferView":15,
			"componentType":5126,
			"count":481,
			"type":"VEC2"
		},
		{
			"bufferView":16,
			"componentType":5126,
			"count":481,
			"type":"VEC4"
		},
		{
			"bufferView":17,
			"componentType":5123,
			"count":2373,
			"type":"SCALAR"
		},
		{
			"bufferView":18,
			"componentType":5126,
			"count":6300,
			"max":[
				39.309730529785156,
				15.510876655578613,
				46.27260208129883
			],
			"min":[
				38.726348876953125,
				15.349385261535645,
				45.55207824707031
			],
			"type":"VEC3"
		},
		{
			"bufferView":19,
			"componentType":5126,
			"count":6300,
			"type":"VEC3"
		},
		{
			"bufferView":20,
			"componentType":5126,
			"count":6300,
			"type":"VEC2"
		},
		{
			"bufferView":21,
			"componentType":5126,
			"count":6300,
			"type":"VEC4"
		},
		{
			"bufferView":22,
			"componentType":5123,
			"count":14700,
			"type":"SCALAR"
		},
		{
			"bufferView":23,
			"componentType":5126,
			"count":3279,
			"max":[
				40.95444107055664,
				13.932815551757812,
				48.807464599609375
			],
			"min":[
				37.20762252807617,
				7.458401203155518,
				41.37528991699219
			],
			"type":"VEC3"
		},
		{
			"bufferView":24,
			"componentType":5126,
			"count":3279,
			"type":"VEC3"
		},
		{
			"bufferView":25,
			"componentType":5126,
			"count":3279,
			"type":"VEC2"
		},
		{
			"bufferView":26,
			"componentType":5126,
			"count":3279,
			"type":"VEC2"
		},
		{
			"bufferView":27,
			"componentType":5126,
			"count":3279,
			"type":"VEC4"
		},
		{
			"bufferView":28,
			"componentType":5123,
			"count":16674,
			"type":"SCALAR"
		},
		{
			"bufferView":29,
			"componentType":5126,
			"count":7445,
			"max":[
				40.85890579223633,
				16.507610321044922,
				47.678226470947266
			],
			"min":[
				38.709556579589844,
				13.15717601776123,
				45.520233154296875
			],
			"type":"VEC3"
		},
		{
			"bufferView":30,
			"componentType":5126,
			"count":7445,
			"type":"VEC3"
		},
		{
			"bufferView":31,
			"componentType":5126,
			"count":7445,
			"type":"VEC2"
		},
		{
			"bufferView":32,
			"componentType":5126,
			"count":7445,
			"type":"VEC2"
		},
		{
			"bufferView":33,
			"componentType":5126,
			"count":7445,
			"type":"VEC4"
		},
		{
			"bufferView":34,
			"componentType":5123,
			"count":43212,
			"type":"SCALAR"
		},
		{
			"bufferView":35,
			"componentType":5126,
			"count":481,
			"max":[
				39.0127067565918,
				15.544160842895508,
				46.305389404296875
			],
			"min":[
				38.787933349609375,
				15.323151588439941,
				46.07849884033203
			],
			"type":"VEC3"
		},
		{
			"bufferView":36,
			"componentType":5126,
			"count":481,
			"type":"VEC3"
		},
		{
			"bufferView":37,
			"componentType":5126,
			"count":481,
			"type":"VEC2"
		},
		{
			"bufferView":38,
			"componentType":5126,
			"count":481,
			"type":"VEC2"
		},
		{
			"bufferView":39,
			"componentType":5126,
			"count":481,
			"type":"VEC4"
		},
		{
			"bufferView":40,
			"componentType":5123,
			"count":2373,
			"type":"SCALAR"
		}
	],
	"bufferViews":[
		{
			"buffer":0,
			"byteLength":585780,
			"byteOffset":0,
			"target":34962
		},
		{
			"buffer":0,
			"byteLength":585780,
			"byteOffset":585780,
			"target":34962
		},
		{
			"buffer":0,
			"byteLength":390520,
			"byteOffset":1171560,
			"target":34962
		},
		{
			"buffer":0,
			"byteLength":390520,
			"byteOffset":1562080,
			"target":34962
		},
		{
			"buffer":0,
			"byteLength":781040,
			"byteOffset":1952600,
			"target":34962
		},
		{
			"buffer":0,
			"byteLength":274458,
			"byteOffset":2733640,
			"target":34963
		},
		{
			"buffer":0,
			"byteLength":228384,
			"byteOffset":3008100,
			"target":34962
		},
		{
			"buffer":0,
			"byteLength":228384,
			"byteOffset":3236484,
			"target":34962
		},
		{
			"buffer":0,
			"byteLength":152256,
			"byteOffset":3464868,
			"target":34962
		},
		{
			"buffer":0,
			"byteLength":152256,
			"byteOffset":3617124,
			"target":34962
		},
		{
			"buffer":0,
			"byteLength":304512,
			"byteOffset":3769380,
			"target":34962
		},
		{
			"buffer":0,
			"byteLength":219780,
			"byteOffset":4073892,
			"target":34963
		},
		{
			"buffer":0,
			"byteLength":5772,
			"byteOffset":4293672,
			"target":34962
		},
		{
			"buffer":0,
			"byteLength":5772,
			"byteOffset":4299444,
			"target":34962
		},
		{
			"buffer":0,
			"byteLength":3848,
			"byteOffset":4305216,
			"target":34962
		},
		{
			"buffer":0,
			"byteLength":3848,
			"byteOffset":4309064,
			"target":34962
		},
		{
			"buffer":0,
			"byteLength":7696,
			"byteOffset":4312912,
			"target":34962
		},
		{
			"buffer":0,
			"byteLength":4746,
			"byteOffset":4320608,
			"target":34963
		},
		{
			"buffer":0,
			"byteLength":75600,
			"byteOffset":4325356,
			"target":34962
		},
		{
			"buffer":0,
			"byteLength":75600,
			"byteOffset":4400956,
			"target":34962
		},
		{
			"buffer":0,
			"byteLength":50400,
			"byteOffset":4476556,
			"target":34962
		},
		{
			"buffer":0,
			"byteLength":100800,
			"byteOffset":4526956,
			"target":34962
		},
		{
			"buffer":0,
			"byteLength":29400,
			"byteOffset":4627756,
			"target":34963
		},
		{
			"buffer":0,
			"byteLength":39348,
			"byteOffset":4657156,
			"target":34962
		},
		{
			"buffer":0,
			"byteLength":39348,
			"byteOffset":4696504,
			"target":34962
		},
		{
			"buffer":0,
			"byteLength":26232,
			"byteOffset":4735852,
			"target":34962
		},
		{
			"buffer":0,
			"byteLength":26232,
			"byteOffset":4762084,
			"target":34962
		},
		{
			"buffer":0,
			"byteLength":52464,
			"byteOffset":4788316,
			"target":34962
		},
		{
			"buffer":0,
			"byteLength":33348,
			"byteOffset":4840780,
			"target":34963
		},
		{
			"buffer":0,
			"byteLength":89340,
			"byteOffset":4874128,
			"target":34962
		},
		{
			"buffer":0,
			"byteLength":89340,
			"byteOffset":4963468,
			"target":34962
		},
		{
			"buffer":0,
			"byteLength":59560,
			"byteOffset":5052808,
			"target":34962
		},
		{
			"buffer":0,
			"byteLength":59560,
			"byteOffset":5112368,
			"target":34962
		},
		{
			"buffer":0,
			"byteLength":119120,
			"byteOffset":5171928,
			"target":34962
		},
		{
			"buffer":0,
			"byteLength":86424,
			"byteOffset":5291048,
			"target":34963
		},
		{
			"buffer":0,
			"byteLength":5772,
			"byteOffset":5377472,
			"target":34962
		},
		{
			"buffer":0,
			"byteLength":5772,
			"byteOffset":5383244,
			"target":34962
		},
		{
			"buffer":0,
			"byteLength":3848,
			"byteOffset":5389016,
			"target":34962
		},
		{
			"buffer":0,
			"byteLength":3848,
			"byteOffset":5392864,
			"target":34962
		},
		{
			"buffer":0,
			"byteLength":7696,
			"byteOffset":5396712,
			"target":34962
		},
		{
			"buffer":0,
			"byteLength":4746,
			"byteOffset":5404408,
			"target":34963
		}
	],
	"samplers":[
		{
			"magFilter":9729,
			"minFilter":9987
		}
	],
	"buffers":[
		{
			"byteLength":5409156,
			"uri":"Kitchen.bin"
		}
	]
}
