{
	"asset":{
		"generator":"Khronos glTF Blender I/O v5.0.21",
		"version":"2.0"
	},
	"scene":0,
	"scenes":[
		{
			"name":"Scene",
			"nodes":[
				9
			]
		}
	],
	"nodes":[
		{
			"mesh":0,
			"name":"Bridge.001_Bridge_0"
		},
		{
			"mesh":1,
			"name":"Bridge.001_Bridge_0.001"
		},
		{
			"mesh":2,
			"name":"Bridge.001_Bridge_0.002"
		},
		{
			"mesh":3,
			"name":"Bridge.001_Bridge_0.003"
		},
		{
			"mesh":4,
			"name":"Bridge.001_Bridge_0.004"
		},
		{
			"mesh":5,
			"name":"Bridge.001_Bridge_0.005"
		},
		{
			"children":[
				0,
				1,
				2,
				3,
				4,
				5
			],
			"name":"Bridge.001"
		},
		{
			"children":[
				6
			],
			"name":"RootNode"
		},
		{
			"children":[
				7
			],
			"name":"55cf4246115e481092483ecce044b36e.fbx"
		},
		{
			"children":[
				8
			],
			"name":"Sketchfab_model"
		}
	],
	"materials":[
		{
			"doubleSided":true,
			"name":"Bridge",
			"pbrMetallicRoughness":{
				"baseColorTexture":{
					"index":0
				},
				"metallicFactor":0,
				"roughnessFactor":0.5
			}
		},
		{
			"doubleSided":true,
			"name":"Material.001",
			"pbrMetallicRoughness":{
				"baseColorTexture":{
					"index":1
				},
				"metallicFactor":0,
				"roughnessFactor":0.75
			}
		},
		{
			"doubleSided":true,
			"name":"Material.002",
			"pbrMetallicRoughness":{
				"baseColorTexture":{
					"index":2
				},
				"metallicFactor":0,
				"roughnessFactor":0.5
			}
		},
		{
			"doubleSided":true,
			"name":"Material.006",
			"pbrMetallicRoughness":{
				"baseColorTexture":{
					"index":3
				},
				"metallicFactor":0,
				"roughnessFactor":0.5
			}
		},
		{
			"doubleSided":true,
			"name":"Material.007",
			"pbrMetallicRoughness":{
				"baseColorTexture":{
					"index":4
				},
				"metallicFactor":0,
				"roughnessFactor":0.5
			}
		}
	],
	"meshes":[
		{
			"name":"Bridge.001_Bridge_0",
			"primitives":[
				{
					"attributes":{
						"POSITION":0,
						"NORMAL":1,
						"TEXCOORD_0":2,
						"TANGENT":3
					},
					"indices":4,
					"material":0
				}
			]
		},
		{
			"name":"Bridge.001_Bridge_0.001",
			"primitives":[
				{
					"attributes":{
						"POSITION":5,
						"NORMAL":6,
						"TEXCOORD_0":7,
						"TANGENT":8
					},
					"indices":9,
					"material":1
				}
			]
		},
		{
			"name":"Bridge.001_Bridge_0.002",
			"primitives":[
				{
					"attributes":{
						"POSITION":10,
						"NORMAL":11,
						"TEXCOORD_0":12,
						"TANGENT":13
					},
					"indices":14,
					"material":2
				}
			]
		},
		{
			"name":"Bridge.001_Bridge_0.004",
			"primitives":[
				{
					"attributes":{
						"POSITION":15,
						"NORMAL":16,
						"TEXCOORD_0":17,
						"TANGENT":18
					},
					"indices":19,
					"material":3
				}
			]
		},
		{
			"name":"Bridge.001_Bridge_0.006",
			"primitives":[
				{
					"attributes":{
						"POSITION":20,
						"NORMAL":21,
						"TEXCOORD_0":22,
						"TANGENT":23
					},
					"indices":24,
					"material":4
				}
			]
		},
		{
			"name":"Bridge.001_Bridge_0.003",
			"primitives":[
				{
					"attributes":{
						"POSITION":25,
						"NORMAL":26,
						"TEXCOORD_0":27,
						"TANGENT":28
					},
					"indices":29,
					"material":2
				}
			]
		}
	],
	"textures":[
		{
			"sampler":0,
			"source":0
		},
		{
			"sampler":0,
			"source":1
		},
		{
			"sampler":0,
			"source":0
		},
		{
			"sampler":0,
			"source":0
		},
		{
			"sampler":0,
			"source":0
		}
	],
	"images":[
		{
			"mimeType":"image/png",
			"name":"Screenshot 2025-12-30 111251",
			"uri":"Screenshot%202025-12-30%20111251.png"
		},
		{
			"mimeType":"image/png",
			"name":"Screenshot 2025-12-30 101026",
			"uri":"Screenshot%202025-12-30%20101026.png"
		}
	],
	"accessors":[
		{
			"bufferView":0,
			"componentType":5126,
			"count":2268,
			"max":[
				58.64741897583008,
				1.2750506401062012,
				12.371450424194336
			],
			"min":[
				-1.4695972204208374,
				-0.09140670299530029,
				-11.945402145385742
			],
			"type":"VEC3"
		},
		{
			"bufferView":1,
			"componentType":5126,
			"count":2268,
			"type":"VEC3"
		},
		{
			"bufferView":2,
			"componentType":5126,
			"count":2268,
			"type":"VEC2"
		},
		{
			"bufferView":3,
			"componentType":5126,
			"count":2268,
			"type":"VEC4"
		},
		{
			"bufferView":4,
			"componentType":5123,
			"count":6888,
			"type":"SCALAR"
		},
		{
			"bufferView":5,
			"componentType":5126,
			"count":32,
			"max":[
				58.64741897583008,
				1.1493504047393799,
				8.414777755737305
			],
			"min":[
				-1.4695972204208374,
				-0.09140670299530029,
				-7.988729476928711
			],
			"type":"VEC3"
		},
		{
			"bufferView":6,
			"componentType":5126,
			"count":32,
			"type":"VEC3"
		},
		{
			"bufferView":7,
			"componentType":5126,
			"count":32,
			"type":"VEC2"
		},
		{
			"bufferView":8,
			"componentType":5126,
			"count":32,
			"type":"VEC4"
		},
		{
			"bufferView":9,
			"componentType":5123,
			"count":48,
			"type":"SCALAR"
		},
		{
			"bufferView":10,
			"componentType":5126,
			"count":435,
			"max":[
				59.56861877441406,
				11.518929481506348,
				13.663202285766602
			],
			"min":[
				-2.3908019065856934,
				-13.601816177368164,
				11.738004684448242
			],
			"type":"VEC3"
		},
		{
			"bufferView":11,
			"componentType":5126,
			"count":435,
			"type":"VEC3"
		},
		{
			"bufferView":12,
			"componentType":5126,
			"count":435,
			"type":"VEC2"
		},
		{
			"bufferView":13,
			"componentType":5126,
			"count":435,
			"type":"VEC4"
		},
		{
			"bufferView":14,
			"componentType":5123,
			"count":1287,
			"type":"SCALAR"
		},
		{
			"bufferView":15,
			"componentType":5126,
			"count":440,
			"max":[
				59.56861877441406,
				11.518922805786133,
				-11.737791061401367
			],
			"min":[
				-2.3908019065856934,
				-13.601824760437012,
				-13.66299057006836
			],
			"type":"VEC3"
		},
		{
			"bufferView":16,
			"componentType":5126,
			"count":440,
			"type":"VEC3"
		},
		{
			"bufferView":17,
			"componentType":5126,
			"count":440,
			"type":"VEC2"
		},
		{
			"bufferView":18,
			"componentType":5126,
			"count":440,
			"type":"VEC4"
		},
		{
			"bufferView":19,
			"componentType":5123,
			"count":1296,
			"type":"SCALAR"
		},
		{
			"bufferView":20,
			"componentType":5126,
			"count":4,
			"max":[
				59.568607330322266,
				2.0538852214813232,
				11.967240333557129
			],
			"min":[
				-2.3908019065856934,
				-0.9959369897842407,
				11.967238426208496
			],
			"type":"VEC3"
		},
		{
			"bufferView":21,
			"componentType":5126,
			"count":4,
			"type":"VEC3"
		},
		{
			"bufferView":22,
			"componentType":5126,
			"count":4,
			"type":"VEC2"
		},
		{
			"bufferView":23,
			"componentType":5126,
			"count":4,
			"type":"VEC4"
		},
		{
			"bufferView":24,
			"componentType":5123,
			"count":6,
			"type":"SCALAR"
		},
		{
			"bufferView":25,
			"componentType":5126,
			"count":3,
			"max":[
				59.568607330322266,
				-0.9959280490875244,
				13.430577278137207
			],
			"min":[
				-2.3908019065856934,
				-0.9959369897842407,
				11.967240333557129
			],
			"type":"VEC3"
		},
		{
			"bufferView":26,
			"componentType":5126,
			"count":3,
			"type":"VEC3"
		},
		{
			"bufferView":27,
			"componentType":5126,
			"count":3,
			"type":"VEC2"
		},
		{
			"bufferView":28,
			"componentType":5126,
			"count":3,
			"type":"VEC4"
		},
		{
			"bufferView":29,
			"componentType":5123,
			"count":3,
			"type":"SCALAR"
		}
	],
	"bufferViews":[
		{
			"buffer":0,
			"byteLength":27216,
			"byteOffset":0,
			"target":34962
		},
		{
			"buffer":0,
			"byteLength":27216,
			"byteOffset":27216,
			"target":34962
		},
		{
			"buffer":0,
			"byteLength":18144,
			"byteOffset":54432,
			"target":34962
		},
		{
			"buffer":0,
			"byteLength":36288,
			"byteOffset":72576,
			"target":34962
		},
		{
			"buffer":0,
			"byteLength":13776,
			"byteOffset":108864,
			"target":34963
		},
		{
			"buffer":0,
			"byteLength":384,
			"byteOffset":122640,
			"target":34962
		},
		{
			"buffer":0,
			"byteLength":384,
			"byteOffset":123024,
			"target":34962
		},
		{
			"buffer":0,
			"byteLength":256,
			"byteOffset":123408,
			"target":34962
		},
		{
			"buffer":0,
			"byteLength":512,
			"byteOffset":123664,
			"target":34962
		},
		{
			"buffer":0,
			"byteLength":96,
			"byteOffset":124176,
			"target":34963
		},
		{
			"buffer":0,
			"byteLength":5220,
			"byteOffset":124272,
			"target":34962
		},
		{
			"buffer":0,
			"byteLength":5220,
			"byteOffset":129492,
			"target":34962
		},
		{
			"buffer":0,
			"byteLength":3480,
			"byteOffset":134712,
			"target":34962
		},
		{
			"buffer":0,
			"byteLength":6960,
			"byteOffset":138192,
			"target":34962
		},
		{
			"buffer":0,
			"byteLength":2574,
			"byteOffset":145152,
			"target":34963
		},
		{
			"buffer":0,
			"byteLength":5280,
			"byteOffset":147728,
			"target":34962
		},
		{
			"buffer":0,
			"byteLength":5280,
			"byteOffset":153008,
			"target":34962
		},
		{
			"buffer":0,
			"byteLength":3520,
			"byteOffset":158288,
			"target":34962
		},
		{
			"buffer":0,
			"byteLength":7040,
			"byteOffset":161808,
			"target":34962
		},
		{
			"buffer":0,
			"byteLength":2592,
			"byteOffset":168848,
			"target":34963
		},
		{
			"buffer":0,
			"byteLength":48,
			"byteOffset":171440,
			"target":34962
		},
		{
			"buffer":0,
			"byteLength":48,
			"byteOffset":171488,
			"target":34962
		},
		{
			"buffer":0,
			"byteLength":32,
			"byteOffset":171536,
			"target":34962
		},
		{
			"buffer":0,
			"byteLength":64,
			"byteOffset":171568,
			"target":34962
		},
		{
			"buffer":0,
			"byteLength":12,
			"byteOffset":171632,
			"target":34963
		},
		{
			"buffer":0,
			"byteLength":36,
			"byteOffset":171644,
			"target":34962
		},
		{
			"buffer":0,
			"byteLength":36,
			"byteOffset":171680,
			"target":34962
		},
		{
			"buffer":0,
			"byteLength":24,
			"byteOffset":171716,
			"target":34962
		},
		{
			"buffer":0,
			"byteLength":48,
			"byteOffset":171740,
			"target":34962
		},
		{
			"buffer":0,
			"byteLength":6,
			"byteOffset":171788,
			"target":34963
		}
	],
	"samplers":[
		{
			"magFilter":9729,
			"minFilter":9987
		}
	],
	"buffers":[
		{
			"byteLength":171796,
			"uri":"scene.bin"
		}
	]
}
