{
	"asset":{
		"generator":"Khronos glTF Blender I/O v5.0.21",
		"version":"2.0"
	},
	"scene":0,
	"scenes":[
		{
			"name":"Scene",
			"nodes":[
				5
			]
		}
	],
	"nodes":[
		{
			"mesh":0,
			"name":"Plane.008_ascht_0"
		},
		{
			"mesh":1,
			"name":"Plane.008_Material.002_0"
		},
		{
			"children":[
				0,
				1
			],
			"name":"Plane.008"
		},
		{
			"children":[
				2
			],
			"name":"RootNode"
		},
		{
			"children":[
				3
			],
			"name":"cef8320460ed40748f21ee6dd058b233.fbx"
		},
		{
			"children":[
				4
			],
			"name":"Sketchfab_model"
		}
	],
	"materials":[
		{
			"alphaMode":"BLEND",
			"doubleSided":true,
			"name":"ascht",
			"pbrMetallicRoughness":{
				"baseColorTexture":{
					"index":0
				},
				"metallicFactor":0,
				"metallicRoughnessTexture":{
					"index":1
				}
			}
		},
		{
			"doubleSided":true,
			"name":"Material.002",
			"normalTexture":{
				"index":2
			},
			"pbrMetallicRoughness":{
				"baseColorTexture":{
					"index":3
				},
				"metallicFactor":0
			}
		}
	],
	"meshes":[
		{
			"name":"Plane.008_ascht_0",
			"primitives":[
				{
					"attributes":{
						"POSITION":0,
						"NORMAL":1,
						"TEXCOORD_0":2,
						"TANGENT":3
					},
					"indices":4,
					"material":0
				}
			]
		},
		{
			"name":"Plane.008_Material.002_0",
			"primitives":[
				{
					"attributes":{
						"POSITION":5,
						"NORMAL":6,
						"TEXCOORD_0":7,
						"TANGENT":8
					},
					"indices":9,
					"material":1
				}
			]
		}
	],
	"textures":[
		{
			"sampler":0,
			"source":0
		},
		{
			"sampler":0,
			"source":1
		},
		{
			"sampler":0,
			"source":2
		},
		{
			"sampler":0,
			"source":3
		}
	],
	"images":[
		{
			"mimeType":"image/png",
			"name":"ascht_baseColor",
			"uri":"ascht_baseColor.png"
		},
		{
			"mimeType":"image/png",
			"name":"ascht_metallicRoughness",
			"uri":"ascht_metallicRoughness.png"
		},
		{
			"mimeType":"image/png",
			"name":"Material.002_normal",
			"uri":"Material.002_normal.png"
		},
		{
			"mimeType":"image/png",
			"name":"Material.002_baseColor",
			"uri":"Material.002_baseColor.png"
		}
	],
	"accessors":[
		{
			"bufferView":0,
			"componentType":5126,
			"count":6000,
			"max":[
				9.893928527832031,
				38.87958526611328,
				11.640130043029785
			],
			"min":[
				-8.46497917175293,
				12.555296897888184,
				-10.234045028686523
			],
			"type":"VEC3"
		},
		{
			"bufferView":1,
			"componentType":5126,
			"count":6000,
			"type":"VEC3"
		},
		{
			"bufferView":2,
			"componentType":5126,
			"count":6000,
			"type":"VEC2"
		},
		{
			"bufferView":3,
			"componentType":5126,
			"count":6000,
			"type":"VEC4"
		},
		{
			"bufferView":4,
			"componentType":5123,
			"count":18000,
			"type":"SCALAR"
		},
		{
			"bufferView":5,
			"componentType":5126,
			"count":14576,
			"max":[
				7.5735578536987305,
				35.192138671875,
				8.906192779541016
			],
			"min":[
				-6.4058709144592285,
				-0.47500038146972656,
				-6.550729751586914
			],
			"type":"VEC3"
		},
		{
			"bufferView":6,
			"componentType":5126,
			"count":14576,
			"type":"VEC3"
		},
		{
			"bufferView":7,
			"componentType":5126,
			"count":14576,
			"type":"VEC2"
		},
		{
			"bufferView":8,
			"componentType":5126,
			"count":14576,
			"type":"VEC4"
		},
		{
			"bufferView":9,
			"componentType":5123,
			"count":78000,
			"type":"SCALAR"
		}
	],
	"bufferViews":[
		{
			"buffer":0,
			"byteLength":72000,
			"byteOffset":0,
			"target":34962
		},
		{
			"buffer":0,
			"byteLength":72000,
			"byteOffset":72000,
			"target":34962
		},
		{
			"buffer":0,
			"byteLength":48000,
			"byteOffset":144000,
			"target":34962
		},
		{
			"buffer":0,
			"byteLength":96000,
			"byteOffset":192000,
			"target":34962
		},
		{
			"buffer":0,
			"byteLength":36000,
			"byteOffset":288000,
			"target":34963
		},
		{
			"buffer":0,
			"byteLength":174912,
			"byteOffset":324000,
			"target":34962
		},
		{
			"buffer":0,
			"byteLength":174912,
			"byteOffset":498912,
			"target":34962
		},
		{
			"buffer":0,
			"byteLength":116608,
			"byteOffset":673824,
			"target":34962
		},
		{
			"buffer":0,
			"byteLength":233216,
			"byteOffset":790432,
			"target":34962
		},
		{
			"buffer":0,
			"byteLength":156000,
			"byteOffset":1023648,
			"target":34963
		}
	],
	"samplers":[
		{
			"magFilter":9729,
			"minFilter":9987
		}
	],
	"buffers":[
		{
			"byteLength":1179648,
			"uri":"scene.bin"
		}
	]
}
