{
	"asset":{
		"generator":"Khronos glTF Blender I/O v4.4.56",
		"version":"2.0"
	},
	"scene":0,
	"scenes":[
		{
			"name":"Scene",
			"nodes":[
				22
			]
		}
	],
	"nodes":[
		{
			"name":"cenrer_main"
		},
		{
			"name":"leaf001_main"
		},
		{
			"name":"leaf002_main"
		},
		{
			"name":"petal001_main"
		},
		{
			"name":"petal002_main"
		},
		{
			"name":"petal003_main"
		},
		{
			"name":"petal004_main"
		},
		{
			"name":"petal005_main"
		},
		{
			"name":"petal006_main"
		},
		{
			"name":"petal007_main"
		},
		{
			"name":"petal008_main"
		},
		{
			"name":"petal009_main"
		},
		{
			"name":"petal010_main"
		},
		{
			"name":"sepal001_main"
		},
		{
			"name":"sepal002_main"
		},
		{
			"mesh":0,
			"name":"sepal003_main_1001_0"
		},
		{
			"children":[
				15
			],
			"name":"sepal003_main"
		},
		{
			"name":"sepal004_main"
		},
		{
			"name":"sepal005_main"
		},
		{
			"name":"stem_main"
		},
		{
			"children":[
				0,
				1,
				2,
				3,
				4,
				5,
				6,
				7,
				8,
				9,
				10,
				11,
				12,
				13,
				14,
				16,
				17,
				18,
				19
			],
			"name":"rose_dry_main"
		},
		{
			"children":[
				20
			],
			"name":"RootNode"
		},
		{
			"children":[
				21
			],
			"name":"rose_dry.fbx"
		}
	],
	"materials":[
		{
			"doubleSided":true,
			"name":"1001",
			"normalTexture":{
				"index":0,
				"scale":2
			},
			"pbrMetallicRoughness":{
				"baseColorTexture":{
					"index":1
				}
			}
		}
	],
	"meshes":[
		{
			"name":"sepal003_main_1001_0",
			"primitives":[
				{
					"attributes":{
						"POSITION":0,
						"NORMAL":1,
						"TEXCOORD_0":2
					},
					"indices":3,
					"material":0
				}
			]
		}
	],
	"textures":[
		{
			"sampler":0,
			"source":0
		},
		{
			"sampler":0,
			"source":1
		}
	],
	"images":[
		{
			"mimeType":"image/png",
			"name":"a1f4722b618845aa910473c3bac927f9_N_RoseDry_Normal",
			"uri":"a1f4722b618845aa910473c3bac927f9_N_RoseDry_Normal.png"
		},
		{
			"mimeType":"image/png",
			"name":"3af3e439b9974228bf06dfecc9cb3262_RGB_RoseDry_AlbedoTransparency",
			"uri":"3af3e439b9974228bf06dfecc9cb3262_RGB_RoseDry_AlbedoTransparency.png"
		}
	],
	"accessors":[
		{
			"bufferView":0,
			"componentType":5126,
			"count":618,
			"max":[
				0.0134594039991498,
				0.08053377270698547,
				0.013791079632937908
			],
			"min":[
				-0.01235090009868145,
				0.00017776500317268074,
				-0.01627740077674389
			],
			"type":"VEC3"
		},
		{
			"bufferView":1,
			"componentType":5126,
			"count":618,
			"type":"VEC3"
		},
		{
			"bufferView":2,
			"componentType":5126,
			"count":618,
			"type":"VEC2"
		},
		{
			"bufferView":3,
			"componentType":5123,
			"count":2010,
			"type":"SCALAR"
		}
	],
	"bufferViews":[
		{
			"buffer":0,
			"byteLength":7416,
			"byteOffset":0,
			"target":34962
		},
		{
			"buffer":0,
			"byteLength":7416,
			"byteOffset":7416,
			"target":34962
		},
		{
			"buffer":0,
			"byteLength":4944,
			"byteOffset":14832,
			"target":34962
		},
		{
			"buffer":0,
			"byteLength":4020,
			"byteOffset":19776,
			"target":34963
		}
	],
	"samplers":[
		{
			"magFilter":9729,
			"minFilter":9987
		}
	],
	"buffers":[
		{
			"byteLength":23796,
			"uri":"deadRose.bin"
		}
	]
}
