{
	"asset":{
		"generator":"Khronos glTF Blender I/O v4.4.56",
		"version":"2.0"
	},
	"scene":0,
	"scenes":[
		{
			"name":"Scene",
			"nodes":[
				0,
				1,
				2,
				3,
				4,
				5,
				6,
				7,
				8,
				9
			]
		}
	],
	"nodes":[
		{
			"mesh":0,
			"name":"Object_11"
		},
		{
			"mesh":1,
			"name":"Object_21"
		},
		{
			"mesh":2,
			"name":"Tshirt_Fabric_0"
		},
		{
			"mesh":3,
			"name":"Object_15"
		},
		{
			"mesh":4,
			"name":"Object_19"
		},
		{
			"mesh":5,
			"name":"Object_23"
		},
		{
			"mesh":6,
			"name":"Object_17"
		},
		{
			"mesh":7,
			"name":"Object_7"
		},
		{
			"mesh":8,
			"name":"Object_9.005"
		},
		{
			"mesh":9,
			"name":"Beer_Bottle2_Material_0"
		}
	],
	"materials":[
		{
			"name":"Wolf3D_Skin",
			"pbrMetallicRoughness":{
				"baseColorTexture":{
					"index":0
				},
				"metallicFactor":0,
				"roughnessFactor":0.699999988079071
			}
		},
		{
			"name":"Wolf3D_Outfit_Bottom",
			"normalTexture":{
				"index":1
			},
			"pbrMetallicRoughness":{
				"baseColorTexture":{
					"index":2
				},
				"metallicFactor":0
			}
		},
		{
			"name":"Fabric",
			"normalTexture":{
				"index":3,
				"scale":2
			},
			"pbrMetallicRoughness":{
				"baseColorTexture":{
					"index":4
				},
				"metallicFactor":0
			}
		},
		{
			"name":"Wolf3D_Hair",
			"normalTexture":{
				"index":5
			},
			"pbrMetallicRoughness":{
				"baseColorTexture":{
					"index":6
				},
				"metallicFactor":0,
				"roughnessFactor":0.7272729873657227
			}
		},
		{
			"name":"Wolf3D_Body",
			"normalTexture":{
				"index":7
			},
			"pbrMetallicRoughness":{
				"baseColorTexture":{
					"index":8
				},
				"metallicFactor":0,
				"roughnessFactor":0.5527859926223755
			}
		},
		{
			"doubleSided":true,
			"name":"Wolf3D_Outfit_Footwear",
			"normalTexture":{
				"index":9
			},
			"pbrMetallicRoughness":{
				"baseColorTexture":{
					"index":10
				},
				"metallicFactor":0,
				"roughnessFactor":0.5
			}
		},
		{
			"name":"Wolf3D_Beard",
			"normalTexture":{
				"index":11
			},
			"pbrMetallicRoughness":{
				"baseColorTexture":{
					"index":12
				},
				"metallicFactor":0,
				"roughnessFactor":0.699999988079071
			}
		},
		{
			"doubleSided":true,
			"name":"Wolf3D_Eye",
			"pbrMetallicRoughness":{
				"baseColorTexture":{
					"index":13
				},
				"metallicFactor":0
			}
		},
		{
			"doubleSided":true,
			"name":"Material.010",
			"normalTexture":{
				"index":14
			},
			"pbrMetallicRoughness":{
				"baseColorTexture":{
					"index":15
				},
				"metallicRoughnessTexture":{
					"index":16
				}
			}
		}
	],
	"meshes":[
		{
			"name":"mesh_2",
			"primitives":[
				{
					"attributes":{
						"POSITION":0,
						"NORMAL":1,
						"TEXCOORD_0":2,
						"TANGENT":3
					},
					"indices":4,
					"material":0
				}
			]
		},
		{
			"name":"Object_7",
			"primitives":[
				{
					"attributes":{
						"POSITION":5,
						"NORMAL":6,
						"TEXCOORD_0":7,
						"TEXCOORD_1":8,
						"TEXCOORD_2":9,
						"TEXCOORD_3":10,
						"TANGENT":11
					},
					"indices":12,
					"material":1
				}
			]
		},
		{
			"name":"Tshirt_Fabric_0",
			"primitives":[
				{
					"attributes":{
						"POSITION":13,
						"NORMAL":14,
						"TEXCOORD_0":15,
						"TANGENT":16
					},
					"indices":17,
					"material":2
				}
			]
		},
		{
			"name":"Object_4",
			"primitives":[
				{
					"attributes":{
						"POSITION":18,
						"NORMAL":19,
						"TEXCOORD_0":20,
						"TEXCOORD_1":21,
						"TANGENT":22
					},
					"indices":23,
					"material":3
				}
			]
		},
		{
			"name":"Object_6",
			"primitives":[
				{
					"attributes":{
						"POSITION":24,
						"NORMAL":25,
						"TEXCOORD_0":26,
						"TEXCOORD_1":27,
						"TANGENT":28
					},
					"indices":29,
					"material":4
				}
			]
		},
		{
			"name":"Object_8",
			"primitives":[
				{
					"attributes":{
						"POSITION":30,
						"NORMAL":31,
						"TEXCOORD_0":32,
						"TEXCOORD_1":33,
						"TEXCOORD_2":34,
						"TEXCOORD_3":35,
						"TANGENT":36
					},
					"indices":37,
					"material":5
				}
			]
		},
		{
			"name":"mesh_5",
			"primitives":[
				{
					"attributes":{
						"POSITION":38,
						"NORMAL":39,
						"TEXCOORD_0":40,
						"TEXCOORD_1":41,
						"TANGENT":42
					},
					"indices":43,
					"material":6
				}
			]
		},
		{
			"name":"mesh_0",
			"primitives":[
				{
					"attributes":{
						"POSITION":44,
						"NORMAL":45,
						"TEXCOORD_0":46,
						"TANGENT":47
					},
					"indices":48,
					"material":7
				}
			]
		},
		{
			"name":"mesh_1",
			"primitives":[
				{
					"attributes":{
						"POSITION":49,
						"NORMAL":50,
						"TEXCOORD_0":51,
						"TANGENT":52
					},
					"indices":53,
					"material":7
				}
			]
		},
		{
			"name":"Beer_Bottle2_Material_0",
			"primitives":[
				{
					"attributes":{
						"POSITION":54,
						"NORMAL":55,
						"TEXCOORD_0":56,
						"TANGENT":57
					},
					"indices":58,
					"material":8
				}
			]
		}
	],
	"textures":[
		{
			"sampler":0,
			"source":0
		},
		{
			"sampler":0,
			"source":1
		},
		{
			"sampler":0,
			"source":2
		},
		{
			"sampler":0,
			"source":3
		},
		{
			"sampler":0,
			"source":4
		},
		{
			"sampler":0,
			"source":5
		},
		{
			"sampler":0,
			"source":6
		},
		{
			"sampler":0,
			"source":7
		},
		{
			"sampler":0,
			"source":8
		},
		{
			"sampler":0,
			"source":9
		},
		{
			"sampler":0,
			"source":10
		},
		{
			"sampler":0,
			"source":11
		},
		{
			"sampler":0,
			"source":12
		},
		{
			"sampler":0,
			"source":13
		},
		{
			"sampler":0,
			"source":14
		},
		{
			"sampler":0,
			"source":15
		},
		{
			"sampler":0,
			"source":16
		}
	],
	"images":[
		{
			"mimeType":"image/jpeg",
			"name":"Wolf3D_Skin_baseColor",
			"uri":"textures/Wolf3D_Skin_baseColor.jpg"
		},
		{
			"mimeType":"image/jpeg",
			"name":"Wolf3D_Outfit_Bottom_normal",
			"uri":"textures/Wolf3D_Outfit_Bottom_normal.jpg"
		},
		{
			"mimeType":"image/png",
			"name":"Screenshot 2025-12-21 121138-Screenshot 2025-12-24 225745_png",
			"uri":"textures/Screenshot%202025-12-21%20121138-Screenshot%202025-12-24%20225745_png.png"
		},
		{
			"mimeType":"image/jpeg",
			"name":"d29fceea60cb463688104b44dfa7920a_N_Normals_Mens_Undershirt",
			"uri":"textures/d29fceea60cb463688104b44dfa7920a_N_Normals_Mens_Undershirt.jpg"
		},
		{
			"mimeType":"image/png",
			"name":"Screenshot 2025-12-21 172303",
			"uri":"textures/Screenshot%202025-12-21%20172303.png"
		},
		{
			"mimeType":"image/jpeg",
			"name":"Wolf3D_Hair_normal",
			"uri":"textures/Wolf3D_Hair_normal.jpg"
		},
		{
			"mimeType":"image/png",
			"name":"Screenshot 2025-12-21 121138",
			"uri":"textures/Screenshot%202025-12-21%20121138.png"
		},
		{
			"mimeType":"image/jpeg",
			"name":"Wolf3D_Body_normal",
			"uri":"textures/Wolf3D_Body_normal.jpg"
		},
		{
			"mimeType":"image/jpeg",
			"name":"Wolf3D_Body_baseColor",
			"uri":"textures/Wolf3D_Body_baseColor.jpg"
		},
		{
			"mimeType":"image/jpeg",
			"name":"Wolf3D_Outfit_Footwear_normal",
			"uri":"textures/Wolf3D_Outfit_Footwear_normal.jpg"
		},
		{
			"mimeType":"image/jpeg",
			"name":"Wolf3D_Outfit_Footwear_baseColor",
			"uri":"textures/Wolf3D_Outfit_Footwear_baseColor.jpg"
		},
		{
			"mimeType":"image/jpeg",
			"name":"Wolf3D_Beard_normal",
			"uri":"textures/Wolf3D_Beard_normal.jpg"
		},
		{
			"mimeType":"image/png",
			"name":"Screenshot 2025-12-21 121138-1",
			"uri":"textures/Screenshot%202025-12-21%20121138-1.png"
		},
		{
			"mimeType":"image/jpeg",
			"name":"Wolf3D_Eye_baseColor",
			"uri":"textures/Wolf3D_Eye_baseColor.jpg"
		},
		{
			"mimeType":"image/png",
			"name":"Image_2",
			"uri":"textures/Image_2.png"
		},
		{
			"mimeType":"image/png",
			"name":"Image_0",
			"uri":"textures/Image_0.png"
		},
		{
			"mimeType":"image/png",
			"name":"Image_1",
			"uri":"textures/Image_1.png"
		}
	],
	"accessors":[
		{
			"bufferView":0,
			"componentType":5126,
			"count":2286,
			"max":[
				-150.31488037109375,
				26.398967742919922,
				-75.74596405029297
			],
			"min":[
				-152.18370056152344,
				23.511693954467773,
				-78.1690673828125
			],
			"type":"VEC3"
		},
		{
			"bufferView":1,
			"componentType":5126,
			"count":2286,
			"type":"VEC3"
		},
		{
			"bufferView":2,
			"componentType":5126,
			"count":2286,
			"type":"VEC2"
		},
		{
			"bufferView":3,
			"componentType":5126,
			"count":2286,
			"type":"VEC4"
		},
		{
			"bufferView":4,
			"componentType":5123,
			"count":12282,
			"type":"SCALAR"
		},
		{
			"bufferView":5,
			"componentType":5126,
			"count":2403,
			"max":[
				-145.74929809570312,
				19.723297119140625,
				-70.9764404296875
			],
			"min":[
				-151.89608764648438,
				14.171247482299805,
				-77.93685913085938
			],
			"type":"VEC3"
		},
		{
			"bufferView":6,
			"componentType":5126,
			"count":2403,
			"type":"VEC3"
		},
		{
			"bufferView":7,
			"componentType":5126,
			"count":2403,
			"type":"VEC2"
		},
		{
			"bufferView":8,
			"componentType":5126,
			"count":2403,
			"type":"VEC2"
		},
		{
			"bufferView":9,
			"componentType":5126,
			"count":2403,
			"type":"VEC2"
		},
		{
			"bufferView":10,
			"componentType":5126,
			"count":2403,
			"type":"VEC2"
		},
		{
			"bufferView":11,
			"componentType":5126,
			"count":2403,
			"type":"VEC4"
		},
		{
			"bufferView":12,
			"componentType":5123,
			"count":12129,
			"type":"SCALAR"
		},
		{
			"bufferView":13,
			"componentType":5126,
			"count":2850,
			"max":[
				-147.74920654296875,
				24.057876586914062,
				-74.5521011352539
			],
			"min":[
				-153.61143493652344,
				18.989845275878906,
				-78.98876190185547
			],
			"type":"VEC3"
		},
		{
			"bufferView":14,
			"componentType":5126,
			"count":2850,
			"type":"VEC3"
		},
		{
			"bufferView":15,
			"componentType":5126,
			"count":2850,
			"type":"VEC2"
		},
		{
			"bufferView":16,
			"componentType":5126,
			"count":2850,
			"type":"VEC4"
		},
		{
			"bufferView":17,
			"componentType":5123,
			"count":16074,
			"type":"SCALAR"
		},
		{
			"bufferView":18,
			"componentType":5126,
			"count":297,
			"max":[
				-150.25872802734375,
				26.597620010375977,
				-75.79586791992188
			],
			"min":[
				-151.98782348632812,
				24.814489364624023,
				-77.79195404052734
			],
			"type":"VEC3"
		},
		{
			"bufferView":19,
			"componentType":5126,
			"count":297,
			"type":"VEC3"
		},
		{
			"bufferView":20,
			"componentType":5126,
			"count":297,
			"type":"VEC2"
		},
		{
			"bufferView":21,
			"componentType":5126,
			"count":297,
			"type":"VEC2"
		},
		{
			"bufferView":22,
			"componentType":5126,
			"count":297,
			"type":"VEC4"
		},
		{
			"bufferView":23,
			"componentType":5123,
			"count":1617,
			"type":"SCALAR"
		},
		{
			"bufferView":24,
			"componentType":5126,
			"count":1022,
			"max":[
				-144.89407348632812,
				21.729097366333008,
				-72.18785095214844
			],
			"min":[
				-153.41354370117188,
				19.067890167236328,
				-78.30197143554688
			],
			"type":"VEC3"
		},
		{
			"bufferView":25,
			"componentType":5126,
			"count":1022,
			"type":"VEC3"
		},
		{
			"bufferView":26,
			"componentType":5126,
			"count":1022,
			"type":"VEC2"
		},
		{
			"bufferView":27,
			"componentType":5126,
			"count":1022,
			"type":"VEC2"
		},
		{
			"bufferView":28,
			"componentType":5126,
			"count":1022,
			"type":"VEC4"
		},
		{
			"bufferView":29,
			"componentType":5123,
			"count":4878,
			"type":"SCALAR"
		},
		{
			"bufferView":30,
			"componentType":5126,
			"count":973,
			"max":[
				-144.67845153808594,
				15.261639595031738,
				-69.45841217041016
			],
			"min":[
				-149.535400390625,
				13.25321102142334,
				-74.05267333984375
			],
			"type":"VEC3"
		},
		{
			"bufferView":31,
			"componentType":5126,
			"count":973,
			"type":"VEC3"
		},
		{
			"bufferView":32,
			"componentType":5126,
			"count":973,
			"type":"VEC2"
		},
		{
			"bufferView":33,
			"componentType":5126,
			"count":973,
			"type":"VEC2"
		},
		{
			"bufferView":34,
			"componentType":5126,
			"count":973,
			"type":"VEC2"
		},
		{
			"bufferView":35,
			"componentType":5126,
			"count":973,
			"type":"VEC2"
		},
		{
			"bufferView":36,
			"componentType":5126,
			"count":973,
			"type":"VEC4"
		},
		{
			"bufferView":37,
			"componentType":5123,
			"count":4650,
			"type":"SCALAR"
		},
		{
			"bufferView":38,
			"componentType":5126,
			"count":262,
			"max":[
				-150.31700134277344,
				25.568693161010742,
				-75.83110046386719
			],
			"min":[
				-151.74876403808594,
				24.001277923583984,
				-76.93769836425781
			],
			"type":"VEC3"
		},
		{
			"bufferView":39,
			"componentType":5126,
			"count":262,
			"type":"VEC3"
		},
		{
			"bufferView":40,
			"componentType":5126,
			"count":262,
			"type":"VEC2"
		},
		{
			"bufferView":41,
			"componentType":5126,
			"count":262,
			"type":"VEC2"
		},
		{
			"bufferView":42,
			"componentType":5126,
			"count":262,
			"type":"VEC4"
		},
		{
			"bufferView":43,
			"componentType":5123,
			"count":1320,
			"type":"SCALAR"
		},
		{
			"bufferView":44,
			"componentType":5126,
			"count":152,
			"max":[
				-150.42333984375,
				25.451885223388672,
				-76.08805847167969
			],
			"min":[
				-150.7854766845703,
				25.083003997802734,
				-76.33557891845703
			],
			"type":"VEC3"
		},
		{
			"bufferView":45,
			"componentType":5126,
			"count":152,
			"type":"VEC3"
		},
		{
			"bufferView":46,
			"componentType":5126,
			"count":152,
			"type":"VEC2"
		},
		{
			"bufferView":47,
			"componentType":5126,
			"count":152,
			"type":"VEC4"
		},
		{
			"bufferView":48,
			"componentType":5123,
			"count":618,
			"type":"SCALAR"
		},
		{
			"bufferView":49,
			"componentType":5126,
			"count":152,
			"max":[
				-151.0074005126953,
				25.424421310424805,
				-75.89279174804688
			],
			"min":[
				-151.36746215820312,
				25.053665161132812,
				-76.13825225830078
			],
			"type":"VEC3"
		},
		{
			"bufferView":50,
			"componentType":5126,
			"count":152,
			"type":"VEC3"
		},
		{
			"bufferView":51,
			"componentType":5126,
			"count":152,
			"type":"VEC2"
		},
		{
			"bufferView":52,
			"componentType":5126,
			"count":152,
			"type":"VEC4"
		},
		{
			"bufferView":53,
			"componentType":5123,
			"count":618,
			"type":"SCALAR"
		},
		{
			"bufferView":54,
			"componentType":5126,
			"count":239,
			"max":[
				-145.1586456298828,
				22.84916114807129,
				-75.72232055664062
			],
			"min":[
				-146.41172790527344,
				20.0230655670166,
				-76.84252166748047
			],
			"type":"VEC3"
		},
		{
			"bufferView":55,
			"componentType":5126,
			"count":239,
			"type":"VEC3"
		},
		{
			"bufferView":56,
			"componentType":5126,
			"count":239,
			"type":"VEC2"
		},
		{
			"bufferView":57,
			"componentType":5126,
			"count":239,
			"type":"VEC4"
		},
		{
			"bufferView":58,
			"componentType":5123,
			"count":714,
			"type":"SCALAR"
		}
	],
	"bufferViews":[
		{
			"buffer":0,
			"byteLength":27432,
			"byteOffset":0,
			"target":34962
		},
		{
			"buffer":0,
			"byteLength":27432,
			"byteOffset":27432,
			"target":34962
		},
		{
			"buffer":0,
			"byteLength":18288,
			"byteOffset":54864,
			"target":34962
		},
		{
			"buffer":0,
			"byteLength":36576,
			"byteOffset":73152,
			"target":34962
		},
		{
			"buffer":0,
			"byteLength":24564,
			"byteOffset":109728,
			"target":34963
		},
		{
			"buffer":0,
			"byteLength":28836,
			"byteOffset":134292,
			"target":34962
		},
		{
			"buffer":0,
			"byteLength":28836,
			"byteOffset":163128,
			"target":34962
		},
		{
			"buffer":0,
			"byteLength":19224,
			"byteOffset":191964,
			"target":34962
		},
		{
			"buffer":0,
			"byteLength":19224,
			"byteOffset":211188,
			"target":34962
		},
		{
			"buffer":0,
			"byteLength":19224,
			"byteOffset":230412,
			"target":34962
		},
		{
			"buffer":0,
			"byteLength":19224,
			"byteOffset":249636,
			"target":34962
		},
		{
			"buffer":0,
			"byteLength":38448,
			"byteOffset":268860,
			"target":34962
		},
		{
			"buffer":0,
			"byteLength":24258,
			"byteOffset":307308,
			"target":34963
		},
		{
			"buffer":0,
			"byteLength":34200,
			"byteOffset":331568,
			"target":34962
		},
		{
			"buffer":0,
			"byteLength":34200,
			"byteOffset":365768,
			"target":34962
		},
		{
			"buffer":0,
			"byteLength":22800,
			"byteOffset":399968,
			"target":34962
		},
		{
			"buffer":0,
			"byteLength":45600,
			"byteOffset":422768,
			"target":34962
		},
		{
			"buffer":0,
			"byteLength":32148,
			"byteOffset":468368,
			"target":34963
		},
		{
			"buffer":0,
			"byteLength":3564,
			"byteOffset":500516,
			"target":34962
		},
		{
			"buffer":0,
			"byteLength":3564,
			"byteOffset":504080,
			"target":34962
		},
		{
			"buffer":0,
			"byteLength":2376,
			"byteOffset":507644,
			"target":34962
		},
		{
			"buffer":0,
			"byteLength":2376,
			"byteOffset":510020,
			"target":34962
		},
		{
			"buffer":0,
			"byteLength":4752,
			"byteOffset":512396,
			"target":34962
		},
		{
			"buffer":0,
			"byteLength":3234,
			"byteOffset":517148,
			"target":34963
		},
		{
			"buffer":0,
			"byteLength":12264,
			"byteOffset":520384,
			"target":34962
		},
		{
			"buffer":0,
			"byteLength":12264,
			"byteOffset":532648,
			"target":34962
		},
		{
			"buffer":0,
			"byteLength":8176,
			"byteOffset":544912,
			"target":34962
		},
		{
			"buffer":0,
			"byteLength":8176,
			"byteOffset":553088,
			"target":34962
		},
		{
			"buffer":0,
			"byteLength":16352,
			"byteOffset":561264,
			"target":34962
		},
		{
			"buffer":0,
			"byteLength":9756,
			"byteOffset":577616,
			"target":34963
		},
		{
			"buffer":0,
			"byteLength":11676,
			"byteOffset":587372,
			"target":34962
		},
		{
			"buffer":0,
			"byteLength":11676,
			"byteOffset":599048,
			"target":34962
		},
		{
			"buffer":0,
			"byteLength":7784,
			"byteOffset":610724,
			"target":34962
		},
		{
			"buffer":0,
			"byteLength":7784,
			"byteOffset":618508,
			"target":34962
		},
		{
			"buffer":0,
			"byteLength":7784,
			"byteOffset":626292,
			"target":34962
		},
		{
			"buffer":0,
			"byteLength":7784,
			"byteOffset":634076,
			"target":34962
		},
		{
			"buffer":0,
			"byteLength":15568,
			"byteOffset":641860,
			"target":34962
		},
		{
			"buffer":0,
			"byteLength":9300,
			"byteOffset":657428,
			"target":34963
		},
		{
			"buffer":0,
			"byteLength":3144,
			"byteOffset":666728,
			"target":34962
		},
		{
			"buffer":0,
			"byteLength":3144,
			"byteOffset":669872,
			"target":34962
		},
		{
			"buffer":0,
			"byteLength":2096,
			"byteOffset":673016,
			"target":34962
		},
		{
			"buffer":0,
			"byteLength":2096,
			"byteOffset":675112,
			"target":34962
		},
		{
			"buffer":0,
			"byteLength":4192,
			"byteOffset":677208,
			"target":34962
		},
		{
			"buffer":0,
			"byteLength":2640,
			"byteOffset":681400,
			"target":34963
		},
		{
			"buffer":0,
			"byteLength":1824,
			"byteOffset":684040,
			"target":34962
		},
		{
			"buffer":0,
			"byteLength":1824,
			"byteOffset":685864,
			"target":34962
		},
		{
			"buffer":0,
			"byteLength":1216,
			"byteOffset":687688,
			"target":34962
		},
		{
			"buffer":0,
			"byteLength":2432,
			"byteOffset":688904,
			"target":34962
		},
		{
			"buffer":0,
			"byteLength":1236,
			"byteOffset":691336,
			"target":34963
		},
		{
			"buffer":0,
			"byteLength":1824,
			"byteOffset":692572,
			"target":34962
		},
		{
			"buffer":0,
			"byteLength":1824,
			"byteOffset":694396,
			"target":34962
		},
		{
			"buffer":0,
			"byteLength":1216,
			"byteOffset":696220,
			"target":34962
		},
		{
			"buffer":0,
			"byteLength":2432,
			"byteOffset":697436,
			"target":34962
		},
		{
			"buffer":0,
			"byteLength":1236,
			"byteOffset":699868,
			"target":34963
		},
		{
			"buffer":0,
			"byteLength":2868,
			"byteOffset":701104,
			"target":34962
		},
		{
			"buffer":0,
			"byteLength":2868,
			"byteOffset":703972,
			"target":34962
		},
		{
			"buffer":0,
			"byteLength":1912,
			"byteOffset":706840,
			"target":34962
		},
		{
			"buffer":0,
			"byteLength":3824,
			"byteOffset":708752,
			"target":34962
		},
		{
			"buffer":0,
			"byteLength":1428,
			"byteOffset":712576,
			"target":34963
		}
	],
	"samplers":[
		{
			"magFilter":9729,
			"minFilter":9987
		}
	],
	"buffers":[
		{
			"byteLength":714004,
			"uri":"ManDrinking.bin"
		}
	]
}
