{
	"asset":{
		"generator":"Khronos glTF Blender I/O v4.4.56",
		"version":"2.0"
	},
	"scene":0,
	"scenes":[
		{
			"name":"Scene",
			"nodes":[
				3,
				4
			]
		}
	],
	"nodes":[
		{
			"mesh":0,
			"name":"polySurface469_lambert5_0"
		},
		{
			"children":[
				0
			],
			"name":"polySurface469"
		},
		{
			"children":[
				1
			],
			"name":"RootNode"
		},
		{
			"children":[
				2
			],
			"name":"a703b3f5cafc40a09b8b0459327aa044.fbx"
		},
		{
			"mesh":1,
			"name":"Plane"
		}
	],
	"materials":[
		{
			"doubleSided":true,
			"name":"lambert5",
			"normalTexture":{
				"index":0,
				"scale":2
			},
			"pbrMetallicRoughness":{
				"baseColorTexture":{
					"index":1
				},
				"metallicFactor":0,
				"metallicRoughnessTexture":{
					"index":2
				}
			}
		},
		{
			"doubleSided":true,
			"name":"Material.001",
			"pbrMetallicRoughness":{
				"baseColorTexture":{
					"index":3
				},
				"metallicFactor":0
			}
		}
	],
	"meshes":[
		{
			"name":"polySurface469_lambert5_0",
			"primitives":[
				{
					"attributes":{
						"POSITION":0,
						"NORMAL":1,
						"TEXCOORD_0":2
					},
					"indices":3,
					"material":0
				}
			]
		},
		{
			"name":"Plane",
			"primitives":[
				{
					"attributes":{
						"POSITION":4,
						"NORMAL":5,
						"TEXCOORD_0":6
					},
					"indices":7,
					"material":1
				}
			]
		}
	],
	"textures":[
		{
			"sampler":0,
			"source":0
		},
		{
			"sampler":0,
			"source":1
		},
		{
			"sampler":0,
			"source":2
		},
		{
			"sampler":0,
			"source":3
		}
	],
	"images":[
		{
			"mimeType":"image/png",
			"name":"595986255e2448fb8c17425947a95145_N_T_Dbarnes_Piano_N",
			"uri":"595986255e2448fb8c17425947a95145_N_T_Dbarnes_Piano_N.png"
		},
		{
			"mimeType":"image/png",
			"name":"94b5a4f8edb643828e8a721408e33989_RGB_T_Dbarnes_Piano_BC",
			"uri":"94b5a4f8edb643828e8a721408e33989_RGB_T_Dbarnes_Piano_BC.png"
		},
		{
			"mimeType":"image/png",
			"name":"afd46a6cf4da43bea5d1712b3ec8c76b_R_T_Dbarnes_Piano_R",
			"uri":"afd46a6cf4da43bea5d1712b3ec8c76b_R_T_Dbarnes_Piano_R.png"
		},
		{
			"mimeType":"image/jpeg",
			"name":"164",
			"uri":"164.jpg"
		}
	],
	"accessors":[
		{
			"bufferView":0,
			"componentType":5126,
			"count":34404,
			"max":[
				9.0459566116333,
				12.695472717285156,
				4.944950103759766
			],
			"min":[
				-8.262508392333984,
				-6.811884531998658e-07,
				-6.099766731262207
			],
			"type":"VEC3"
		},
		{
			"bufferView":1,
			"componentType":5126,
			"count":34404,
			"type":"VEC3"
		},
		{
			"bufferView":2,
			"componentType":5126,
			"count":34404,
			"type":"VEC2"
		},
		{
			"bufferView":3,
			"componentType":5123,
			"count":74772,
			"type":"SCALAR"
		},
		{
			"bufferView":4,
			"componentType":5126,
			"count":4,
			"max":[
				27.45952796936035,
				0,
				27.45952796936035
			],
			"min":[
				-27.45952796936035,
				0,
				-27.45952796936035
			],
			"type":"VEC3"
		},
		{
			"bufferView":5,
			"componentType":5126,
			"count":4,
			"type":"VEC3"
		},
		{
			"bufferView":6,
			"componentType":5126,
			"count":4,
			"type":"VEC2"
		},
		{
			"bufferView":7,
			"componentType":5123,
			"count":6,
			"type":"SCALAR"
		}
	],
	"bufferViews":[
		{
			"buffer":0,
			"byteLength":412848,
			"byteOffset":0,
			"target":34962
		},
		{
			"buffer":0,
			"byteLength":412848,
			"byteOffset":412848,
			"target":34962
		},
		{
			"buffer":0,
			"byteLength":275232,
			"byteOffset":825696,
			"target":34962
		},
		{
			"buffer":0,
			"byteLength":149544,
			"byteOffset":1100928,
			"target":34963
		},
		{
			"buffer":0,
			"byteLength":48,
			"byteOffset":1250472,
			"target":34962
		},
		{
			"buffer":0,
			"byteLength":48,
			"byteOffset":1250520,
			"target":34962
		},
		{
			"buffer":0,
			"byteLength":32,
			"byteOffset":1250568,
			"target":34962
		},
		{
			"buffer":0,
			"byteLength":12,
			"byteOffset":1250600,
			"target":34963
		}
	],
	"samplers":[
		{
			"magFilter":9729,
			"minFilter":9987
		}
	],
	"buffers":[
		{
			"byteLength":1250612,
			"uri":"piano.bin"
		}
	]
}
