{
	"asset":{
		"generator":"Khronos glTF Blender I/O v5.0.21",
		"version":"2.0"
	},
	"scene":0,
	"scenes":[
		{
			"name":"Scene",
			"nodes":[
				4
			]
		}
	],
	"nodes":[
		{
			"mesh":0,
			"name":"Object_4"
		},
		{
			"children":[
				0
			],
			"name":"Hi Res Cattail.001_0"
		},
		{
			"children":[
				1
			],
			"name":"GLTF_SceneRootNode"
		},
		{
			"children":[
				2
			],
			"name":"root"
		},
		{
			"children":[
				3
			],
			"name":"Sketchfab_model"
		}
	],
	"materials":[
		{
			"doubleSided":true,
			"name":"testbed",
			"pbrMetallicRoughness":{
				"baseColorTexture":{
					"index":0
				},
				"metallicFactor":0,
				"roughnessFactor":0.7333329916000366
			}
		}
	],
	"meshes":[
		{
			"name":"Object_0",
			"primitives":[
				{
					"attributes":{
						"POSITION":0,
						"NORMAL":1,
						"TEXCOORD_0":2,
						"TANGENT":3
					},
					"indices":4,
					"material":0
				}
			]
		}
	],
	"textures":[
		{
			"sampler":0,
			"source":0
		}
	],
	"images":[
		{
			"mimeType":"image/png",
			"name":"testbed_baseColor",
			"uri":"testbed_baseColor.png"
		}
	],
	"accessors":[
		{
			"bufferView":0,
			"componentType":5126,
			"count":2766,
			"max":[
				1.522328495979309,
				8.012803077697754,
				1.8175983428955078
			],
			"min":[
				-1.692766785621643,
				-0.4647078812122345,
				-1.8328113555908203
			],
			"type":"VEC3"
		},
		{
			"bufferView":1,
			"componentType":5126,
			"count":2766,
			"type":"VEC3"
		},
		{
			"bufferView":2,
			"componentType":5126,
			"count":2766,
			"type":"VEC2"
		},
		{
			"bufferView":3,
			"componentType":5126,
			"count":2766,
			"type":"VEC4"
		},
		{
			"bufferView":4,
			"componentType":5123,
			"count":7362,
			"type":"SCALAR"
		}
	],
	"bufferViews":[
		{
			"buffer":0,
			"byteLength":33192,
			"byteOffset":0,
			"target":34962
		},
		{
			"buffer":0,
			"byteLength":33192,
			"byteOffset":33192,
			"target":34962
		},
		{
			"buffer":0,
			"byteLength":22128,
			"byteOffset":66384,
			"target":34962
		},
		{
			"buffer":0,
			"byteLength":44256,
			"byteOffset":88512,
			"target":34962
		},
		{
			"buffer":0,
			"byteLength":14724,
			"byteOffset":132768,
			"target":34963
		}
	],
	"samplers":[
		{
			"magFilter":9729,
			"minFilter":9987
		}
	],
	"buffers":[
		{
			"byteLength":147492,
			"uri":"scene.bin"
		}
	]
}
