{
	"asset":{
		"generator":"Khronos glTF Blender I/O v5.0.21",
		"version":"2.0"
	},
	"scene":0,
	"scenes":[
		{
			"name":"Scene",
			"nodes":[
				0
			]
		}
	],
	"nodes":[
		{
			"mesh":0,
			"name":"Text"
		}
	],
	"materials":[
		{
			"doubleSided":true,
			"name":"Material.001",
			"pbrMetallicRoughness":{
				"baseColorTexture":{
					"index":0
				},
				"metallicFactor":0,
				"roughnessFactor":0.5
			}
		}
	],
	"meshes":[
		{
			"name":"Text",
			"primitives":[
				{
					"attributes":{
						"POSITION":0,
						"NORMAL":1,
						"TEXCOORD_0":2
					},
					"indices":3,
					"material":0
				}
			]
		}
	],
	"textures":[
		{
			"sampler":0,
			"source":0
		}
	],
	"images":[
		{
			"mimeType":"image/png",
			"name":"Screenshot 2026-01-03 040058",
			"uri":"Texture/Screenshot%202026-01-03%20040058.png"
		}
	],
	"accessors":[
		{
			"bufferView":0,
			"componentType":5126,
			"count":3222,
			"max":[
				0.8552867770195007,
				0.029999999329447746,
				0.031362008303403854
			],
			"min":[
				-0.8313732147216797,
				-0.029999999329447746,
				-0.4534050226211548
			],
			"type":"VEC3"
		},
		{
			"bufferView":1,
			"componentType":5126,
			"count":3222,
			"type":"VEC3"
		},
		{
			"bufferView":2,
			"componentType":5126,
			"count":3222,
			"type":"VEC2"
		},
		{
			"bufferView":3,
			"componentType":5123,
			"count":9444,
			"type":"SCALAR"
		}
	],
	"bufferViews":[
		{
			"buffer":0,
			"byteLength":38664,
			"byteOffset":0,
			"target":34962
		},
		{
			"buffer":0,
			"byteLength":38664,
			"byteOffset":38664,
			"target":34962
		},
		{
			"buffer":0,
			"byteLength":25776,
			"byteOffset":77328,
			"target":34962
		},
		{
			"buffer":0,
			"byteLength":18888,
			"byteOffset":103104,
			"target":34963
		}
	],
	"samplers":[
		{
			"magFilter":9729,
			"minFilter":9987
		}
	],
	"buffers":[
		{
			"byteLength":121992,
			"uri":"pName.bin"
		}
	]
}
