{
	"asset":{
		"generator":"Khronos glTF Blender I/O v4.4.56",
		"version":"2.0"
	},
	"extensionsUsed":[
		"KHR_materials_specular"
	],
	"scene":0,
	"scenes":[
		{
			"name":"Scene",
			"nodes":[
				0,
				1,
				2,
				3,
				4,
				5,
				6
			]
		}
	],
	"nodes":[
		{
			"mesh":0,
			"name":"Object_7.001"
		},
		{
			"mesh":1,
			"name":"Object_15.001"
		},
		{
			"mesh":2,
			"name":"Object_9.006"
		},
		{
			"mesh":3,
			"name":"Object_16"
		},
		{
			"mesh":4,
			"name":"Object_10"
		},
		{
			"mesh":5,
			"name":"Object_12"
		},
		{
			"mesh":6,
			"name":"Object_8"
		}
	],
	"materials":[
		{
			"doubleSided":true,
			"extensions":{
				"KHR_materials_specular":{
					"specularFactor":0.2118101716041565
				}
			},
			"name":"AvatarBody",
			"normalTexture":{
				"index":0
			},
			"pbrMetallicRoughness":{
				"baseColorTexture":{
					"index":1
				},
				"metallicFactor":0,
				"roughnessFactor":0.6601894497871399
			}
		},
		{
			"doubleSided":true,
			"name":"outfit.001",
			"pbrMetallicRoughness":{
				"baseColorTexture":{
					"index":2
				},
				"metallicFactor":0.6872727274894714,
				"roughnessFactor":0.800000011920929
			}
		},
		{
			"doubleSided":true,
			"extensions":{
				"KHR_materials_specular":{
					"specularFactor":0.010666699148714542
				}
			},
			"name":"AvatarHead",
			"normalTexture":{
				"index":3
			},
			"pbrMetallicRoughness":{
				"baseColorTexture":{
					"index":4
				},
				"metallicFactor":0,
				"roughnessFactor":0.6784752011299133
			}
		},
		{
			"alphaMode":"BLEND",
			"doubleSided":true,
			"extensions":{
				"KHR_materials_specular":{
					"specularFactor":0.0960002914071083
				}
			},
			"name":"haircut",
			"normalTexture":{
				"index":5
			},
			"pbrMetallicRoughness":{
				"baseColorTexture":{
					"index":6
				},
				"metallicFactor":0,
				"roughnessFactor":0.367617130279541
			}
		},
		{
			"doubleSided":true,
			"name":"AvatarLeftCornea",
			"pbrMetallicRoughness":{
				"baseColorTexture":{
					"index":7
				},
				"metallicFactor":0
			}
		},
		{
			"doubleSided":true,
			"name":"AvatarRightCornea",
			"pbrMetallicRoughness":{
				"baseColorTexture":{
					"index":8
				},
				"metallicFactor":0
			}
		},
		{
			"doubleSided":true,
			"name":"AvatarEyelashes",
			"pbrMetallicRoughness":{
				"baseColorFactor":[
					0,
					0,
					0,
					1
				],
				"metallicFactor":0
			}
		}
	],
	"meshes":[
		{
			"name":"AvatarBody_AvatarBody_0",
			"primitives":[
				{
					"attributes":{
						"POSITION":0,
						"NORMAL":1,
						"TEXCOORD_0":2,
						"TEXCOORD_1":3,
						"TANGENT":4
					},
					"indices":5,
					"material":0
				}
			]
		},
		{
			"name":"outfit_outfit_0.001",
			"primitives":[
				{
					"attributes":{
						"POSITION":6,
						"NORMAL":7,
						"TEXCOORD_0":8,
						"TEXCOORD_1":9,
						"TANGENT":10
					},
					"indices":11,
					"material":1
				}
			]
		},
		{
			"name":"1",
			"primitives":[
				{
					"attributes":{
						"POSITION":12,
						"NORMAL":13,
						"TEXCOORD_0":14,
						"TEXCOORD_1":15,
						"TANGENT":16
					},
					"indices":17,
					"material":2
				}
			]
		},
		{
			"name":"haircut_haircut_0",
			"primitives":[
				{
					"attributes":{
						"POSITION":18,
						"NORMAL":19,
						"TEXCOORD_0":20,
						"TEXCOORD_1":21,
						"TANGENT":22
					},
					"indices":23,
					"material":3
				}
			]
		},
		{
			"name":"AvatarLeftCornea_AvatarLeftCornea_0",
			"primitives":[
				{
					"attributes":{
						"POSITION":24,
						"NORMAL":25,
						"TEXCOORD_0":26,
						"TANGENT":27
					},
					"indices":28,
					"material":4
				}
			]
		},
		{
			"name":"AvatarRightCornea_AvatarRightCornea_0",
			"primitives":[
				{
					"attributes":{
						"POSITION":29,
						"NORMAL":30,
						"TEXCOORD_0":31,
						"TANGENT":32
					},
					"indices":33,
					"material":5
				}
			]
		},
		{
			"name":"0",
			"primitives":[
				{
					"attributes":{
						"POSITION":34,
						"NORMAL":35,
						"TEXCOORD_0":36,
						"TANGENT":37
					},
					"indices":38,
					"material":6
				}
			]
		}
	],
	"textures":[
		{
			"sampler":0,
			"source":0
		},
		{
			"sampler":0,
			"source":1
		},
		{
			"sampler":0,
			"source":2
		},
		{
			"sampler":0,
			"source":3
		},
		{
			"sampler":0,
			"source":4
		},
		{
			"sampler":0,
			"source":5
		},
		{
			"sampler":0,
			"source":6
		},
		{
			"sampler":0,
			"source":7
		},
		{
			"sampler":0,
			"source":8
		}
	],
	"images":[
		{
			"mimeType":"image/png",
			"name":"AvatarBody_normal",
			"uri":"textures/AvatarBody_normal.png"
		},
		{
			"mimeType":"image/jpeg",
			"name":"AvatarBody_baseColor",
			"uri":"textures/AvatarBody_baseColor.jpg"
		},
		{
			"mimeType":"image/jpeg",
			"name":"Untitled design (1)",
			"uri":"textures/Untitled%20design%201.jpg"
		},
		{
			"mimeType":"image/png",
			"name":"AvatarHead_normal",
			"uri":"textures/AvatarHead_normal.png"
		},
		{
			"mimeType":"image/png",
			"name":"AvatarHead_baseColor",
			"uri":"textures/AvatarHead_baseColor.png"
		},
		{
			"mimeType":"image/png",
			"name":"haircut_normal",
			"uri":"textures/haircut_normal.png"
		},
		{
			"mimeType":"image/png",
			"name":"haircut_baseColor",
			"uri":"textures/haircut_baseColor.png"
		},
		{
			"mimeType":"image/jpeg",
			"name":"AvatarLeftCornea_baseColor",
			"uri":"textures/AvatarLeftCornea_baseColor.jpg"
		},
		{
			"mimeType":"image/jpeg",
			"name":"AvatarRightCornea_baseColor",
			"uri":"textures/AvatarRightCornea_baseColor.jpg"
		}
	],
	"accessors":[
		{
			"bufferView":0,
			"componentType":5126,
			"count":3279,
			"max":[
				-120.78936004638672,
				27.580095291137695,
				15.87009048461914
			],
			"min":[
				-125.16736602783203,
				20.111000061035156,
				8.52348804473877
			],
			"type":"VEC3"
		},
		{
			"bufferView":1,
			"componentType":5126,
			"count":3279,
			"type":"VEC3"
		},
		{
			"bufferView":2,
			"componentType":5126,
			"count":3279,
			"type":"VEC2"
		},
		{
			"bufferView":3,
			"componentType":5126,
			"count":3279,
			"type":"VEC2"
		},
		{
			"bufferView":4,
			"componentType":5126,
			"count":3279,
			"type":"VEC4"
		},
		{
			"bufferView":5,
			"componentType":5123,
			"count":16674,
			"type":"SCALAR"
		},
		{
			"bufferView":6,
			"componentType":5126,
			"count":19032,
			"max":[
				-120.26676177978516,
				26.8743953704834,
				13.197599411010742
			],
			"min":[
				-124.41070556640625,
				12.758526802062988,
				8.615825653076172
			],
			"type":"VEC3"
		},
		{
			"bufferView":7,
			"componentType":5126,
			"count":19032,
			"type":"VEC3"
		},
		{
			"bufferView":8,
			"componentType":5126,
			"count":19032,
			"type":"VEC2"
		},
		{
			"bufferView":9,
			"componentType":5126,
			"count":19032,
			"type":"VEC2"
		},
		{
			"bufferView":10,
			"componentType":5126,
			"count":19032,
			"type":"VEC4"
		},
		{
			"bufferView":11,
			"componentType":5123,
			"count":109890,
			"type":"SCALAR"
		},
		{
			"bufferView":12,
			"componentType":5126,
			"count":7445,
			"max":[
				-121.3942642211914,
				29.266124725341797,
				11.7433500289917
			],
			"min":[
				-123.8130111694336,
				25.91568946838379,
				9.6470308303833
			],
			"type":"VEC3"
		},
		{
			"bufferView":13,
			"componentType":5126,
			"count":7445,
			"type":"VEC3"
		},
		{
			"bufferView":14,
			"componentType":5126,
			"count":7445,
			"type":"VEC2"
		},
		{
			"bufferView":15,
			"componentType":5126,
			"count":7445,
			"type":"VEC2"
		},
		{
			"bufferView":16,
			"componentType":5126,
			"count":7445,
			"type":"VEC4"
		},
		{
			"bufferView":17,
			"componentType":5123,
			"count":43212,
			"type":"SCALAR"
		},
		{
			"bufferView":18,
			"componentType":5126,
			"count":48815,
			"max":[
				-121.18989562988281,
				29.38997459411621,
				12.056684494018555
			],
			"min":[
				-123.77368927001953,
				25.922130584716797,
				9.484989166259766
			],
			"type":"VEC3"
		},
		{
			"bufferView":19,
			"componentType":5126,
			"count":48815,
			"type":"VEC3"
		},
		{
			"bufferView":20,
			"componentType":5126,
			"count":48815,
			"type":"VEC2"
		},
		{
			"bufferView":21,
			"componentType":5126,
			"count":48815,
			"type":"VEC2"
		},
		{
			"bufferView":22,
			"componentType":5126,
			"count":48815,
			"type":"VEC4"
		},
		{
			"bufferView":23,
			"componentType":5123,
			"count":137229,
			"type":"SCALAR"
		},
		{
			"bufferView":24,
			"componentType":5126,
			"count":457,
			"max":[
				-123.20482635498047,
				28.30501937866211,
				11.424327850341797
			],
			"min":[
				-123.44602966308594,
				28.079387664794922,
				11.20011043548584
			],
			"type":"VEC3"
		},
		{
			"bufferView":25,
			"componentType":5126,
			"count":457,
			"type":"VEC3"
		},
		{
			"bufferView":26,
			"componentType":5126,
			"count":457,
			"type":"VEC2"
		},
		{
			"bufferView":27,
			"componentType":5126,
			"count":457,
			"type":"VEC4"
		},
		{
			"bufferView":28,
			"componentType":5123,
			"count":2490,
			"type":"SCALAR"
		},
		{
			"bufferView":29,
			"componentType":5126,
			"count":457,
			"max":[
				-123.32630157470703,
				28.315349578857422,
				10.841644287109375
			],
			"min":[
				-123.5677719116211,
				28.089717864990234,
				10.61817455291748
			],
			"type":"VEC3"
		},
		{
			"bufferView":30,
			"componentType":5126,
			"count":457,
			"type":"VEC3"
		},
		{
			"bufferView":31,
			"componentType":5126,
			"count":457,
			"type":"VEC2"
		},
		{
			"bufferView":32,
			"componentType":5126,
			"count":457,
			"type":"VEC4"
		},
		{
			"bufferView":33,
			"componentType":5123,
			"count":2490,
			"type":"SCALAR"
		},
		{
			"bufferView":34,
			"componentType":5126,
			"count":6300,
			"max":[
				-123.33618927001953,
				28.269390106201172,
				11.46786117553711
			],
			"min":[
				-123.64127349853516,
				28.107898712158203,
				10.607772827148438
			],
			"type":"VEC3"
		},
		{
			"bufferView":35,
			"componentType":5126,
			"count":6300,
			"type":"VEC3"
		},
		{
			"bufferView":36,
			"componentType":5126,
			"count":6300,
			"type":"VEC2"
		},
		{
			"bufferView":37,
			"componentType":5126,
			"count":6300,
			"type":"VEC4"
		},
		{
			"bufferView":38,
			"componentType":5123,
			"count":14700,
			"type":"SCALAR"
		}
	],
	"bufferViews":[
		{
			"buffer":0,
			"byteLength":39348,
			"byteOffset":0,
			"target":34962
		},
		{
			"buffer":0,
			"byteLength":39348,
			"byteOffset":39348,
			"target":34962
		},
		{
			"buffer":0,
			"byteLength":26232,
			"byteOffset":78696,
			"target":34962
		},
		{
			"buffer":0,
			"byteLength":26232,
			"byteOffset":104928,
			"target":34962
		},
		{
			"buffer":0,
			"byteLength":52464,
			"byteOffset":131160,
			"target":34962
		},
		{
			"buffer":0,
			"byteLength":33348,
			"byteOffset":183624,
			"target":34963
		},
		{
			"buffer":0,
			"byteLength":228384,
			"byteOffset":216972,
			"target":34962
		},
		{
			"buffer":0,
			"byteLength":228384,
			"byteOffset":445356,
			"target":34962
		},
		{
			"buffer":0,
			"byteLength":152256,
			"byteOffset":673740,
			"target":34962
		},
		{
			"buffer":0,
			"byteLength":152256,
			"byteOffset":825996,
			"target":34962
		},
		{
			"buffer":0,
			"byteLength":304512,
			"byteOffset":978252,
			"target":34962
		},
		{
			"buffer":0,
			"byteLength":219780,
			"byteOffset":1282764,
			"target":34963
		},
		{
			"buffer":0,
			"byteLength":89340,
			"byteOffset":1502544,
			"target":34962
		},
		{
			"buffer":0,
			"byteLength":89340,
			"byteOffset":1591884,
			"target":34962
		},
		{
			"buffer":0,
			"byteLength":59560,
			"byteOffset":1681224,
			"target":34962
		},
		{
			"buffer":0,
			"byteLength":59560,
			"byteOffset":1740784,
			"target":34962
		},
		{
			"buffer":0,
			"byteLength":119120,
			"byteOffset":1800344,
			"target":34962
		},
		{
			"buffer":0,
			"byteLength":86424,
			"byteOffset":1919464,
			"target":34963
		},
		{
			"buffer":0,
			"byteLength":585780,
			"byteOffset":2005888,
			"target":34962
		},
		{
			"buffer":0,
			"byteLength":585780,
			"byteOffset":2591668,
			"target":34962
		},
		{
			"buffer":0,
			"byteLength":390520,
			"byteOffset":3177448,
			"target":34962
		},
		{
			"buffer":0,
			"byteLength":390520,
			"byteOffset":3567968,
			"target":34962
		},
		{
			"buffer":0,
			"byteLength":781040,
			"byteOffset":3958488,
			"target":34962
		},
		{
			"buffer":0,
			"byteLength":274458,
			"byteOffset":4739528,
			"target":34963
		},
		{
			"buffer":0,
			"byteLength":5484,
			"byteOffset":5013988,
			"target":34962
		},
		{
			"buffer":0,
			"byteLength":5484,
			"byteOffset":5019472,
			"target":34962
		},
		{
			"buffer":0,
			"byteLength":3656,
			"byteOffset":5024956,
			"target":34962
		},
		{
			"buffer":0,
			"byteLength":7312,
			"byteOffset":5028612,
			"target":34962
		},
		{
			"buffer":0,
			"byteLength":4980,
			"byteOffset":5035924,
			"target":34963
		},
		{
			"buffer":0,
			"byteLength":5484,
			"byteOffset":5040904,
			"target":34962
		},
		{
			"buffer":0,
			"byteLength":5484,
			"byteOffset":5046388,
			"target":34962
		},
		{
			"buffer":0,
			"byteLength":3656,
			"byteOffset":5051872,
			"target":34962
		},
		{
			"buffer":0,
			"byteLength":7312,
			"byteOffset":5055528,
			"target":34962
		},
		{
			"buffer":0,
			"byteLength":4980,
			"byteOffset":5062840,
			"target":34963
		},
		{
			"buffer":0,
			"byteLength":75600,
			"byteOffset":5067820,
			"target":34962
		},
		{
			"buffer":0,
			"byteLength":75600,
			"byteOffset":5143420,
			"target":34962
		},
		{
			"buffer":0,
			"byteLength":50400,
			"byteOffset":5219020,
			"target":34962
		},
		{
			"buffer":0,
			"byteLength":100800,
			"byteOffset":5269420,
			"target":34962
		},
		{
			"buffer":0,
			"byteLength":29400,
			"byteOffset":5370220,
			"target":34963
		}
	],
	"samplers":[
		{
			"magFilter":9729,
			"minFilter":9987
		}
	],
	"buffers":[
		{
			"byteLength":5399620,
			"uri":"DrinkingScene_Women.bin"
		}
	]
}
