{
	"asset":{
		"generator":"Khronos glTF Blender I/O v4.4.56",
		"version":"2.0"
	},
	"scene":0,
	"scenes":[
		{
			"name":"Scene",
			"nodes":[
				0,
				1,
				2,
				3,
				4,
				5,
				6,
				7,
				8
			]
		}
	],
	"nodes":[
		{
			"mesh":0,
			"name":"Object_11"
		},
		{
			"mesh":1,
			"name":"Object_15"
		},
		{
			"mesh":2,
			"name":"Object_17"
		},
		{
			"mesh":3,
			"name":"Object_19"
		},
		{
			"mesh":4,
			"name":"Object_21"
		},
		{
			"mesh":5,
			"name":"Object_23"
		},
		{
			"mesh":6,
			"name":"Object_7"
		},
		{
			"mesh":7,
			"name":"Object_9"
		},
		{
			"mesh":8,
			"name":"Tshirt_Fabric_0"
		}
	],
	"materials":[
		{
			"name":"Wolf3D_Skin.001",
			"pbrMetallicRoughness":{
				"baseColorTexture":{
					"index":0
				},
				"metallicFactor":0,
				"roughnessFactor":0.699999988079071
			}
		},
		{
			"name":"Wolf3D_Hair.001",
			"normalTexture":{
				"index":1
			},
			"pbrMetallicRoughness":{
				"baseColorTexture":{
					"index":2
				},
				"metallicFactor":0,
				"roughnessFactor":0.7272729873657227
			}
		},
		{
			"name":"Wolf3D_Beard.001",
			"normalTexture":{
				"index":3
			},
			"pbrMetallicRoughness":{
				"baseColorTexture":{
					"index":4
				},
				"metallicFactor":0,
				"roughnessFactor":0.699999988079071
			}
		},
		{
			"name":"Wolf3D_Body.001",
			"normalTexture":{
				"index":5
			},
			"pbrMetallicRoughness":{
				"baseColorTexture":{
					"index":6
				},
				"metallicFactor":0,
				"roughnessFactor":0.5527859926223755
			}
		},
		{
			"name":"Wolf3D_Outfit_Bottom.001",
			"normalTexture":{
				"index":7
			},
			"pbrMetallicRoughness":{
				"baseColorTexture":{
					"index":8
				},
				"metallicFactor":0,
				"roughnessFactor":0.5
			}
		},
		{
			"name":"Wolf3D_Outfit_Footwear.001",
			"normalTexture":{
				"index":9
			},
			"pbrMetallicRoughness":{
				"baseColorTexture":{
					"index":10
				},
				"metallicFactor":0,
				"roughnessFactor":0.5
			}
		},
		{
			"name":"Wolf3D_Eye.001",
			"pbrMetallicRoughness":{
				"baseColorTexture":{
					"index":11
				},
				"metallicFactor":0
			}
		},
		{
			"name":"Fabric.001",
			"normalTexture":{
				"index":12,
				"scale":2
			},
			"pbrMetallicRoughness":{
				"baseColorTexture":{
					"index":13
				},
				"metallicFactor":0,
				"roughnessFactor":0.5
			}
		}
	],
	"meshes":[
		{
			"name":"mesh_2.001",
			"primitives":[
				{
					"attributes":{
						"POSITION":0,
						"NORMAL":1,
						"TEXCOORD_0":2
					},
					"indices":3,
					"material":0
				}
			]
		},
		{
			"name":"Object_4.001",
			"primitives":[
				{
					"attributes":{
						"POSITION":4,
						"NORMAL":5,
						"TEXCOORD_0":6,
						"TEXCOORD_1":7
					},
					"indices":8,
					"material":1
				}
			]
		},
		{
			"name":"mesh_5.001",
			"primitives":[
				{
					"attributes":{
						"POSITION":9,
						"NORMAL":10,
						"TEXCOORD_0":11,
						"TEXCOORD_1":12
					},
					"indices":13,
					"material":2
				}
			]
		},
		{
			"name":"Object_6.001",
			"primitives":[
				{
					"attributes":{
						"POSITION":14,
						"NORMAL":15,
						"TEXCOORD_0":16,
						"TEXCOORD_1":17
					},
					"indices":18,
					"material":3
				}
			]
		},
		{
			"name":"Object_7.001",
			"primitives":[
				{
					"attributes":{
						"POSITION":19,
						"NORMAL":20,
						"TEXCOORD_0":21,
						"TEXCOORD_1":22,
						"TEXCOORD_2":23,
						"TEXCOORD_3":24
					},
					"indices":25,
					"material":4
				}
			]
		},
		{
			"name":"Object_8.001",
			"primitives":[
				{
					"attributes":{
						"POSITION":26,
						"NORMAL":27,
						"TEXCOORD_0":28,
						"TEXCOORD_1":29,
						"TEXCOORD_2":30,
						"TEXCOORD_3":31
					},
					"indices":32,
					"material":5
				}
			]
		},
		{
			"name":"mesh_0.001",
			"primitives":[
				{
					"attributes":{
						"POSITION":33,
						"NORMAL":34,
						"TEXCOORD_0":35
					},
					"indices":36,
					"material":6
				}
			]
		},
		{
			"name":"mesh_1.001",
			"primitives":[
				{
					"attributes":{
						"POSITION":37,
						"NORMAL":38,
						"TEXCOORD_0":39
					},
					"indices":40,
					"material":6
				}
			]
		},
		{
			"name":"Tshirt_Fabric_0.001",
			"primitives":[
				{
					"attributes":{
						"POSITION":41,
						"NORMAL":42,
						"TEXCOORD_0":43
					},
					"indices":44,
					"material":7
				}
			]
		}
	],
	"textures":[
		{
			"sampler":0,
			"source":0
		},
		{
			"sampler":0,
			"source":1
		},
		{
			"sampler":0,
			"source":2
		},
		{
			"sampler":0,
			"source":3
		},
		{
			"sampler":0,
			"source":2
		},
		{
			"sampler":0,
			"source":4
		},
		{
			"sampler":0,
			"source":5
		},
		{
			"sampler":0,
			"source":6
		},
		{
			"sampler":0,
			"source":7
		},
		{
			"sampler":0,
			"source":8
		},
		{
			"sampler":0,
			"source":9
		},
		{
			"sampler":0,
			"source":10
		},
		{
			"sampler":0,
			"source":11
		},
		{
			"sampler":0,
			"source":12
		}
	],
	"images":[
		{
			"mimeType":"image/jpeg",
			"name":"Wolf3D_Skin_baseColor",
			"uri":"textures/Wolf3D_Skin_baseColor.jpg"
		},
		{
			"mimeType":"image/jpeg",
			"name":"Wolf3D_Hair_normal",
			"uri":"textures/Wolf3D_Hair_normal.jpg"
		},
		{
			"mimeType":"image/png",
			"name":"Screenshot 2025-12-21 121138",
			"uri":"textures/Screenshot%202025-12-21%20121138.png"
		},
		{
			"mimeType":"image/jpeg",
			"name":"Wolf3D_Beard_normal",
			"uri":"textures/Wolf3D_Beard_normal.jpg"
		},
		{
			"mimeType":"image/jpeg",
			"name":"Wolf3D_Body_normal",
			"uri":"textures/Wolf3D_Body_normal.jpg"
		},
		{
			"mimeType":"image/jpeg",
			"name":"Wolf3D_Body_baseColor",
			"uri":"textures/Wolf3D_Body_baseColor.jpg"
		},
		{
			"mimeType":"image/jpeg",
			"name":"Wolf3D_Outfit_Bottom_normal",
			"uri":"textures/Wolf3D_Outfit_Bottom_normal.jpg"
		},
		{
			"mimeType":"image/png",
			"name":"Screenshot 2025-12-24 225745",
			"uri":"textures/Screenshot%202025-12-24%20225745.png"
		},
		{
			"mimeType":"image/jpeg",
			"name":"Wolf3D_Outfit_Footwear_normal",
			"uri":"textures/Wolf3D_Outfit_Footwear_normal.jpg"
		},
		{
			"mimeType":"image/jpeg",
			"name":"Wolf3D_Outfit_Footwear_baseColor",
			"uri":"textures/Wolf3D_Outfit_Footwear_baseColor.jpg"
		},
		{
			"mimeType":"image/jpeg",
			"name":"Wolf3D_Eye_baseColor",
			"uri":"textures/Wolf3D_Eye_baseColor.jpg"
		},
		{
			"mimeType":"image/jpeg",
			"name":"d29fceea60cb463688104b44dfa7920a_N_Normals_Mens_Undershirt",
			"uri":"textures/d29fceea60cb463688104b44dfa7920a_N_Normals_Mens_Undershirt.jpg"
		},
		{
			"mimeType":"image/png",
			"name":"Screenshot 2025-12-20 214533-Screenshot 2025-12-21 121138_png",
			"uri":"textures/Screenshot%202025-12-20%20214533-Screenshot%202025-12-21%20121138_png.png"
		}
	],
	"accessors":[
		{
			"bufferView":0,
			"componentType":5126,
			"count":2286,
			"max":[
				1.2228707075119019,
				7.626540184020996,
				1.0570584535598755
			],
			"min":[
				-1.9046493768692017,
				5.1183695793151855,
				-1.2735239267349243
			],
			"type":"VEC3"
		},
		{
			"bufferView":1,
			"componentType":5126,
			"count":2286,
			"type":"VEC3"
		},
		{
			"bufferView":2,
			"componentType":5126,
			"count":2286,
			"type":"VEC2"
		},
		{
			"bufferView":3,
			"componentType":5123,
			"count":12282,
			"type":"SCALAR"
		},
		{
			"bufferView":4,
			"componentType":5126,
			"count":297,
			"max":[
				0.11454932391643524,
				7.87009334564209,
				1.1383551359176636
			],
			"min":[
				-2.162736415863037,
				6.250948905944824,
				-0.5417452454566956
			],
			"type":"VEC3"
		},
		{
			"bufferView":5,
			"componentType":5126,
			"count":297,
			"type":"VEC3"
		},
		{
			"bufferView":6,
			"componentType":5126,
			"count":297,
			"type":"VEC2"
		},
		{
			"bufferView":7,
			"componentType":5126,
			"count":297,
			"type":"VEC2"
		},
		{
			"bufferView":8,
			"componentType":5123,
			"count":1617,
			"type":"SCALAR"
		},
		{
			"bufferView":9,
			"componentType":5126,
			"count":262,
			"max":[
				-0.3845319151878357,
				6.757954120635986,
				0.9389525055885315
			],
			"min":[
				-1.2824786901474,
				5.040139675140381,
				-0.6384395956993103
			],
			"type":"VEC3"
		},
		{
			"bufferView":10,
			"componentType":5126,
			"count":262,
			"type":"VEC3"
		},
		{
			"bufferView":11,
			"componentType":5126,
			"count":262,
			"type":"VEC2"
		},
		{
			"bufferView":12,
			"componentType":5126,
			"count":262,
			"type":"VEC2"
		},
		{
			"bufferView":13,
			"componentType":5123,
			"count":1320,
			"type":"SCALAR"
		},
		{
			"bufferView":14,
			"componentType":5126,
			"count":1022,
			"max":[
				-0.2866433560848236,
				2.9869191646575928,
				3.40624737739563
			],
			"min":[
				-4.124989986419678,
				0.49024295806884766,
				-3.231268882751465
			],
			"type":"VEC3"
		},
		{
			"bufferView":15,
			"componentType":5126,
			"count":1022,
			"type":"VEC3"
		},
		{
			"bufferView":16,
			"componentType":5126,
			"count":1022,
			"type":"VEC2"
		},
		{
			"bufferView":17,
			"componentType":5126,
			"count":1022,
			"type":"VEC2"
		},
		{
			"bufferView":18,
			"componentType":5123,
			"count":4878,
			"type":"SCALAR"
		},
		{
			"bufferView":19,
			"componentType":5126,
			"count":2403,
			"max":[
				1.2592220306396484,
				1.6108348369598389,
				3.583780288696289
			],
			"min":[
				-5.258607864379883,
				-0.40190914273262024,
				-2.7973477840423584
			],
			"type":"VEC3"
		},
		{
			"bufferView":20,
			"componentType":5126,
			"count":2403,
			"type":"VEC3"
		},
		{
			"bufferView":21,
			"componentType":5126,
			"count":2403,
			"type":"VEC2"
		},
		{
			"bufferView":22,
			"componentType":5126,
			"count":2403,
			"type":"VEC2"
		},
		{
			"bufferView":23,
			"componentType":5126,
			"count":2403,
			"type":"VEC2"
		},
		{
			"bufferView":24,
			"componentType":5126,
			"count":2403,
			"type":"VEC2"
		},
		{
			"bufferView":25,
			"componentType":5123,
			"count":12129,
			"type":"SCALAR"
		},
		{
			"bufferView":26,
			"componentType":5126,
			"count":973,
			"max":[
				-1.3373188972473145,
				1.1436767578125,
				3.9368510246276855
			],
			"min":[
				-5.771744251251221,
				-0.7567954063415527,
				-3.248650312423706
			],
			"type":"VEC3"
		},
		{
			"bufferView":27,
			"componentType":5126,
			"count":973,
			"type":"VEC3"
		},
		{
			"bufferView":28,
			"componentType":5126,
			"count":973,
			"type":"VEC2"
		},
		{
			"bufferView":29,
			"componentType":5126,
			"count":973,
			"type":"VEC2"
		},
		{
			"bufferView":30,
			"componentType":5126,
			"count":973,
			"type":"VEC2"
		},
		{
			"bufferView":31,
			"componentType":5126,
			"count":973,
			"type":"VEC2"
		},
		{
			"bufferView":32,
			"componentType":5123,
			"count":4650,
			"type":"SCALAR"
		},
		{
			"bufferView":33,
			"componentType":5126,
			"count":152,
			"max":[
				-1.135584831237793,
				6.219412326812744,
				0.7224202752113342
			],
			"min":[
				-1.4570338726043701,
				5.891253471374512,
				0.34083065390586853
			],
			"type":"VEC3"
		},
		{
			"bufferView":34,
			"componentType":5126,
			"count":152,
			"type":"VEC3"
		},
		{
			"bufferView":35,
			"componentType":5126,
			"count":152,
			"type":"VEC2"
		},
		{
			"bufferView":36,
			"componentType":5123,
			"count":618,
			"type":"SCALAR"
		},
		{
			"bufferView":37,
			"componentType":5126,
			"count":152,
			"max":[
				-1.2375010251998901,
				6.310803413391113,
				0.10863034427165985
			],
			"min":[
				-1.5604605674743652,
				5.980907440185547,
				-0.2722807824611664
			],
			"type":"VEC3"
		},
		{
			"bufferView":38,
			"componentType":5126,
			"count":152,
			"type":"VEC3"
		},
		{
			"bufferView":39,
			"componentType":5126,
			"count":152,
			"type":"VEC2"
		},
		{
			"bufferView":40,
			"componentType":5123,
			"count":618,
			"type":"SCALAR"
		},
		{
			"bufferView":41,
			"componentType":5126,
			"count":2850,
			"max":[
				1.9642823934555054,
				5.84495735168457,
				2.859898328781128
			],
			"min":[
				-1.6445094347000122,
				0.4972802400588989,
				-2.917210102081299
			],
			"type":"VEC3"
		},
		{
			"bufferView":42,
			"componentType":5126,
			"count":2850,
			"type":"VEC3"
		},
		{
			"bufferView":43,
			"componentType":5126,
			"count":2850,
			"type":"VEC2"
		},
		{
			"bufferView":44,
			"componentType":5123,
			"count":16074,
			"type":"SCALAR"
		}
	],
	"bufferViews":[
		{
			"buffer":0,
			"byteLength":27432,
			"byteOffset":0,
			"target":34962
		},
		{
			"buffer":0,
			"byteLength":27432,
			"byteOffset":27432,
			"target":34962
		},
		{
			"buffer":0,
			"byteLength":18288,
			"byteOffset":54864,
			"target":34962
		},
		{
			"buffer":0,
			"byteLength":24564,
			"byteOffset":73152,
			"target":34963
		},
		{
			"buffer":0,
			"byteLength":3564,
			"byteOffset":97716,
			"target":34962
		},
		{
			"buffer":0,
			"byteLength":3564,
			"byteOffset":101280,
			"target":34962
		},
		{
			"buffer":0,
			"byteLength":2376,
			"byteOffset":104844,
			"target":34962
		},
		{
			"buffer":0,
			"byteLength":2376,
			"byteOffset":107220,
			"target":34962
		},
		{
			"buffer":0,
			"byteLength":3234,
			"byteOffset":109596,
			"target":34963
		},
		{
			"buffer":0,
			"byteLength":3144,
			"byteOffset":112832,
			"target":34962
		},
		{
			"buffer":0,
			"byteLength":3144,
			"byteOffset":115976,
			"target":34962
		},
		{
			"buffer":0,
			"byteLength":2096,
			"byteOffset":119120,
			"target":34962
		},
		{
			"buffer":0,
			"byteLength":2096,
			"byteOffset":121216,
			"target":34962
		},
		{
			"buffer":0,
			"byteLength":2640,
			"byteOffset":123312,
			"target":34963
		},
		{
			"buffer":0,
			"byteLength":12264,
			"byteOffset":125952,
			"target":34962
		},
		{
			"buffer":0,
			"byteLength":12264,
			"byteOffset":138216,
			"target":34962
		},
		{
			"buffer":0,
			"byteLength":8176,
			"byteOffset":150480,
			"target":34962
		},
		{
			"buffer":0,
			"byteLength":8176,
			"byteOffset":158656,
			"target":34962
		},
		{
			"buffer":0,
			"byteLength":9756,
			"byteOffset":166832,
			"target":34963
		},
		{
			"buffer":0,
			"byteLength":28836,
			"byteOffset":176588,
			"target":34962
		},
		{
			"buffer":0,
			"byteLength":28836,
			"byteOffset":205424,
			"target":34962
		},
		{
			"buffer":0,
			"byteLength":19224,
			"byteOffset":234260,
			"target":34962
		},
		{
			"buffer":0,
			"byteLength":19224,
			"byteOffset":253484,
			"target":34962
		},
		{
			"buffer":0,
			"byteLength":19224,
			"byteOffset":272708,
			"target":34962
		},
		{
			"buffer":0,
			"byteLength":19224,
			"byteOffset":291932,
			"target":34962
		},
		{
			"buffer":0,
			"byteLength":24258,
			"byteOffset":311156,
			"target":34963
		},
		{
			"buffer":0,
			"byteLength":11676,
			"byteOffset":335416,
			"target":34962
		},
		{
			"buffer":0,
			"byteLength":11676,
			"byteOffset":347092,
			"target":34962
		},
		{
			"buffer":0,
			"byteLength":7784,
			"byteOffset":358768,
			"target":34962
		},
		{
			"buffer":0,
			"byteLength":7784,
			"byteOffset":366552,
			"target":34962
		},
		{
			"buffer":0,
			"byteLength":7784,
			"byteOffset":374336,
			"target":34962
		},
		{
			"buffer":0,
			"byteLength":7784,
			"byteOffset":382120,
			"target":34962
		},
		{
			"buffer":0,
			"byteLength":9300,
			"byteOffset":389904,
			"target":34963
		},
		{
			"buffer":0,
			"byteLength":1824,
			"byteOffset":399204,
			"target":34962
		},
		{
			"buffer":0,
			"byteLength":1824,
			"byteOffset":401028,
			"target":34962
		},
		{
			"buffer":0,
			"byteLength":1216,
			"byteOffset":402852,
			"target":34962
		},
		{
			"buffer":0,
			"byteLength":1236,
			"byteOffset":404068,
			"target":34963
		},
		{
			"buffer":0,
			"byteLength":1824,
			"byteOffset":405304,
			"target":34962
		},
		{
			"buffer":0,
			"byteLength":1824,
			"byteOffset":407128,
			"target":34962
		},
		{
			"buffer":0,
			"byteLength":1216,
			"byteOffset":408952,
			"target":34962
		},
		{
			"buffer":0,
			"byteLength":1236,
			"byteOffset":410168,
			"target":34963
		},
		{
			"buffer":0,
			"byteLength":34200,
			"byteOffset":411404,
			"target":34962
		},
		{
			"buffer":0,
			"byteLength":34200,
			"byteOffset":445604,
			"target":34962
		},
		{
			"buffer":0,
			"byteLength":22800,
			"byteOffset":479804,
			"target":34962
		},
		{
			"buffer":0,
			"byteLength":32148,
			"byteOffset":502604,
			"target":34963
		}
	],
	"samplers":[
		{
			"magFilter":9729,
			"minFilter":9987
		}
	],
	"buffers":[
		{
			"byteLength":534752,
			"uri":"ManSittingUnderGulmohar.bin"
		}
	]
}
