# Blender 3.6.3
# www.blender.org
mtllib base.mtl
o Cylinder001_Ground_0
v 156.325409 4.753975 100.037621
v 156.323715 -5.685380 100.030693
v 168.229492 4.714728 77.592491
v 168.225555 -5.721452 77.591713
v 177.353668 4.348040 53.787006
v 177.264877 -6.017344 53.789547
v 188.273010 -0.312751 28.773504
v 185.319550 -8.294287 28.863468
v 184.764740 4.087229 3.565530
v 184.607376 -6.220919 3.570365
v 183.243393 4.004113 -21.577236
v 183.246765 -6.431162 -21.574261
v 183.888763 -1.741612 -46.937054
v 182.677063 -10.823672 -46.742390
v 172.564270 -0.081084 -70.679947
v 172.797302 -11.057342 -70.772125
v 171.879776 -8.313961 -92.807381
v 170.084396 -16.678062 -92.488991
v 149.668442 -3.662036 -113.502480
v 151.318344 -16.159992 -113.666046
v 134.548096 -5.589910 -131.707245
v 137.656540 -16.153225 -130.937225
v 106.707680 -5.610244 -149.714355
v 107.774559 -16.653759 -149.633423
v 82.886024 -14.329344 -165.549774
v 82.421852 -20.181438 -164.251511
v 60.023525 -14.525921 -175.789490
v 60.413376 -22.212288 -174.635086
v 19.681515 -12.843736 -186.460342
v 23.542145 -18.408764 -183.269211
v -6.940375 -5.012403 -185.015488
v -1.600362 -13.328308 -183.190140
v 156.323715 -5.685380 100.030693
v 156.325409 4.753975 100.037621
v 141.539307 -5.642619 121.219513
v 141.562088 4.803947 121.334503
v 124.903633 -5.344417 144.248444
v 125.545761 5.303459 147.474075
v 105.178642 -5.252457 162.539993
v 105.987007 5.449943 166.929550
v 80.816071 -6.116650 170.450684
v 80.391411 4.185328 171.413834
v 56.420334 -8.874058 182.353928
v 54.341625 0.367748 185.162460
v 34.708820 -7.189540 184.930084
v 34.690086 3.404810 184.962357
v 12.564507 -8.995312 188.752457
v 13.739654 2.369297 190.343994
v -13.925649 -10.875265 189.639648
v -13.763418 -0.985056 190.031693
v -43.384743 -13.827451 181.994186
v -43.150513 -2.727882 181.934814
v -69.237167 -11.886512 171.479248
v -68.487259 -0.104415 171.648270
v -92.092293 -11.160353 159.893387
v -94.372620 -4.201197 159.110779
v -114.650208 -13.571701 146.208847
v -116.248894 -5.327357 145.669220
v -132.729034 -6.393165 134.246109
v -134.993622 3.997183 136.771484
v -147.094299 -5.955640 112.833237
v -147.887634 4.426843 113.694801
v -160.918274 -6.990911 90.954659
v -161.774612 3.013499 91.592812
v -6.940375 -5.012403 -185.015488
v -1.600362 -13.328308 -183.190140
v -32.375320 -6.842917 -185.497971
v -28.353878 -15.122270 -182.985321
v -45.486950 -4.904848 -198.173294
v -45.486950 -4.904848 -198.173294
v -46.231445 -10.818933 -168.963226
v -68.433350 -14.095840 -181.035034
v -67.698112 -18.568363 -175.425003
v -88.440483 -14.958138 -171.093704
v -89.357452 -21.357567 -168.387283
v -112.816788 -8.740791 -149.515244
v -112.548790 -20.481213 -150.788620
v -129.228729 -5.818272 -130.994720
v -129.125565 -14.509480 -129.435287
v -144.659653 0.009769 -107.037720
v -144.823959 -9.287199 -105.938377
v -161.183395 -1.787619 -84.731148
v -160.153107 -9.933702 -83.638695
v -170.211380 2.449437 -59.616604
v -169.683426 -7.286954 -59.271816
v -175.871033 4.366497 -33.926239
v -175.842148 -6.044181 -33.926865
v -185.549118 0.121582 -5.151945
v -184.156250 -9.337413 -5.975561
v -186.554886 -0.550977 20.850187
v -183.230896 -8.658798 18.876963
v -189.066711 0.610567 41.814133
v -189.066711 0.610567 41.814133
v -176.031342 -6.044255 41.765709
v -173.716141 2.058821 69.676361
v -172.151962 -7.565824 68.526604
v -161.774612 3.013499 91.592812
v -160.918274 -6.990911 90.954659
v 156.325409 4.753975 100.037621
v 168.229492 4.714728 77.592491
v 141.562088 4.803947 121.334503
v 125.545761 5.303459 147.474075
v 188.273010 -0.312751 28.773504
v -134.993622 3.997183 136.771484
v -116.248894 -5.327357 145.669220
v 19.681515 -12.843736 -186.460342
v 183.888763 -1.741612 -46.937054
v 106.707680 -5.610244 -149.714355
v 171.879776 -8.313961 -92.807381
v 149.668442 -3.662036 -113.502480
v -32.332401 -6.697968 -185.339905
v -88.440483 -14.958138 -171.093704
v -186.554886 -0.550977 20.850187
v -170.211380 2.449437 -59.616604
v -175.871033 4.366497 -33.926239
v -68.483360 -13.892830 -180.986572
v 184.764740 4.087229 3.565530
v 183.243393 4.004113 -21.577236
v 82.886024 -14.329344 -165.549774
v 60.023525 -14.525921 -175.789490
v 105.987007 5.449943 166.929550
v 80.391411 4.185328 171.413834
v 54.341625 0.367748 185.162460
v 13.739654 2.369297 190.343994
v 34.690086 3.404810 184.962357
v -13.763418 -0.985056 190.031693
v -43.150513 -2.727882 181.934814
v -94.372620 -4.201197 159.110779
v -68.487259 -0.104415 171.648270
v -129.228729 -5.818272 -130.994720
v -144.659653 0.009769 -107.037720
v -112.816788 -8.740791 -149.515244
v -161.183395 -1.787619 -84.731148
v -173.716141 2.058821 69.676361
v -161.774612 3.013499 91.592812
v -147.887634 4.426843 113.694801
v 168.229492 4.714728 77.592491
v 188.273010 -0.312751 28.773504
v 19.681515 -12.843736 -186.460342
v 183.888763 -1.741612 -46.937054
v 106.707680 -5.610244 -149.714355
v 171.879776 -8.313961 -92.807381
v 149.668442 -3.662036 -113.502480
v -32.349251 -6.824310 -185.272751
v -186.554886 -0.550977 20.850187
v -175.871033 4.366497 -33.926239
v 172.564270 -0.081084 -70.679947
v 134.548096 -5.589910 -131.707245
v -6.940375 -5.012403 -185.015488
v -185.549118 0.121582 -5.151945
v 177.353668 4.348040 53.787006
vn 0.8834 -0.0005 0.4685
vn 0.8834 -0.0004 0.4686
vn 0.9102 -0.0004 0.4143
vn 0.9105 -0.0013 0.4134
vn 0.9261 -0.0069 0.3773
vn 0.9271 -0.0385 0.3728
vn 0.9478 -0.3112 0.0701
vn 0.9475 -0.3056 0.0943
vn 0.9969 -0.0490 -0.0622
vn 0.9990 -0.0134 -0.0438
vn 0.9998 -0.0018 -0.0183
vn 0.9998 -0.0141 -0.0148
vn 0.9710 -0.1175 -0.2081
vn 0.9667 -0.1130 -0.2296
vn 0.9709 0.0039 -0.2395
vn 0.9793 -0.0043 -0.2025
vn 0.9002 -0.1731 -0.3997
vn 0.8708 -0.1626 -0.4640
vn 0.7472 0.0826 -0.6595
vn 0.7538 0.1174 -0.6465
vn 0.6470 0.1252 -0.7521
vn 0.6829 0.1440 -0.7161
vn 0.5362 0.0508 -0.8426
vn 0.5344 0.0286 -0.8447
vn 0.4648 -0.1978 -0.8631
vn 0.4567 -0.2159 -0.8630
vn 0.3331 -0.1319 -0.9336
vn 0.3457 -0.1337 -0.9288
vn -0.1085 -0.5398 -0.8348
vn 0.0761 -0.4367 -0.8964
vn -0.0899 -0.3271 -0.9407
vn -0.0528 -0.2463 -0.9677
vn 0.8201 -0.0005 0.5722
vn 0.8205 -0.0024 0.5716
vn 0.8161 -0.0072 0.5779
vn 0.8205 -0.0312 0.5707
vn 0.7608 -0.2077 0.6148
vn 0.7410 -0.2455 0.6250
vn 0.5047 -0.3508 0.7888
vn 0.4684 -0.3270 0.8208
vn 0.3293 -0.1161 0.9371
vn 0.3154 -0.0857 0.9451
vn 0.3227 -0.1960 0.9260
vn 0.2428 -0.1858 0.9521
vn 0.0945 -0.0405 0.9947
vn 0.0971 -0.0278 0.9949
vn 0.1272 -0.1302 0.9833
vn 0.1554 -0.1422 0.9776
vn -0.1302 -0.0495 0.9902
vn -0.1217 -0.0326 0.9920
vn -0.3210 0.0073 0.9471
vn -0.3215 0.0116 0.9468
vn -0.4143 0.0136 0.9101
vn -0.4097 0.0082 0.9122
vn -0.4671 -0.0455 0.8830
vn -0.4786 -0.0553 0.8763
vn -0.5379 -0.0521 0.8414
vn -0.5459 -0.0869 0.8333
vn -0.6681 -0.2842 0.6877
vn -0.7094 -0.2819 0.6460
vn -0.8463 -0.1316 0.5163
vn -0.8544 -0.1072 0.5084
vn -0.8387 -0.1065 0.5341
vn -0.8389 -0.1059 0.5339
vn 0.0326 -0.1943 -0.9804
vn 0.0271 -0.2186 -0.9754
vn 0.3860 -0.0775 -0.9192
vn 0.0531 -0.5586 -0.8278
vn 0.0866 -0.9667 -0.2407
vn 0.0275 -0.9894 -0.1426
vn 0.1083 -0.8776 -0.4671
vn 0.0748 -0.7431 -0.6650
vn -0.4476 -0.3428 -0.8259
vn -0.5195 -0.2337 -0.8219
vn -0.6927 0.0440 -0.7198
vn -0.6727 0.0482 -0.7383
vn -0.8197 -0.0884 -0.5659
vn -0.8224 -0.1045 -0.5592
vn -0.8201 -0.0585 -0.5693
vn -0.8192 -0.0642 -0.5700
vn -0.8814 -0.1583 -0.4451
vn -0.8820 -0.1594 -0.4435
vn -0.9586 -0.0711 -0.2757
vn -0.9553 -0.0553 -0.2904
vn -0.9617 -0.0095 -0.2740
vn -0.9609 -0.0133 -0.2765
vn -0.9783 -0.1176 -0.1707
vn -0.9738 -0.1548 -0.1666
vn -0.9373 -0.3260 -0.1231
vn -0.8562 -0.5164 -0.0164
vn -0.3081 -0.9352 0.1747
vn -0.2865 -0.9279 0.2388
vn -0.8772 -0.3235 0.3548
vn -0.9374 -0.1768 0.3001
vn -0.8816 -0.1267 0.4547
vn -0.8881 -0.1046 0.4475
vn 0.0037 1.0000 0.0002
vn -0.4039 0.8788 -0.2540
vn 0.8415 0.1701 0.5127
vn -0.0269 0.9989 -0.0374
vn -0.1051 0.9932 -0.0494
vn 0.0119 0.9926 0.1206
vn -0.0357 0.7545 0.6554
vn 0.0430 0.9975 -0.0552
vn -0.0937 0.9951 -0.0321
vn -0.0598 0.9976 -0.0356
vn 0.1760 0.9721 -0.1554
vn -0.6298 0.2557 0.7334
vn 0.0053 0.9960 0.0891
vn -0.1022 0.9921 -0.0732
vn 0.1397 0.9888 -0.0525
vn 0.3337 0.9382 0.0918
vn 0.9680 0.1487 0.2022
vn -0.0757 0.9479 0.3094
vn -0.3684 -0.4591 -0.8084
vn -0.9131 -0.4039 0.0566
vn -0.9259 -0.3729 0.0605
vn 0.2536 0.6453 -0.7206
vn 0.1095 0.9586 -0.2629
vn -0.0613 0.9957 -0.0691
vn -0.4674 0.1188 -0.8760
vn 0.0688 0.9687 0.2383
vn -0.1095 0.9663 -0.2331
vn -0.1159 -0.7894 -0.6029
vn -0.0595 0.9971 -0.0474
vn -0.0277 0.9992 -0.0285
vn 0.0455 0.9851 -0.1657
vn 0.3862 0.2645 -0.8837
vn -0.3043 0.8618 -0.4057
vn 0.4015 0.9014 0.1622
vn 0.1964 0.9790 -0.0544
vn -0.5184 0.7929 -0.3201
vn 0.5196 0.8350 -0.1812
vn 0.0711 0.9949 -0.0719
vn 0.1231 0.9878 -0.0956
vn 0.7002 -0.5899 -0.4022
vn -0.6768 -0.6829 0.2750
vn 0.1413 0.9653 -0.2196
vn 0.0024 -0.1735 0.9848
vn -0.3783 0.9256 0.0093
vn -0.8979 -0.2798 -0.3398
vt 0.006706 0.040436
vt 0.006706 0.005464
vt 0.072495 0.040436
vt 0.072495 0.005464
vt 0.138283 0.040436
vt 0.138283 0.005464
vt 0.204072 0.040436
vt 0.204072 0.005464
vt 0.269860 0.040436
vt 0.269860 0.005464
vt 0.335649 0.040436
vt 0.335649 0.005464
vt 0.401438 0.040436
vt 0.401438 0.005464
vt 0.467226 0.040436
vt 0.467226 0.005464
vt 0.533015 0.040436
vt 0.533015 0.005464
vt 0.598804 0.040436
vt 0.598804 0.005464
vt 0.664592 0.040436
vt 0.664592 0.005464
vt 0.730381 0.040436
vt 0.730381 0.005464
vt 0.796170 0.040436
vt 0.796170 0.005464
vt 0.861958 0.040436
vt 0.861958 0.005464
vt 0.927747 0.040436
vt 0.927747 0.005464
vt 0.993536 0.040436
vt 0.993536 0.005464
vt 0.880098 0.269869
vt 0.911179 0.328316
vt 0.841157 0.216141
vt 0.795081 0.168463
vt 0.947701 0.455497
vt 0.135139 0.191576
vt 0.184480 0.147166
vt 0.559621 0.989751
vt 0.933915 0.652620
vt 0.742837 0.915694
vt 0.880098 0.773508
vt 0.841157 0.827115
vt 0.427439 0.994350
vt 0.239385 0.933240
vt 0.002957 0.488532
vt 0.030409 0.684204
vt 0.012148 0.620432
vt 0.362134 0.982854
vt 0.299006 0.962282
vt 0.952297 0.521688
vt 0.947701 0.587880
vt 0.685393 0.948850
vt 0.623958 0.973657
vt 0.742837 0.127683
vt 0.685393 0.094527
vt 0.623958 0.069720
vt 0.493590 0.046728
vt 0.559621 0.053626
vt 0.427439 0.049027
vt 0.362134 0.060523
vt 0.239385 0.110137
vt 0.299006 0.080974
vt 0.135139 0.851801
vt 0.092570 0.800977
vt 0.184480 0.896211
vt 0.057378 0.744829
vt 0.012148 0.422824
vt 0.030409 0.359173
vt 0.057378 0.298548
vt 0.092570 0.242279
vt 0.911179 0.714940
vt 0.795081 0.874914
vt 0.493590 0.996649
vt 0.002957 0.554845
vt 0.933915 0.390636
s 1
usemtl Ground
f 1/1/1 2/2/2 3/3/3
f 2/2/2 4/4/4 3/3/3
f 3/3/3 4/4/4 5/5/5
f 4/4/4 6/6/6 5/5/5
f 5/5/5 6/6/6 7/7/7
f 6/6/6 8/8/8 7/7/7
f 7/7/7 8/8/8 9/9/9
f 8/8/8 10/10/10 9/9/9
f 9/9/9 10/10/10 11/11/11
f 10/10/10 12/12/12 11/11/11
f 11/11/11 12/12/12 13/13/13
f 12/12/12 14/14/14 13/13/13
f 13/13/13 14/14/14 15/15/15
f 14/14/14 16/16/16 15/15/15
f 15/15/15 16/16/16 17/17/17
f 16/16/16 18/18/18 17/17/17
f 17/17/17 18/18/18 19/19/19
f 18/18/18 20/20/20 19/19/19
f 19/19/19 20/20/20 21/21/21
f 20/20/20 22/22/22 21/21/21
f 21/21/21 22/22/22 23/23/23
f 22/22/22 24/24/24 23/23/23
f 23/23/23 24/24/24 25/25/25
f 24/24/24 26/26/26 25/25/25
f 25/25/25 26/26/26 27/27/27
f 26/26/26 28/28/28 27/27/27
f 27/27/27 28/28/28 29/29/29
f 28/28/28 30/30/30 29/29/29
f 29/29/29 30/30/30 31/31/31
f 30/30/30 32/32/32 31/31/31
f 33/32/33 34/31/34 35/30/35
f 34/31/34 36/29/36 35/30/35
f 35/30/35 36/29/36 37/28/37
f 36/29/36 38/27/38 37/28/37
f 37/28/37 38/27/38 39/26/39
f 38/27/38 40/25/40 39/26/39
f 39/26/39 40/25/40 41/24/41
f 40/25/40 42/23/42 41/24/41
f 41/24/41 42/23/42 43/22/43
f 42/23/42 44/21/44 43/22/43
f 43/22/43 44/21/44 45/20/45
f 44/21/44 46/19/46 45/20/45
f 45/20/45 46/19/46 47/18/47
f 46/19/46 48/17/48 47/18/47
f 47/18/47 48/17/48 49/16/49
f 48/17/48 50/15/50 49/16/49
f 49/16/49 50/15/50 51/14/51
f 50/15/50 52/13/52 51/14/51
f 51/14/51 52/13/52 53/12/53
f 52/13/52 54/11/54 53/12/53
f 53/12/53 54/11/54 55/10/55
f 54/11/54 56/9/56 55/10/55
f 55/10/55 56/9/56 57/8/57
f 56/9/56 58/7/58 57/8/57
f 57/8/57 58/7/58 59/6/59
f 58/7/58 60/5/60 59/6/59
f 59/6/59 60/5/60 61/4/61
f 60/5/60 62/3/62 61/4/61
f 61/4/61 62/3/62 63/2/63
f 62/3/62 64/1/64 63/2/63
f 65/1/65 66/2/66 67/3/67
f 66/2/66 68/4/68 67/3/67
f 67/3/67 68/4/68 70/5/69
f 68/4/68 71/6/70 70/5/69
f 70/5/69 71/6/70 72/7/71
f 71/6/70 73/8/72 72/7/71
f 72/7/71 73/8/72 74/9/73
f 73/8/72 75/10/74 74/9/73
f 74/9/73 75/10/74 76/11/75
f 75/10/74 77/12/76 76/11/75
f 76/11/75 77/12/76 78/13/77
f 77/12/76 79/14/78 78/13/77
f 78/13/77 79/14/78 80/15/79
f 79/14/78 81/16/80 80/15/79
f 80/15/79 81/16/80 82/17/81
f 81/16/80 83/18/82 82/17/81
f 82/17/81 83/18/82 84/19/83
f 83/18/82 85/20/84 84/19/83
f 84/19/83 85/20/84 86/21/85
f 85/20/84 87/22/86 86/21/85
f 86/21/85 87/22/86 88/23/87
f 87/22/86 89/24/88 88/23/87
f 88/23/87 89/24/88 90/25/89
f 89/24/88 91/26/90 90/25/89
f 90/25/89 91/26/90 92/27/91
f 91/26/90 94/28/92 92/27/91
f 92/27/91 94/28/92 95/29/93
f 94/28/92 96/30/94 95/29/93
f 95/29/93 96/30/94 97/31/95
f 96/30/94 98/32/96 97/31/95
f 99/33/97 100/34/98 101/35/99
f 100/34/98 102/36/100 101/35/99
f 100/34/98 103/37/101 102/36/100
f 103/37/101 104/38/102 102/36/100
f 102/36/100 104/38/102 105/39/103
f 104/38/102 103/37/101 106/40/104
f 103/37/101 107/41/105 106/40/104
f 106/40/104 107/41/105 108/42/106
f 107/41/105 109/43/107 108/42/106
f 108/42/106 109/43/107 110/44/108
f 106/40/104 111/45/109 104/38/102
f 111/45/109 112/46/110 104/38/102
f 104/38/102 112/46/110 113/47/111
f 112/46/110 114/48/112 113/47/111
f 113/47/111 114/48/112 115/49/113
f 111/45/109 69/50/114 112/46/110
f 69/50/114 116/51/115 112/46/110
f 117/52/116 118/53/117 103/37/101
f 118/53/117 107/41/105 103/37/101
f 108/42/106 119/54/118 106/40/104
f 119/54/118 120/55/119 106/40/104
f 121/56/120 102/36/100 122/57/121
f 102/36/100 123/58/122 122/57/121
f 102/36/100 124/59/123 123/58/122
f 124/59/123 125/60/124 123/58/122
f 124/59/123 102/36/100 126/61/125
f 102/36/100 127/62/126 126/61/125
f 102/36/100 105/39/103 127/62/126
f 105/39/103 128/63/127 127/62/126
f 127/62/126 128/63/127 129/64/128
f 130/65/129 131/66/130 132/67/131
f 131/66/130 112/46/110 132/67/131
f 112/46/110 131/66/130 114/48/112
f 131/66/130 133/68/132 114/48/112
f 93/69/133 134/70/134 113/47/111
f 134/70/134 135/71/135 113/47/111
f 113/47/111 135/71/135 104/38/102
f 135/71/135 136/72/136 104/38/102
s 0
f 142/43/137 140/41/137 147/73/137
f 141/42/138 143/44/138 148/74/138
f 144/45/139 139/40/139 149/75/139
f 145/47/140 146/49/140 150/76/140
f 138/37/141 137/34/141 151/77/141
