{
	"asset":{
		"generator":"Khronos glTF Blender I/O v5.0.21",
		"version":"2.0"
	},
	"scene":0,
	"scenes":[
		{
			"name":"Scene",
			"nodes":[
				4,
				5,
				6,
				7
			]
		}
	],
	"nodes":[
		{
			"name":"House2_2.005",
			"rotation":[
				0.70710688829422,
				0,
				0,
				0.7071066498756409
			]
		},
		{
			"name":"Street_0.005",
			"rotation":[
				0.70710688829422,
				0,
				0,
				0.7071066498756409
			]
		},
		{
			"children":[
				0,
				1
			],
			"name":"GLTF_SceneRootNode.005",
			"rotation":[
				0.70710688829422,
				0,
				0,
				0.7071066498756409
			]
		},
		{
			"children":[
				2
			],
			"name":"root.005"
		},
		{
			"children":[
				3
			],
			"name":"Sketchfab_model.006",
			"rotation":[
				-0.70710688829422,
				0,
				0,
				0.7071066498756409
			],
			"scale":[
				3.9681129455566406,
				3.9681131839752197,
				3.9681131839752197
			],
			"translation":[
				-1.2214775085449219,
				22.806846618652344,
				1.9814932346343994
			]
		},
		{
			"name":"Object_7.005",
			"scale":[
				3.9681129455566406,
				3.9681129455566406,
				3.9681129455566406
			],
			"translation":[
				0.16700556874275208,
				7.571788787841797,
				-0.9900867342948914
			]
		},
		{
			"name":"Object_7.007",
			"rotation":[
				0.7011880874633789,
				0,
				0,
				0.712976336479187
			],
			"scale":[
				3.9681129455566406,
				3.968113899230957,
				3.968113899230957
			],
			"translation":[
				0.6623646020889282,
				16.816722869873047,
				1.3329780101776123
			]
		},
		{
			"mesh":0,
			"name":"Object_7.006"
		}
	],
	"materials":[
		{
			"doubleSided":true,
			"name":"Material410.009",
			"pbrMetallicRoughness":{
				"baseColorTexture":{
					"index":0
				},
				"metallicFactor":0,
				"roughnessFactor":0.6732680201530457
			}
		}
	],
	"meshes":[
		{
			"name":"Object_2.010",
			"primitives":[
				{
					"attributes":{
						"POSITION":0,
						"NORMAL":1,
						"TEXCOORD_0":2
					},
					"indices":3,
					"material":0
				}
			]
		}
	],
	"textures":[
		{
			"sampler":0,
			"source":0
		}
	],
	"images":[
		{
			"mimeType":"image/png",
			"name":"Material410_baseColor",
			"uri":"Material410_baseColor.png"
		}
	],
	"accessors":[
		{
			"bufferView":0,
			"componentType":5126,
			"count":544,
			"max":[
				15.918107032775879,
				25.96260643005371,
				15.007148742675781
			],
			"min":[
				-15.759284973144531,
				0.9402179718017578,
				-16.355337142944336
			],
			"type":"VEC3"
		},
		{
			"bufferView":1,
			"componentType":5126,
			"count":544,
			"type":"VEC3"
		},
		{
			"bufferView":2,
			"componentType":5126,
			"count":544,
			"type":"VEC2"
		},
		{
			"bufferView":3,
			"componentType":5123,
			"count":708,
			"type":"SCALAR"
		}
	],
	"bufferViews":[
		{
			"buffer":0,
			"byteLength":6528,
			"byteOffset":0,
			"target":34962
		},
		{
			"buffer":0,
			"byteLength":6528,
			"byteOffset":6528,
			"target":34962
		},
		{
			"buffer":0,
			"byteLength":4352,
			"byteOffset":13056,
			"target":34962
		},
		{
			"buffer":0,
			"byteLength":1416,
			"byteOffset":17408,
			"target":34963
		}
	],
	"samplers":[
		{
			"magFilter":9729,
			"minFilter":9987
		}
	],
	"buffers":[
		{
			"byteLength":18824,
			"uri":"House_One.bin"
		}
	]
}
