{
	"asset":{
		"generator":"Khronos glTF Blender I/O v5.0.21",
		"version":"2.0"
	},
	"extensionsUsed":[
		"KHR_materials_specular",
		"KHR_texture_transform"
	],
	"extensionsRequired":[
		"KHR_texture_transform"
	],
	"scene":0,
	"scenes":[
		{
			"name":"Scene",
			"nodes":[
				0,
				1,
				2,
				3,
				4,
				5,
				6
			]
		}
	],
	"nodes":[
		{
			"mesh":0,
			"name":"Object_12"
		},
		{
			"mesh":1,
			"name":"Object_10"
		},
		{
			"mesh":2,
			"name":"Object_16"
		},
		{
			"mesh":3,
			"name":"Object_8"
		},
		{
			"mesh":4,
			"name":"Object_9.006"
		},
		{
			"mesh":5,
			"name":"Object_17.001"
		},
		{
			"mesh":6,
			"name":"Object_7.001"
		}
	],
	"materials":[
		{
			"doubleSided":true,
			"name":"AvatarRightCornea",
			"pbrMetallicRoughness":{
				"baseColorTexture":{
					"index":0
				},
				"metallicFactor":0
			}
		},
		{
			"doubleSided":true,
			"name":"AvatarLeftCornea",
			"pbrMetallicRoughness":{
				"baseColorTexture":{
					"index":1
				},
				"metallicFactor":0
			}
		},
		{
			"alphaMode":"BLEND",
			"doubleSided":true,
			"extensions":{
				"KHR_materials_specular":{
					"specularFactor":0.0960002914071083
				}
			},
			"name":"haircut",
			"normalTexture":{
				"index":2
			},
			"pbrMetallicRoughness":{
				"baseColorTexture":{
					"index":3
				},
				"metallicFactor":0,
				"roughnessFactor":0.367617130279541
			}
		},
		{
			"doubleSided":true,
			"name":"AvatarEyelashes",
			"pbrMetallicRoughness":{
				"baseColorFactor":[
					0,
					0,
					0,
					1
				],
				"metallicFactor":0
			}
		},
		{
			"doubleSided":true,
			"extensions":{
				"KHR_materials_specular":{
					"specularFactor":0.010666699148714542
				}
			},
			"name":"AvatarHead",
			"normalTexture":{
				"index":4
			},
			"pbrMetallicRoughness":{
				"baseColorTexture":{
					"index":5
				},
				"metallicFactor":0,
				"roughnessFactor":0.6784752011299133
			}
		},
		{
			"doubleSided":true,
			"extensions":{
				"KHR_materials_specular":{
					"specularFactor":0.5104777216911316
				}
			},
			"name":"outfit",
			"normalTexture":{
				"extensions":{
					"KHR_texture_transform":{
						"offset":[
							0,
							2.60770320892334e-08
						],
						"scale":[
							0.03333333507180214,
							0.03333333507180214
						]
					}
				},
				"index":6,
				"scale":0.8944789171218872
			},
			"pbrMetallicRoughness":{
				"baseColorTexture":{
					"index":7
				},
				"metallicFactor":0.6689544320106506,
				"roughnessFactor":0.45904597640037537
			}
		},
		{
			"doubleSided":true,
			"extensions":{
				"KHR_materials_specular":{
					"specularFactor":0.2118101716041565
				}
			},
			"name":"AvatarBody",
			"normalTexture":{
				"index":8
			},
			"pbrMetallicRoughness":{
				"baseColorTexture":{
					"index":9
				},
				"metallicFactor":0,
				"roughnessFactor":0.6601894497871399
			}
		}
	],
	"meshes":[
		{
			"name":"AvatarRightCornea_AvatarRightCornea_0",
			"primitives":[
				{
					"attributes":{
						"POSITION":0,
						"NORMAL":1,
						"TEXCOORD_0":2,
						"TANGENT":3
					},
					"indices":4,
					"material":0
				}
			]
		},
		{
			"name":"AvatarLeftCornea_AvatarLeftCornea_0",
			"primitives":[
				{
					"attributes":{
						"POSITION":5,
						"NORMAL":6,
						"TEXCOORD_0":7,
						"TANGENT":8
					},
					"indices":9,
					"material":1
				}
			]
		},
		{
			"name":"haircut_haircut_0",
			"primitives":[
				{
					"attributes":{
						"POSITION":10,
						"NORMAL":11,
						"TEXCOORD_0":12,
						"TEXCOORD_1":13,
						"TANGENT":14
					},
					"indices":15,
					"material":2
				}
			]
		},
		{
			"name":"0",
			"primitives":[
				{
					"attributes":{
						"POSITION":16,
						"NORMAL":17,
						"TEXCOORD_0":18,
						"TANGENT":19
					},
					"indices":20,
					"material":3
				}
			]
		},
		{
			"name":"1",
			"primitives":[
				{
					"attributes":{
						"POSITION":21,
						"NORMAL":22,
						"TEXCOORD_0":23,
						"TEXCOORD_1":24,
						"TANGENT":25
					},
					"indices":26,
					"material":4
				}
			]
		},
		{
			"name":"outfit_outfit_0",
			"primitives":[
				{
					"attributes":{
						"POSITION":27,
						"NORMAL":28,
						"TEXCOORD_0":29,
						"TEXCOORD_1":30,
						"TANGENT":31
					},
					"indices":32,
					"material":5
				}
			]
		},
		{
			"name":"AvatarBody_AvatarBody_0",
			"primitives":[
				{
					"attributes":{
						"POSITION":33,
						"NORMAL":34,
						"TEXCOORD_0":35,
						"TEXCOORD_1":36,
						"TANGENT":37
					},
					"indices":38,
					"material":6
				}
			]
		}
	],
	"textures":[
		{
			"sampler":0,
			"source":0
		},
		{
			"sampler":0,
			"source":1
		},
		{
			"sampler":0,
			"source":2
		},
		{
			"sampler":0,
			"source":3
		},
		{
			"sampler":0,
			"source":4
		},
		{
			"sampler":0,
			"source":5
		},
		{
			"sampler":0,
			"source":6
		},
		{
			"sampler":0,
			"source":7
		},
		{
			"sampler":0,
			"source":8
		},
		{
			"sampler":0,
			"source":9
		}
	],
	"images":[
		{
			"mimeType":"image/jpeg",
			"name":"AvatarRightCornea_baseColor",
			"uri":"AvatarRightCornea_baseColor.jpg"
		},
		{
			"mimeType":"image/jpeg",
			"name":"AvatarLeftCornea_baseColor",
			"uri":"AvatarLeftCornea_baseColor.jpg"
		},
		{
			"mimeType":"image/png",
			"name":"haircut_normal",
			"uri":"haircut_normal.png"
		},
		{
			"mimeType":"image/png",
			"name":"haircut_baseColor",
			"uri":"haircut_baseColor.png"
		},
		{
			"mimeType":"image/png",
			"name":"AvatarHead_normal",
			"uri":"AvatarHead_normal.png"
		},
		{
			"mimeType":"image/png",
			"name":"AvatarHead_baseColor",
			"uri":"AvatarHead_baseColor.png"
		},
		{
			"mimeType":"image/png",
			"name":"outfit_normal",
			"uri":"outfit_normal.png"
		},
		{
			"mimeType":"image/png",
			"name":"Screenshot 2025-12-20 214828",
			"uri":"Screenshot%202025-12-20%20214828.png"
		},
		{
			"mimeType":"image/png",
			"name":"AvatarBody_normal",
			"uri":"AvatarBody_normal.png"
		},
		{
			"mimeType":"image/jpeg",
			"name":"AvatarBody_baseColor",
			"uri":"AvatarBody_baseColor.jpg"
		}
	],
	"accessors":[
		{
			"bufferView":0,
			"componentType":5126,
			"count":457,
			"max":[
				-143.90293884277344,
				26.885786056518555,
				-47.264976501464844
			],
			"min":[
				-144.09954833984375,
				26.68907928466797,
				-47.47480010986328
			],
			"type":"VEC3"
		},
		{
			"bufferView":1,
			"componentType":5126,
			"count":457,
			"type":"VEC3"
		},
		{
			"bufferView":2,
			"componentType":5126,
			"count":457,
			"type":"VEC2"
		},
		{
			"bufferView":3,
			"componentType":5126,
			"count":457,
			"type":"VEC4"
		},
		{
			"bufferView":4,
			"componentType":5123,
			"count":2490,
			"type":"SCALAR"
		},
		{
			"bufferView":5,
			"componentType":5126,
			"count":457,
			"max":[
				-144.4030303955078,
				26.876781463623047,
				-47.12568283081055
			],
			"min":[
				-144.5996551513672,
				26.680068969726562,
				-47.33548355102539
			],
			"type":"VEC3"
		},
		{
			"bufferView":6,
			"componentType":5126,
			"count":457,
			"type":"VEC3"
		},
		{
			"bufferView":7,
			"componentType":5126,
			"count":457,
			"type":"VEC2"
		},
		{
			"bufferView":8,
			"componentType":5126,
			"count":457,
			"type":"VEC4"
		},
		{
			"bufferView":9,
			"componentType":5123,
			"count":2490,
			"type":"SCALAR"
		},
		{
			"bufferView":10,
			"componentType":5126,
			"count":48815,
			"max":[
				-142.69740295410156,
				27.822708129882812,
				-45.5347785949707
			],
			"min":[
				-145.10667419433594,
				24.7995548248291,
				-47.652549743652344
			],
			"type":"VEC3"
		},
		{
			"bufferView":11,
			"componentType":5126,
			"count":48815,
			"type":"VEC3"
		},
		{
			"bufferView":12,
			"componentType":5126,
			"count":48815,
			"type":"VEC2"
		},
		{
			"bufferView":13,
			"componentType":5126,
			"count":48815,
			"type":"VEC2"
		},
		{
			"bufferView":14,
			"componentType":5126,
			"count":48815,
			"type":"VEC4"
		},
		{
			"bufferView":15,
			"componentType":5123,
			"count":137229,
			"type":"SCALAR"
		},
		{
			"bufferView":16,
			"componentType":5126,
			"count":6300,
			"max":[
				-143.8980255126953,
				26.845718383789062,
				-47.23469924926758
			],
			"min":[
				-144.63832092285156,
				26.704927444458008,
				-47.5377082824707
			],
			"type":"VEC3"
		},
		{
			"bufferView":17,
			"componentType":5126,
			"count":6300,
			"type":"VEC3"
		},
		{
			"bufferView":18,
			"componentType":5126,
			"count":6300,
			"type":"VEC2"
		},
		{
			"bufferView":19,
			"componentType":5126,
			"count":6300,
			"type":"VEC4"
		},
		{
			"bufferView":20,
			"componentType":5123,
			"count":14700,
			"type":"SCALAR"
		},
		{
			"bufferView":21,
			"componentType":5126,
			"count":7445,
			"max":[
				-142.95814514160156,
				27.71472930908203,
				-45.7113151550293
			],
			"min":[
				-144.9364013671875,
				24.79393768310547,
				-47.67997741699219
			],
			"type":"VEC3"
		},
		{
			"bufferView":22,
			"componentType":5126,
			"count":7445,
			"type":"VEC3"
		},
		{
			"bufferView":23,
			"componentType":5126,
			"count":7445,
			"type":"VEC2"
		},
		{
			"bufferView":24,
			"componentType":5126,
			"count":7445,
			"type":"VEC2"
		},
		{
			"bufferView":25,
			"componentType":5126,
			"count":7445,
			"type":"VEC4"
		},
		{
			"bufferView":26,
			"componentType":5123,
			"count":43212,
			"type":"SCALAR"
		},
		{
			"bufferView":27,
			"componentType":5126,
			"count":19032,
			"max":[
				-142.020751953125,
				25.454002380371094,
				-44.06086349487305
			],
			"min":[
				-146.1680145263672,
				13.329638481140137,
				-48.246009826660156
			],
			"type":"VEC3"
		},
		{
			"bufferView":28,
			"componentType":5126,
			"count":19032,
			"type":"VEC3"
		},
		{
			"bufferView":29,
			"componentType":5126,
			"count":19032,
			"type":"VEC2"
		},
		{
			"bufferView":30,
			"componentType":5126,
			"count":19032,
			"type":"VEC2"
		},
		{
			"bufferView":31,
			"componentType":5126,
			"count":19032,
			"type":"VEC4"
		},
		{
			"bufferView":32,
			"componentType":5123,
			"count":109890,
			"type":"SCALAR"
		},
		{
			"bufferView":33,
			"componentType":5126,
			"count":3279,
			"max":[
				-142.34144592285156,
				25.42500114440918,
				-45.628814697265625
			],
			"min":[
				-146.49337768554688,
				22.148038864135742,
				-48.532249450683594
			],
			"type":"VEC3"
		},
		{
			"bufferView":34,
			"componentType":5126,
			"count":3279,
			"type":"VEC3"
		},
		{
			"bufferView":35,
			"componentType":5126,
			"count":3279,
			"type":"VEC2"
		},
		{
			"bufferView":36,
			"componentType":5126,
			"count":3279,
			"type":"VEC2"
		},
		{
			"bufferView":37,
			"componentType":5126,
			"count":3279,
			"type":"VEC4"
		},
		{
			"bufferView":38,
			"componentType":5123,
			"count":16674,
			"type":"SCALAR"
		}
	],
	"bufferViews":[
		{
			"buffer":0,
			"byteLength":5484,
			"byteOffset":0,
			"target":34962
		},
		{
			"buffer":0,
			"byteLength":5484,
			"byteOffset":5484,
			"target":34962
		},
		{
			"buffer":0,
			"byteLength":3656,
			"byteOffset":10968,
			"target":34962
		},
		{
			"buffer":0,
			"byteLength":7312,
			"byteOffset":14624,
			"target":34962
		},
		{
			"buffer":0,
			"byteLength":4980,
			"byteOffset":21936,
			"target":34963
		},
		{
			"buffer":0,
			"byteLength":5484,
			"byteOffset":26916,
			"target":34962
		},
		{
			"buffer":0,
			"byteLength":5484,
			"byteOffset":32400,
			"target":34962
		},
		{
			"buffer":0,
			"byteLength":3656,
			"byteOffset":37884,
			"target":34962
		},
		{
			"buffer":0,
			"byteLength":7312,
			"byteOffset":41540,
			"target":34962
		},
		{
			"buffer":0,
			"byteLength":4980,
			"byteOffset":48852,
			"target":34963
		},
		{
			"buffer":0,
			"byteLength":585780,
			"byteOffset":53832,
			"target":34962
		},
		{
			"buffer":0,
			"byteLength":585780,
			"byteOffset":639612,
			"target":34962
		},
		{
			"buffer":0,
			"byteLength":390520,
			"byteOffset":1225392,
			"target":34962
		},
		{
			"buffer":0,
			"byteLength":390520,
			"byteOffset":1615912,
			"target":34962
		},
		{
			"buffer":0,
			"byteLength":781040,
			"byteOffset":2006432,
			"target":34962
		},
		{
			"buffer":0,
			"byteLength":274458,
			"byteOffset":2787472,
			"target":34963
		},
		{
			"buffer":0,
			"byteLength":75600,
			"byteOffset":3061932,
			"target":34962
		},
		{
			"buffer":0,
			"byteLength":75600,
			"byteOffset":3137532,
			"target":34962
		},
		{
			"buffer":0,
			"byteLength":50400,
			"byteOffset":3213132,
			"target":34962
		},
		{
			"buffer":0,
			"byteLength":100800,
			"byteOffset":3263532,
			"target":34962
		},
		{
			"buffer":0,
			"byteLength":29400,
			"byteOffset":3364332,
			"target":34963
		},
		{
			"buffer":0,
			"byteLength":89340,
			"byteOffset":3393732,
			"target":34962
		},
		{
			"buffer":0,
			"byteLength":89340,
			"byteOffset":3483072,
			"target":34962
		},
		{
			"buffer":0,
			"byteLength":59560,
			"byteOffset":3572412,
			"target":34962
		},
		{
			"buffer":0,
			"byteLength":59560,
			"byteOffset":3631972,
			"target":34962
		},
		{
			"buffer":0,
			"byteLength":119120,
			"byteOffset":3691532,
			"target":34962
		},
		{
			"buffer":0,
			"byteLength":86424,
			"byteOffset":3810652,
			"target":34963
		},
		{
			"buffer":0,
			"byteLength":228384,
			"byteOffset":3897076,
			"target":34962
		},
		{
			"buffer":0,
			"byteLength":228384,
			"byteOffset":4125460,
			"target":34962
		},
		{
			"buffer":0,
			"byteLength":152256,
			"byteOffset":4353844,
			"target":34962
		},
		{
			"buffer":0,
			"byteLength":152256,
			"byteOffset":4506100,
			"target":34962
		},
		{
			"buffer":0,
			"byteLength":304512,
			"byteOffset":4658356,
			"target":34962
		},
		{
			"buffer":0,
			"byteLength":219780,
			"byteOffset":4962868,
			"target":34963
		},
		{
			"buffer":0,
			"byteLength":39348,
			"byteOffset":5182648,
			"target":34962
		},
		{
			"buffer":0,
			"byteLength":39348,
			"byteOffset":5221996,
			"target":34962
		},
		{
			"buffer":0,
			"byteLength":26232,
			"byteOffset":5261344,
			"target":34962
		},
		{
			"buffer":0,
			"byteLength":26232,
			"byteOffset":5287576,
			"target":34962
		},
		{
			"buffer":0,
			"byteLength":52464,
			"byteOffset":5313808,
			"target":34962
		},
		{
			"buffer":0,
			"byteLength":33348,
			"byteOffset":5366272,
			"target":34963
		}
	],
	"samplers":[
		{
			"magFilter":9729,
			"minFilter":9987
		}
	],
	"buffers":[
		{
			"byteLength":5399620,
			"uri":"ManDrinking_Wife.bin"
		}
	]
}
