{
	"asset":{
		"generator":"Khronos glTF Blender I/O v5.0.21",
		"version":"2.0"
	},
	"scene":0,
	"scenes":[
		{
			"name":"Scene",
			"nodes":[
				7
			]
		}
	],
	"nodes":[
		{
			"mesh":0,
			"name":"Cylinder_Dead_Fan_sdbcdah2_0"
		},
		{
			"mesh":1,
			"name":"Cylinder_Huge_Banana_slpmfhp_0"
		},
		{
			"mesh":2,
			"name":"Cylinder_Huge_Banana_Tree_sl0no0p_0"
		},
		{
			"mesh":3,
			"name":"Cylinder_Palm_Bark_tiglajzdy_0"
		},
		{
			"children":[
				0,
				1,
				2,
				3
			],
			"name":"Cylinder"
		},
		{
			"children":[
				4
			],
			"name":"RootNode"
		},
		{
			"children":[
				5
			],
			"name":"18b1737348094304843bffec109b931f.fbx"
		},
		{
			"children":[
				6
			],
			"name":"Sketchfab_model"
		}
	],
	"materials":[
		{
			"alphaCutoff":0.37638211250305176,
			"alphaMode":"MASK",
			"doubleSided":true,
			"name":"Dead_Fan_sdbcdah2",
			"normalTexture":{
				"index":0
			},
			"pbrMetallicRoughness":{
				"baseColorTexture":{
					"index":1
				},
				"metallicFactor":0,
				"metallicRoughnessTexture":{
					"index":2
				},
				"roughnessFactor":0.7603832483291626
			}
		},
		{
			"alphaCutoff":0.8152405619621277,
			"alphaMode":"MASK",
			"doubleSided":true,
			"name":"Huge_Banana_slpmfhp",
			"normalTexture":{
				"index":3
			},
			"occlusionTexture":{
				"index":4
			},
			"pbrMetallicRoughness":{
				"baseColorTexture":{
					"index":5
				},
				"metallicFactor":0,
				"metallicRoughnessTexture":{
					"index":4
				},
				"roughnessFactor":0.43123939633369446
			}
		},
		{
			"alphaCutoff":0.4617156982421875,
			"alphaMode":"MASK",
			"doubleSided":true,
			"name":"Huge_Banana_Tree_sl0no0p",
			"normalTexture":{
				"index":6
			},
			"occlusionTexture":{
				"index":7
			},
			"pbrMetallicRoughness":{
				"baseColorTexture":{
					"index":8
				},
				"metallicFactor":0,
				"metallicRoughnessTexture":{
					"index":7
				},
				"roughnessFactor":0.7360022664070129
			}
		},
		{
			"doubleSided":true,
			"name":"Palm_Bark_tiglajzdy",
			"normalTexture":{
				"index":9
			},
			"occlusionTexture":{
				"index":10
			},
			"pbrMetallicRoughness":{
				"baseColorTexture":{
					"index":11
				},
				"metallicFactor":0,
				"metallicRoughnessTexture":{
					"index":10
				}
			}
		}
	],
	"meshes":[
		{
			"name":"Cylinder_Dead_Fan_sdbcdah2_0",
			"primitives":[
				{
					"attributes":{
						"POSITION":0,
						"NORMAL":1,
						"TEXCOORD_0":2,
						"TEXCOORD_1":3,
						"TANGENT":4
					},
					"indices":5,
					"material":0
				}
			]
		},
		{
			"name":"Cylinder_Huge_Banana_slpmfhp_0",
			"primitives":[
				{
					"attributes":{
						"POSITION":6,
						"NORMAL":7,
						"TEXCOORD_0":8,
						"TEXCOORD_1":9,
						"TANGENT":10
					},
					"indices":11,
					"material":1
				}
			]
		},
		{
			"name":"Cylinder_Huge_Banana_Tree_sl0no0p_0",
			"primitives":[
				{
					"attributes":{
						"POSITION":12,
						"NORMAL":13,
						"TEXCOORD_0":14,
						"TEXCOORD_1":15,
						"TANGENT":16
					},
					"indices":17,
					"material":2
				}
			]
		},
		{
			"name":"Cylinder_Palm_Bark_tiglajzdy_0",
			"primitives":[
				{
					"attributes":{
						"POSITION":18,
						"NORMAL":19,
						"TEXCOORD_0":20,
						"TEXCOORD_1":21,
						"TANGENT":22
					},
					"indices":23,
					"material":3
				}
			]
		}
	],
	"textures":[
		{
			"sampler":0,
			"source":0
		},
		{
			"sampler":0,
			"source":1
		},
		{
			"sampler":0,
			"source":2
		},
		{
			"sampler":0,
			"source":3
		},
		{
			"sampler":0,
			"source":4
		},
		{
			"sampler":0,
			"source":5
		},
		{
			"sampler":0,
			"source":6
		},
		{
			"sampler":0,
			"source":7
		},
		{
			"sampler":0,
			"source":8
		},
		{
			"sampler":0,
			"source":9
		},
		{
			"sampler":0,
			"source":10
		},
		{
			"sampler":0,
			"source":11
		}
	],
	"images":[
		{
			"mimeType":"image/png",
			"name":"Dead_Fan_sdbcdah2_normal",
			"uri":"Dead_Fan_sdbcdah2_normal.png"
		},
		{
			"mimeType":"image/png",
			"name":"Dead_Fan_sdbcdah2_baseColor",
			"uri":"Dead_Fan_sdbcdah2_baseColor.png"
		},
		{
			"mimeType":"image/png",
			"name":"Dead_Fan_sdbcdah2_metallicRoughness",
			"uri":"Dead_Fan_sdbcdah2_metallicRoughness.png"
		},
		{
			"mimeType":"image/png",
			"name":"Huge_Banana_slpmfhp_normal",
			"uri":"Huge_Banana_slpmfhp_normal.png"
		},
		{
			"mimeType":"image/png",
			"name":"Huge_Banana_slpmfhp_metallicRoughness",
			"uri":"Huge_Banana_slpmfhp_metallicRoughness.png"
		},
		{
			"mimeType":"image/png",
			"name":"Huge_Banana_slpmfhp_baseColor",
			"uri":"Huge_Banana_slpmfhp_baseColor.png"
		},
		{
			"mimeType":"image/png",
			"name":"Huge_Banana_Tree_sl0no0p_normal",
			"uri":"Huge_Banana_Tree_sl0no0p_normal.png"
		},
		{
			"mimeType":"image/png",
			"name":"Huge_Banana_Tree_sl0no0p_metallicRoughness",
			"uri":"Huge_Banana_Tree_sl0no0p_metallicRoughness.png"
		},
		{
			"mimeType":"image/png",
			"name":"Huge_Banana_Tree_sl0no0p_baseColor",
			"uri":"Huge_Banana_Tree_sl0no0p_baseColor.png"
		},
		{
			"mimeType":"image/png",
			"name":"Palm_Bark_tiglajzdy_normal",
			"uri":"Palm_Bark_tiglajzdy_normal.png"
		},
		{
			"mimeType":"image/png",
			"name":"Palm_Bark_tiglajzdy_metallicRoughness",
			"uri":"Palm_Bark_tiglajzdy_metallicRoughness.png"
		},
		{
			"mimeType":"image/jpeg",
			"name":"Palm_Bark_tiglajzdy_baseColor",
			"uri":"Palm_Bark_tiglajzdy_baseColor.jpg"
		}
	],
	"accessors":[
		{
			"bufferView":0,
			"componentType":5126,
			"count":4544,
			"max":[
				3.334010362625122,
				8.879478454589844,
				2.173776626586914
			],
			"min":[
				0.49993908405303955,
				0.8781723976135254,
				-0.7234476804733276
			],
			"type":"VEC3"
		},
		{
			"bufferView":1,
			"componentType":5126,
			"count":4544,
			"type":"VEC3"
		},
		{
			"bufferView":2,
			"componentType":5126,
			"count":4544,
			"type":"VEC2"
		},
		{
			"bufferView":3,
			"componentType":5126,
			"count":4544,
			"type":"VEC2"
		},
		{
			"bufferView":4,
			"componentType":5126,
			"count":4544,
			"type":"VEC4"
		},
		{
			"bufferView":5,
			"componentType":5123,
			"count":6816,
			"type":"SCALAR"
		},
		{
			"bufferView":6,
			"componentType":5126,
			"count":1584,
			"max":[
				6.880837917327881,
				13.765413284301758,
				8.510076522827148
			],
			"min":[
				-5.1739583015441895,
				7.222888469696045,
				-7.187644004821777
			],
			"type":"VEC3"
		},
		{
			"bufferView":7,
			"componentType":5126,
			"count":1584,
			"type":"VEC3"
		},
		{
			"bufferView":8,
			"componentType":5126,
			"count":1584,
			"type":"VEC2"
		},
		{
			"bufferView":9,
			"componentType":5126,
			"count":1584,
			"type":"VEC2"
		},
		{
			"bufferView":10,
			"componentType":5126,
			"count":1584,
			"type":"VEC4"
		},
		{
			"bufferView":11,
			"componentType":5123,
			"count":1920,
			"type":"SCALAR"
		},
		{
			"bufferView":12,
			"componentType":5126,
			"count":2580,
			"max":[
				9.774637222290039,
				16.739721298217773,
				5.035420894622803
			],
			"min":[
				-6.041207313537598,
				6.7436065673828125,
				-4.1056904792785645
			],
			"type":"VEC3"
		},
		{
			"bufferView":13,
			"componentType":5126,
			"count":2580,
			"type":"VEC3"
		},
		{
			"bufferView":14,
			"componentType":5126,
			"count":2580,
			"type":"VEC2"
		},
		{
			"bufferView":15,
			"componentType":5126,
			"count":2580,
			"type":"VEC2"
		},
		{
			"bufferView":16,
			"componentType":5126,
			"count":2580,
			"type":"VEC4"
		},
		{
			"bufferView":17,
			"componentType":5123,
			"count":3456,
			"type":"SCALAR"
		},
		{
			"bufferView":18,
			"componentType":5126,
			"count":710,
			"max":[
				2.40358567237854,
				6.8603668212890625,
				1.178322672843933
			],
			"min":[
				1.5429422855377197,
				2.3294858932495117,
				0.2801281809806824
			],
			"type":"VEC3"
		},
		{
			"bufferView":19,
			"componentType":5126,
			"count":710,
			"type":"VEC3"
		},
		{
			"bufferView":20,
			"componentType":5126,
			"count":710,
			"type":"VEC2"
		},
		{
			"bufferView":21,
			"componentType":5126,
			"count":710,
			"type":"VEC2"
		},
		{
			"bufferView":22,
			"componentType":5126,
			"count":710,
			"type":"VEC4"
		},
		{
			"bufferView":23,
			"componentType":5123,
			"count":996,
			"type":"SCALAR"
		}
	],
	"bufferViews":[
		{
			"buffer":0,
			"byteLength":54528,
			"byteOffset":0,
			"target":34962
		},
		{
			"buffer":0,
			"byteLength":54528,
			"byteOffset":54528,
			"target":34962
		},
		{
			"buffer":0,
			"byteLength":36352,
			"byteOffset":109056,
			"target":34962
		},
		{
			"buffer":0,
			"byteLength":36352,
			"byteOffset":145408,
			"target":34962
		},
		{
			"buffer":0,
			"byteLength":72704,
			"byteOffset":181760,
			"target":34962
		},
		{
			"buffer":0,
			"byteLength":13632,
			"byteOffset":254464,
			"target":34963
		},
		{
			"buffer":0,
			"byteLength":19008,
			"byteOffset":268096,
			"target":34962
		},
		{
			"buffer":0,
			"byteLength":19008,
			"byteOffset":287104,
			"target":34962
		},
		{
			"buffer":0,
			"byteLength":12672,
			"byteOffset":306112,
			"target":34962
		},
		{
			"buffer":0,
			"byteLength":12672,
			"byteOffset":318784,
			"target":34962
		},
		{
			"buffer":0,
			"byteLength":25344,
			"byteOffset":331456,
			"target":34962
		},
		{
			"buffer":0,
			"byteLength":3840,
			"byteOffset":356800,
			"target":34963
		},
		{
			"buffer":0,
			"byteLength":30960,
			"byteOffset":360640,
			"target":34962
		},
		{
			"buffer":0,
			"byteLength":30960,
			"byteOffset":391600,
			"target":34962
		},
		{
			"buffer":0,
			"byteLength":20640,
			"byteOffset":422560,
			"target":34962
		},
		{
			"buffer":0,
			"byteLength":20640,
			"byteOffset":443200,
			"target":34962
		},
		{
			"buffer":0,
			"byteLength":41280,
			"byteOffset":463840,
			"target":34962
		},
		{
			"buffer":0,
			"byteLength":6912,
			"byteOffset":505120,
			"target":34963
		},
		{
			"buffer":0,
			"byteLength":8520,
			"byteOffset":512032,
			"target":34962
		},
		{
			"buffer":0,
			"byteLength":8520,
			"byteOffset":520552,
			"target":34962
		},
		{
			"buffer":0,
			"byteLength":5680,
			"byteOffset":529072,
			"target":34962
		},
		{
			"buffer":0,
			"byteLength":5680,
			"byteOffset":534752,
			"target":34962
		},
		{
			"buffer":0,
			"byteLength":11360,
			"byteOffset":540432,
			"target":34962
		},
		{
			"buffer":0,
			"byteLength":1992,
			"byteOffset":551792,
			"target":34963
		}
	],
	"samplers":[
		{
			"magFilter":9729,
			"minFilter":9987
		}
	],
	"buffers":[
		{
			"byteLength":553784,
			"uri":"Untitled.bin"
		}
	]
}
