{
	"asset":{
		"generator":"Khronos glTF Blender I/O v5.0.21",
		"version":"2.0"
	},
	"extensionsUsed":[
		"KHR_materials_clearcoat",
		"KHR_materials_specular"
	],
	"scene":0,
	"scenes":[
		{
			"name":"Scene",
			"nodes":[
				0,
				1,
				2,
				3,
				4,
				5,
				6,
				7,
				8
			]
		}
	],
	"nodes":[
		{
			"mesh":0,
			"name":"Object_10"
		},
		{
			"mesh":1,
			"name":"Object_11"
		},
		{
			"mesh":2,
			"name":"Object_12"
		},
		{
			"mesh":3,
			"name":"Object_13"
		},
		{
			"mesh":4,
			"name":"Object_14"
		},
		{
			"mesh":5,
			"name":"Object_15"
		},
		{
			"mesh":6,
			"name":"Object_6"
		},
		{
			"mesh":7,
			"name":"Object_8"
		},
		{
			"mesh":8,
			"name":"Object_9"
		}
	],
	"materials":[
		{
			"doubleSided":true,
			"name":"Material.016",
			"pbrMetallicRoughness":{
				"baseColorFactor":[
					0.800000011920929,
					0.800000011920929,
					0.800000011920929,
					1
				],
				"metallicFactor":0,
				"roughnessFactor":0.5
			}
		},
		{
			"doubleSided":true,
			"name":"Material.017",
			"pbrMetallicRoughness":{
				"baseColorTexture":{
					"index":0
				},
				"metallicFactor":0,
				"roughnessFactor":0.5
			}
		},
		{
			"doubleSided":true,
			"name":"Material.018",
			"pbrMetallicRoughness":{
				"baseColorFactor":[
					0.800000011920929,
					0.800000011920929,
					0.800000011920929,
					1
				],
				"metallicFactor":0,
				"roughnessFactor":0.5
			}
		},
		{
			"doubleSided":true,
			"extensions":{
				"KHR_materials_clearcoat":{
					"clearcoatFactor":0.25,
					"clearcoatRoughnessFactor":0.44999998807907104
				},
				"KHR_materials_specular":{
					"specularColorFactor":[
						1.7999998331069946,
						1.7999998331069946,
						1.7999998331069946
					]
				}
			},
			"name":"Material.019",
			"pbrMetallicRoughness":{
				"baseColorTexture":{
					"index":1
				},
				"roughnessFactor":0.75
			}
		},
		{
			"doubleSided":true,
			"extensions":{
				"KHR_materials_clearcoat":{
					"clearcoatRoughnessFactor":0.44999998807907104
				},
				"KHR_materials_specular":{
					"specularColorFactor":[
						1.7999998331069946,
						1.7999998331069946,
						1.7999998331069946
					]
				}
			},
			"name":"Material.020",
			"pbrMetallicRoughness":{
				"baseColorTexture":{
					"index":2
				},
				"roughnessFactor":0.75
			}
		},
		{
			"doubleSided":true,
			"extensions":{
				"KHR_materials_specular":{
					"specularColorFactor":[
						1.7999998331069946,
						1.7999998331069946,
						1.7999998331069946
					]
				}
			},
			"name":"Material.021",
			"pbrMetallicRoughness":{
				"baseColorTexture":{
					"index":3
				},
				"roughnessFactor":0.75
			}
		},
		{
			"doubleSided":true,
			"name":"Material.022",
			"pbrMetallicRoughness":{
				"baseColorTexture":{
					"index":4
				},
				"metallicFactor":0,
				"roughnessFactor":0.5
			}
		}
	],
	"meshes":[
		{
			"name":"Object_10.002",
			"primitives":[
				{
					"attributes":{
						"POSITION":0,
						"NORMAL":1,
						"TEXCOORD_0":2
					},
					"indices":3,
					"material":0
				}
			]
		},
		{
			"name":"Object_11.002",
			"primitives":[
				{
					"attributes":{
						"POSITION":4,
						"NORMAL":5,
						"TEXCOORD_0":6
					},
					"indices":7,
					"material":1
				}
			]
		},
		{
			"name":"Object_12.002",
			"primitives":[
				{
					"attributes":{
						"POSITION":8,
						"NORMAL":9,
						"TEXCOORD_0":10
					},
					"indices":11,
					"material":2
				}
			]
		},
		{
			"name":"Object_13.002",
			"primitives":[
				{
					"attributes":{
						"POSITION":12,
						"NORMAL":13,
						"TEXCOORD_0":14
					},
					"indices":15,
					"material":2
				}
			]
		},
		{
			"name":"Object_14.002",
			"primitives":[
				{
					"attributes":{
						"POSITION":16,
						"NORMAL":17,
						"TEXCOORD_0":18
					},
					"indices":19,
					"material":2
				}
			]
		},
		{
			"name":"Object_15.002",
			"primitives":[
				{
					"attributes":{
						"POSITION":20,
						"NORMAL":21,
						"TEXCOORD_0":22
					},
					"indices":23,
					"material":3
				}
			]
		},
		{
			"name":"Object_6.002",
			"primitives":[
				{
					"attributes":{
						"POSITION":24,
						"NORMAL":25,
						"TEXCOORD_0":26
					},
					"indices":27,
					"material":4
				}
			]
		},
		{
			"name":"Object_8.002",
			"primitives":[
				{
					"attributes":{
						"POSITION":28,
						"NORMAL":29,
						"TEXCOORD_0":30
					},
					"indices":31,
					"material":5
				}
			]
		},
		{
			"name":"Object_9.002",
			"primitives":[
				{
					"attributes":{
						"POSITION":32,
						"NORMAL":33,
						"TEXCOORD_0":34
					},
					"indices":35,
					"material":6
				}
			]
		}
	],
	"textures":[
		{
			"sampler":0,
			"source":0
		},
		{
			"sampler":0,
			"source":1
		},
		{
			"sampler":0,
			"source":2
		},
		{
			"sampler":0,
			"source":3
		},
		{
			"sampler":0,
			"source":4
		}
	],
	"images":[
		{
			"mimeType":"image/jpeg",
			"name":"AvatarRightCornea_baseColor",
			"uri":"AvatarRightCornea_baseColor.jpg"
		},
		{
			"mimeType":"image/jpeg",
			"name":"outfit_baseColor",
			"uri":"outfit_baseColor.jpg"
		},
		{
			"mimeType":"image/jpeg",
			"name":"AvatarBody_baseColor",
			"uri":"AvatarBody_baseColor.jpg"
		},
		{
			"mimeType":"image/png",
			"name":"Face_Lady",
			"uri":"Face_Lady.png"
		},
		{
			"mimeType":"image/jpeg",
			"name":"AvatarLeftCornea_baseColor",
			"uri":"AvatarLeftCornea_baseColor.jpg"
		}
	],
	"accessors":[
		{
			"bufferView":0,
			"componentType":5126,
			"count":484,
			"max":[
				-0.16936400532722473,
				4.7515869140625,
				-1.0170913934707642
			],
			"min":[
				-0.44325000047683716,
				4.484999179840088,
				-1.3002313375473022
			],
			"type":"VEC3"
		},
		{
			"bufferView":1,
			"componentType":5126,
			"count":484,
			"type":"VEC3"
		},
		{
			"bufferView":2,
			"componentType":5126,
			"count":484,
			"type":"VEC2"
		},
		{
			"bufferView":3,
			"componentType":5123,
			"count":2373,
			"type":"SCALAR"
		},
		{
			"bufferView":4,
			"componentType":5126,
			"count":457,
			"max":[
				0.39766600728034973,
				4.7927727699279785,
				-1.3961063623428345
			],
			"min":[
				0.12750299274921417,
				4.518665790557861,
				-1.6791203022003174
			],
			"type":"VEC3"
		},
		{
			"bufferView":5,
			"componentType":5126,
			"count":457,
			"type":"VEC3"
		},
		{
			"bufferView":6,
			"componentType":5126,
			"count":457,
			"type":"VEC2"
		},
		{
			"bufferView":7,
			"componentType":5123,
			"count":2490,
			"type":"SCALAR"
		},
		{
			"bufferView":8,
			"componentType":5126,
			"count":481,
			"max":[
				0.39642399549484253,
				4.789834022521973,
				-1.4006643295288086
			],
			"min":[
				0.12869100272655487,
				4.520691871643066,
				-1.6772973537445068
			],
			"type":"VEC3"
		},
		{
			"bufferView":9,
			"componentType":5126,
			"count":481,
			"type":"VEC3"
		},
		{
			"bufferView":10,
			"componentType":5126,
			"count":481,
			"type":"VEC2"
		},
		{
			"bufferView":11,
			"componentType":5123,
			"count":2373,
			"type":"SCALAR"
		},
		{
			"bufferView":12,
			"componentType":5126,
			"count":2525,
			"max":[
				0.6293079853057861,
				4.089878082275391,
				-0.49365028738975525
			],
			"min":[
				-0.22339299321174622,
				3.698754072189331,
				-1.505317211151123
			],
			"type":"VEC3"
		},
		{
			"bufferView":13,
			"componentType":5126,
			"count":2525,
			"type":"VEC3"
		},
		{
			"bufferView":14,
			"componentType":5126,
			"count":2525,
			"type":"VEC2"
		},
		{
			"bufferView":15,
			"componentType":5123,
			"count":10392,
			"type":"SCALAR"
		},
		{
			"bufferView":16,
			"componentType":5126,
			"count":2497,
			"max":[
				0.635657012462616,
				4.223059177398682,
				-0.4864772856235504
			],
			"min":[
				-0.2612780034542084,
				3.855422019958496,
				-1.5549523830413818
			],
			"type":"VEC3"
		},
		{
			"bufferView":17,
			"componentType":5126,
			"count":2497,
			"type":"VEC3"
		},
		{
			"bufferView":18,
			"componentType":5126,
			"count":2497,
			"type":"VEC2"
		},
		{
			"bufferView":19,
			"componentType":5123,
			"count":10962,
			"type":"SCALAR"
		},
		{
			"bufferView":20,
			"componentType":5126,
			"count":17799,
			"max":[
				2.738379955291748,
				3.387465238571167,
				2.768207311630249
			],
			"min":[
				-6.608748912811279,
				-6.265430927276611,
				-2.796877145767212
			],
			"type":"VEC3"
		},
		{
			"bufferView":21,
			"componentType":5126,
			"count":17799,
			"type":"VEC3"
		},
		{
			"bufferView":22,
			"componentType":5126,
			"count":17799,
			"type":"VEC2"
		},
		{
			"bufferView":23,
			"componentType":5123,
			"count":102561,
			"type":"SCALAR"
		},
		{
			"bufferView":24,
			"componentType":5126,
			"count":3279,
			"max":[
				2.507296085357666,
				3.1473569869995117,
				4.020385265350342
			],
			"min":[
				-1.0339950323104858,
				-3.9935293197631836,
				-3.7684638500213623
			],
			"type":"VEC3"
		},
		{
			"bufferView":25,
			"componentType":5126,
			"count":3279,
			"type":"VEC3"
		},
		{
			"bufferView":26,
			"componentType":5126,
			"count":3279,
			"type":"VEC2"
		},
		{
			"bufferView":27,
			"componentType":5123,
			"count":16674,
			"type":"SCALAR"
		},
		{
			"bufferView":28,
			"componentType":5126,
			"count":7445,
			"max":[
				1.9835000038146973,
				6.054568767547607,
				1.4748687744140625
			],
			"min":[
				-0.7064059972763062,
				2.083946943283081,
				-1.7604403495788574
			],
			"type":"VEC3"
		},
		{
			"bufferView":29,
			"componentType":5126,
			"count":7445,
			"type":"VEC3"
		},
		{
			"bufferView":30,
			"componentType":5126,
			"count":7445,
			"type":"VEC2"
		},
		{
			"bufferView":31,
			"componentType":5123,
			"count":43206,
			"type":"SCALAR"
		},
		{
			"bufferView":32,
			"componentType":5126,
			"count":457,
			"max":[
				-0.16742900013923645,
				4.754488945007324,
				-1.0124433040618896
			],
			"min":[
				-0.4446919858455658,
				4.4830780029296875,
				-1.301491379737854
			],
			"type":"VEC3"
		},
		{
			"bufferView":33,
			"componentType":5126,
			"count":457,
			"type":"VEC3"
		},
		{
			"bufferView":34,
			"componentType":5126,
			"count":457,
			"type":"VEC2"
		},
		{
			"bufferView":35,
			"componentType":5123,
			"count":2490,
			"type":"SCALAR"
		}
	],
	"bufferViews":[
		{
			"buffer":0,
			"byteLength":5808,
			"byteOffset":0,
			"target":34962
		},
		{
			"buffer":0,
			"byteLength":5808,
			"byteOffset":5808,
			"target":34962
		},
		{
			"buffer":0,
			"byteLength":3872,
			"byteOffset":11616,
			"target":34962
		},
		{
			"buffer":0,
			"byteLength":4746,
			"byteOffset":15488,
			"target":34963
		},
		{
			"buffer":0,
			"byteLength":5484,
			"byteOffset":20236,
			"target":34962
		},
		{
			"buffer":0,
			"byteLength":5484,
			"byteOffset":25720,
			"target":34962
		},
		{
			"buffer":0,
			"byteLength":3656,
			"byteOffset":31204,
			"target":34962
		},
		{
			"buffer":0,
			"byteLength":4980,
			"byteOffset":34860,
			"target":34963
		},
		{
			"buffer":0,
			"byteLength":5772,
			"byteOffset":39840,
			"target":34962
		},
		{
			"buffer":0,
			"byteLength":5772,
			"byteOffset":45612,
			"target":34962
		},
		{
			"buffer":0,
			"byteLength":3848,
			"byteOffset":51384,
			"target":34962
		},
		{
			"buffer":0,
			"byteLength":4746,
			"byteOffset":55232,
			"target":34963
		},
		{
			"buffer":0,
			"byteLength":30300,
			"byteOffset":59980,
			"target":34962
		},
		{
			"buffer":0,
			"byteLength":30300,
			"byteOffset":90280,
			"target":34962
		},
		{
			"buffer":0,
			"byteLength":20200,
			"byteOffset":120580,
			"target":34962
		},
		{
			"buffer":0,
			"byteLength":20784,
			"byteOffset":140780,
			"target":34963
		},
		{
			"buffer":0,
			"byteLength":29964,
			"byteOffset":161564,
			"target":34962
		},
		{
			"buffer":0,
			"byteLength":29964,
			"byteOffset":191528,
			"target":34962
		},
		{
			"buffer":0,
			"byteLength":19976,
			"byteOffset":221492,
			"target":34962
		},
		{
			"buffer":0,
			"byteLength":21924,
			"byteOffset":241468,
			"target":34963
		},
		{
			"buffer":0,
			"byteLength":213588,
			"byteOffset":263392,
			"target":34962
		},
		{
			"buffer":0,
			"byteLength":213588,
			"byteOffset":476980,
			"target":34962
		},
		{
			"buffer":0,
			"byteLength":142392,
			"byteOffset":690568,
			"target":34962
		},
		{
			"buffer":0,
			"byteLength":205122,
			"byteOffset":832960,
			"target":34963
		},
		{
			"buffer":0,
			"byteLength":39348,
			"byteOffset":1038084,
			"target":34962
		},
		{
			"buffer":0,
			"byteLength":39348,
			"byteOffset":1077432,
			"target":34962
		},
		{
			"buffer":0,
			"byteLength":26232,
			"byteOffset":1116780,
			"target":34962
		},
		{
			"buffer":0,
			"byteLength":33348,
			"byteOffset":1143012,
			"target":34963
		},
		{
			"buffer":0,
			"byteLength":89340,
			"byteOffset":1176360,
			"target":34962
		},
		{
			"buffer":0,
			"byteLength":89340,
			"byteOffset":1265700,
			"target":34962
		},
		{
			"buffer":0,
			"byteLength":59560,
			"byteOffset":1355040,
			"target":34962
		},
		{
			"buffer":0,
			"byteLength":86412,
			"byteOffset":1414600,
			"target":34963
		},
		{
			"buffer":0,
			"byteLength":5484,
			"byteOffset":1501012,
			"target":34962
		},
		{
			"buffer":0,
			"byteLength":5484,
			"byteOffset":1506496,
			"target":34962
		},
		{
			"buffer":0,
			"byteLength":3656,
			"byteOffset":1511980,
			"target":34962
		},
		{
			"buffer":0,
			"byteLength":4980,
			"byteOffset":1515636,
			"target":34963
		}
	],
	"samplers":[
		{
			"magFilter":9729,
			"minFilter":9987
		}
	],
	"buffers":[
		{
			"byteLength":1520616,
			"uri":"Couple_Women.bin"
		}
	]
}
