{
	"asset":{
		"generator":"Khronos glTF Blender I/O v5.0.21",
		"version":"2.0"
	},
	"scene":0,
	"scenes":[
		{
			"name":"Scene",
			"nodes":[
				0,
				1,
				2,
				3,
				4,
				5,
				6,
				7,
				8,
				9
			]
		}
	],
	"nodes":[
		{
			"mesh":0,
			"name":"WhWh_low_WhWh_0"
		},
		{
			"mesh":1,
			"name":"Object_25"
		},
		{
			"mesh":2,
			"name":"Object_21"
		},
		{
			"mesh":3,
			"name":"Object_17"
		},
		{
			"mesh":4,
			"name":"Object_9.005"
		},
		{
			"mesh":5,
			"name":"Object_11"
		},
		{
			"mesh":6,
			"name":"Object_15"
		},
		{
			"mesh":7,
			"name":"Object_7"
		},
		{
			"mesh":8,
			"name":"Object_19"
		},
		{
			"mesh":9,
			"name":"Object_23"
		}
	],
	"materials":[
		{
			"alphaMode":"BLEND",
			"doubleSided":true,
			"name":"WhWh.001",
			"normalTexture":{
				"index":0
			},
			"occlusionTexture":{
				"index":1
			},
			"pbrMetallicRoughness":{
				"baseColorFactor":[
					0.6406744718551636,
					0.6406744718551636,
					0.6406744718551636,
					1
				],
				"baseColorTexture":{
					"index":2
				},
				"metallicRoughnessTexture":{
					"index":1
				}
			}
		},
		{
			"alphaMode":"BLEND",
			"doubleSided":true,
			"name":"WhGlass.001",
			"normalTexture":{
				"index":3
			},
			"occlusionTexture":{
				"index":4
			},
			"pbrMetallicRoughness":{
				"baseColorTexture":{
					"index":5
				},
				"metallicRoughnessTexture":{
					"index":4
				}
			}
		},
		{
			"name":"Wolf3D_Outfit_Top",
			"normalTexture":{
				"index":6
			},
			"pbrMetallicRoughness":{
				"baseColorTexture":{
					"index":7
				},
				"metallicFactor":0,
				"roughnessFactor":0.8590909838676453
			}
		},
		{
			"doubleSided":true,
			"name":"Wolf3D_Outfit_Bottom",
			"normalTexture":{
				"index":8
			},
			"pbrMetallicRoughness":{
				"baseColorTexture":{
					"index":9
				},
				"metallicFactor":0,
				"roughnessFactor":0.5
			}
		},
		{
			"alphaMode":"BLEND",
			"doubleSided":true,
			"name":"Wolf3D_Beard",
			"normalTexture":{
				"index":10
			},
			"pbrMetallicRoughness":{
				"baseColorTexture":{
					"index":11
				},
				"metallicFactor":0,
				"roughnessFactor":0.699999988079071
			}
		},
		{
			"doubleSided":true,
			"name":"Wolf3D_Eye",
			"pbrMetallicRoughness":{
				"baseColorTexture":{
					"index":12
				},
				"metallicFactor":0
			}
		},
		{
			"name":"Wolf3D_Skin",
			"pbrMetallicRoughness":{
				"baseColorTexture":{
					"index":13
				},
				"metallicFactor":0,
				"roughnessFactor":0.699999988079071
			}
		},
		{
			"alphaMode":"BLEND",
			"name":"Wolf3D_Hair",
			"normalTexture":{
				"index":14
			},
			"pbrMetallicRoughness":{
				"baseColorTexture":{
					"index":15
				},
				"metallicFactor":0,
				"roughnessFactor":0.7272729873657227
			}
		},
		{
			"doubleSided":true,
			"name":"Wolf3D_Body",
			"normalTexture":{
				"index":16
			},
			"pbrMetallicRoughness":{
				"baseColorTexture":{
					"index":17
				},
				"metallicFactor":0,
				"roughnessFactor":0.5527859926223755
			}
		},
		{
			"doubleSided":true,
			"name":"Wolf3D_Outfit_Footwear",
			"normalTexture":{
				"index":18
			},
			"pbrMetallicRoughness":{
				"baseColorTexture":{
					"index":19
				},
				"metallicFactor":0,
				"roughnessFactor":0.5
			}
		}
	],
	"meshes":[
		{
			"name":"WhWh_low_WhWh_0.001",
			"primitives":[
				{
					"attributes":{
						"POSITION":0,
						"NORMAL":1,
						"TEXCOORD_0":2,
						"TEXCOORD_1":3,
						"TEXCOORD_2":4,
						"TANGENT":5
					},
					"indices":6,
					"material":0
				},
				{
					"attributes":{
						"POSITION":7,
						"NORMAL":8,
						"TEXCOORD_0":9,
						"TEXCOORD_1":10,
						"TEXCOORD_2":11,
						"TANGENT":12
					},
					"indices":13,
					"material":1
				}
			]
		},
		{
			"name":"Object_9",
			"primitives":[
				{
					"attributes":{
						"POSITION":14,
						"NORMAL":15,
						"TEXCOORD_0":16,
						"TEXCOORD_1":17,
						"TANGENT":18
					},
					"indices":19,
					"material":2
				}
			]
		},
		{
			"name":"Object_7",
			"primitives":[
				{
					"attributes":{
						"POSITION":20,
						"NORMAL":21,
						"TEXCOORD_0":22,
						"TEXCOORD_1":23,
						"TEXCOORD_2":24,
						"TEXCOORD_3":25,
						"TANGENT":26
					},
					"indices":27,
					"material":3
				}
			]
		},
		{
			"name":"mesh_5",
			"primitives":[
				{
					"attributes":{
						"POSITION":28,
						"NORMAL":29,
						"TEXCOORD_0":30,
						"TEXCOORD_1":31,
						"TANGENT":32
					},
					"indices":33,
					"material":4
				}
			]
		},
		{
			"name":"mesh_1",
			"primitives":[
				{
					"attributes":{
						"POSITION":34,
						"NORMAL":35,
						"TEXCOORD_0":36,
						"TANGENT":37
					},
					"indices":38,
					"material":5
				}
			]
		},
		{
			"name":"mesh_2",
			"primitives":[
				{
					"attributes":{
						"POSITION":39,
						"NORMAL":40,
						"TEXCOORD_0":41,
						"TANGENT":42
					},
					"indices":43,
					"material":6
				}
			]
		},
		{
			"name":"Object_4",
			"primitives":[
				{
					"attributes":{
						"POSITION":44,
						"NORMAL":45,
						"TEXCOORD_0":46,
						"TEXCOORD_1":47,
						"TANGENT":48
					},
					"indices":49,
					"material":7
				}
			]
		},
		{
			"name":"mesh_0",
			"primitives":[
				{
					"attributes":{
						"POSITION":50,
						"NORMAL":51,
						"TEXCOORD_0":52,
						"TANGENT":53
					},
					"indices":54,
					"material":5
				}
			]
		},
		{
			"name":"Object_6",
			"primitives":[
				{
					"attributes":{
						"POSITION":55,
						"NORMAL":56,
						"TEXCOORD_0":57,
						"TEXCOORD_1":58,
						"TANGENT":59
					},
					"indices":60,
					"material":8
				}
			]
		},
		{
			"name":"Object_8",
			"primitives":[
				{
					"attributes":{
						"POSITION":61,
						"NORMAL":62,
						"TEXCOORD_0":63,
						"TEXCOORD_1":64,
						"TEXCOORD_2":65,
						"TEXCOORD_3":66,
						"TANGENT":67
					},
					"indices":68,
					"material":9
				}
			]
		}
	],
	"textures":[
		{
			"sampler":0,
			"source":0
		},
		{
			"sampler":0,
			"source":1
		},
		{
			"sampler":0,
			"source":2
		},
		{
			"sampler":0,
			"source":3
		},
		{
			"sampler":0,
			"source":4
		},
		{
			"sampler":0,
			"source":5
		},
		{
			"sampler":0,
			"source":6
		},
		{
			"sampler":0,
			"source":7
		},
		{
			"sampler":0,
			"source":8
		},
		{
			"sampler":0,
			"source":9
		},
		{
			"sampler":0,
			"source":10
		},
		{
			"sampler":0,
			"source":11
		},
		{
			"sampler":0,
			"source":12
		},
		{
			"sampler":0,
			"source":13
		},
		{
			"sampler":0,
			"source":14
		},
		{
			"sampler":0,
			"source":11
		},
		{
			"sampler":0,
			"source":15
		},
		{
			"sampler":0,
			"source":16
		},
		{
			"sampler":0,
			"source":17
		},
		{
			"sampler":0,
			"source":18
		}
	],
	"images":[
		{
			"mimeType":"image/png",
			"name":"WhWh_normal",
			"uri":"WhWh_normal.png"
		},
		{
			"mimeType":"image/png",
			"name":"WhWh_metallicRoughness",
			"uri":"WhWh_metallicRoughness.png"
		},
		{
			"mimeType":"image/png",
			"name":"WhWh_baseColor",
			"uri":"WhWh_baseColor.png"
		},
		{
			"mimeType":"image/png",
			"name":"WhGlass_normal",
			"uri":"WhGlass_normal.png"
		},
		{
			"mimeType":"image/png",
			"name":"WhGlass_metallicRoughness",
			"uri":"WhGlass_metallicRoughness.png"
		},
		{
			"mimeType":"image/png",
			"name":"WhGlass_baseColor",
			"uri":"WhGlass_baseColor.png"
		},
		{
			"mimeType":"image/jpeg",
			"name":"Wolf3D_Outfit_Top_normal",
			"uri":"Wolf3D_Outfit_Top_normal.jpg"
		},
		{
			"mimeType":"image/jpeg",
			"name":"Wolf3D_Outfit_Top_baseColor",
			"uri":"Wolf3D_Outfit_Top_baseColor.jpg"
		},
		{
			"mimeType":"image/jpeg",
			"name":"Wolf3D_Outfit_Bottom_normal",
			"uri":"Wolf3D_Outfit_Bottom_normal.jpg"
		},
		{
			"mimeType":"image/jpeg",
			"name":"Wolf3D_Outfit_Bottom_baseColor",
			"uri":"Wolf3D_Outfit_Bottom_baseColor.jpg"
		},
		{
			"mimeType":"image/jpeg",
			"name":"Wolf3D_Beard_normal",
			"uri":"Wolf3D_Beard_normal.jpg"
		},
		{
			"mimeType":"image/png",
			"name":"Screenshot 2025-12-21 121138",
			"uri":"Screenshot%202025-12-21%20121138.png"
		},
		{
			"mimeType":"image/jpeg",
			"name":"Wolf3D_Eye_baseColor",
			"uri":"Wolf3D_Eye_baseColor.jpg"
		},
		{
			"mimeType":"image/jpeg",
			"name":"Wolf3D_Skin_baseColor",
			"uri":"Wolf3D_Skin_baseColor.jpg"
		},
		{
			"mimeType":"image/jpeg",
			"name":"Wolf3D_Hair_normal",
			"uri":"Wolf3D_Hair_normal.jpg"
		},
		{
			"mimeType":"image/jpeg",
			"name":"Wolf3D_Body_normal",
			"uri":"Wolf3D_Body_normal.jpg"
		},
		{
			"mimeType":"image/jpeg",
			"name":"Wolf3D_Body_baseColor",
			"uri":"Wolf3D_Body_baseColor.jpg"
		},
		{
			"mimeType":"image/jpeg",
			"name":"Wolf3D_Outfit_Footwear_normal",
			"uri":"Wolf3D_Outfit_Footwear_normal.jpg"
		},
		{
			"mimeType":"image/jpeg",
			"name":"Wolf3D_Outfit_Footwear_baseColor",
			"uri":"Wolf3D_Outfit_Footwear_baseColor.jpg"
		}
	],
	"accessors":[
		{
			"bufferView":0,
			"componentType":5126,
			"count":438,
			"max":[
				-144.41253662109375,
				23.17728042602539,
				-74.87460327148438
			],
			"min":[
				-145.2701873779297,
				22.607006072998047,
				-75.7302017211914
			],
			"type":"VEC3"
		},
		{
			"bufferView":1,
			"componentType":5126,
			"count":438,
			"type":"VEC3"
		},
		{
			"bufferView":2,
			"componentType":5126,
			"count":438,
			"type":"VEC2"
		},
		{
			"bufferView":3,
			"componentType":5126,
			"count":438,
			"type":"VEC2"
		},
		{
			"bufferView":4,
			"componentType":5126,
			"count":438,
			"type":"VEC2"
		},
		{
			"bufferView":5,
			"componentType":5126,
			"count":438,
			"type":"VEC4"
		},
		{
			"bufferView":6,
			"componentType":5123,
			"count":1908,
			"type":"SCALAR"
		},
		{
			"bufferView":7,
			"componentType":5126,
			"count":893,
			"max":[
				-144.27926635742188,
				23.565654754638672,
				-74.79312133789062
			],
			"min":[
				-145.3542938232422,
				22.493019104003906,
				-75.85663604736328
			],
			"type":"VEC3"
		},
		{
			"bufferView":8,
			"componentType":5126,
			"count":893,
			"type":"VEC3"
		},
		{
			"bufferView":9,
			"componentType":5126,
			"count":893,
			"type":"VEC2"
		},
		{
			"bufferView":10,
			"componentType":5126,
			"count":893,
			"type":"VEC2"
		},
		{
			"bufferView":11,
			"componentType":5126,
			"count":893,
			"type":"VEC2"
		},
		{
			"bufferView":12,
			"componentType":5126,
			"count":893,
			"type":"VEC4"
		},
		{
			"bufferView":13,
			"componentType":5123,
			"count":2562,
			"type":"SCALAR"
		},
		{
			"bufferView":14,
			"componentType":5126,
			"count":2570,
			"max":[
				-146.04098510742188,
				24.016324996948242,
				-72.94314575195312
			],
			"min":[
				-151.41848754882812,
				18.976409912109375,
				-77.7294921875
			],
			"type":"VEC3"
		},
		{
			"bufferView":15,
			"componentType":5126,
			"count":2570,
			"type":"VEC3"
		},
		{
			"bufferView":16,
			"componentType":5126,
			"count":2570,
			"type":"VEC2"
		},
		{
			"bufferView":17,
			"componentType":5126,
			"count":2570,
			"type":"VEC2"
		},
		{
			"bufferView":18,
			"componentType":5126,
			"count":2570,
			"type":"VEC4"
		},
		{
			"bufferView":19,
			"componentType":5123,
			"count":13761,
			"type":"SCALAR"
		},
		{
			"bufferView":20,
			"componentType":5126,
			"count":2403,
			"max":[
				-145.10623168945312,
				19.8742618560791,
				-71.83850860595703
			],
			"min":[
				-150.77645874023438,
				13.66843318939209,
				-77.13358306884766
			],
			"type":"VEC3"
		},
		{
			"bufferView":21,
			"componentType":5126,
			"count":2403,
			"type":"VEC3"
		},
		{
			"bufferView":22,
			"componentType":5126,
			"count":2403,
			"type":"VEC2"
		},
		{
			"bufferView":23,
			"componentType":5126,
			"count":2403,
			"type":"VEC2"
		},
		{
			"bufferView":24,
			"componentType":5126,
			"count":2403,
			"type":"VEC2"
		},
		{
			"bufferView":25,
			"componentType":5126,
			"count":2403,
			"type":"VEC2"
		},
		{
			"bufferView":26,
			"componentType":5126,
			"count":2403,
			"type":"VEC4"
		},
		{
			"bufferView":27,
			"componentType":5123,
			"count":12129,
			"type":"SCALAR"
		},
		{
			"bufferView":28,
			"componentType":5126,
			"count":262,
			"max":[
				-148.4468994140625,
				25.080183029174805,
				-75.38602447509766
			],
			"min":[
				-149.4090576171875,
				23.60060691833496,
				-76.71328735351562
			],
			"type":"VEC3"
		},
		{
			"bufferView":29,
			"componentType":5126,
			"count":262,
			"type":"VEC3"
		},
		{
			"bufferView":30,
			"componentType":5126,
			"count":262,
			"type":"VEC2"
		},
		{
			"bufferView":31,
			"componentType":5126,
			"count":262,
			"type":"VEC2"
		},
		{
			"bufferView":32,
			"componentType":5126,
			"count":262,
			"type":"VEC4"
		},
		{
			"bufferView":33,
			"componentType":5123,
			"count":1320,
			"type":"SCALAR"
		},
		{
			"bufferView":34,
			"componentType":5126,
			"count":152,
			"max":[
				-148.65505981445312,
				24.89903450012207,
				-75.55169677734375
			],
			"min":[
				-148.8767852783203,
				24.574689865112305,
				-75.8735580444336
			],
			"type":"VEC3"
		},
		{
			"bufferView":35,
			"componentType":5126,
			"count":152,
			"type":"VEC3"
		},
		{
			"bufferView":36,
			"componentType":5126,
			"count":152,
			"type":"VEC2"
		},
		{
			"bufferView":37,
			"componentType":5126,
			"count":152,
			"type":"VEC4"
		},
		{
			"bufferView":38,
			"componentType":5123,
			"count":618,
			"type":"SCALAR"
		},
		{
			"bufferView":39,
			"componentType":5126,
			"count":2286,
			"max":[
				-148.3528594970703,
				25.73381996154785,
				-75.41492462158203
			],
			"min":[
				-150.6066436767578,
				23.162906646728516,
				-76.9312515258789
			],
			"type":"VEC3"
		},
		{
			"bufferView":40,
			"componentType":5126,
			"count":2286,
			"type":"VEC3"
		},
		{
			"bufferView":41,
			"componentType":5126,
			"count":2286,
			"type":"VEC2"
		},
		{
			"bufferView":42,
			"componentType":5126,
			"count":2286,
			"type":"VEC4"
		},
		{
			"bufferView":43,
			"componentType":5123,
			"count":12282,
			"type":"SCALAR"
		},
		{
			"bufferView":44,
			"componentType":5126,
			"count":297,
			"max":[
				-148.31256103515625,
				25.895763397216797,
				-75.43732452392578
			],
			"min":[
				-150.10374450683594,
				24.34795379638672,
				-76.9654312133789
			],
			"type":"VEC3"
		},
		{
			"bufferView":45,
			"componentType":5126,
			"count":297,
			"type":"VEC3"
		},
		{
			"bufferView":46,
			"componentType":5126,
			"count":297,
			"type":"VEC2"
		},
		{
			"bufferView":47,
			"componentType":5126,
			"count":297,
			"type":"VEC2"
		},
		{
			"bufferView":48,
			"componentType":5126,
			"count":297,
			"type":"VEC4"
		},
		{
			"bufferView":49,
			"componentType":5123,
			"count":1617,
			"type":"SCALAR"
		},
		{
			"bufferView":50,
			"componentType":5126,
			"count":152,
			"max":[
				-148.5039825439453,
				24.795272827148438,
				-76.06453704833984
			],
			"min":[
				-148.7227020263672,
				24.475278854370117,
				-76.38385772705078
			],
			"type":"VEC3"
		},
		{
			"bufferView":51,
			"componentType":5126,
			"count":152,
			"type":"VEC3"
		},
		{
			"bufferView":52,
			"componentType":5126,
			"count":152,
			"type":"VEC2"
		},
		{
			"bufferView":53,
			"componentType":5126,
			"count":152,
			"type":"VEC4"
		},
		{
			"bufferView":54,
			"componentType":5123,
			"count":618,
			"type":"SCALAR"
		},
		{
			"bufferView":55,
			"componentType":5126,
			"count":1022,
			"max":[
				-144.19459533691406,
				23.46182632446289,
				-71.31970977783203
			],
			"min":[
				-150.2761688232422,
				18.853397369384766,
				-76.7587661743164
			],
			"type":"VEC3"
		},
		{
			"bufferView":56,
			"componentType":5126,
			"count":1022,
			"type":"VEC3"
		},
		{
			"bufferView":57,
			"componentType":5126,
			"count":1022,
			"type":"VEC2"
		},
		{
			"bufferView":58,
			"componentType":5126,
			"count":1022,
			"type":"VEC2"
		},
		{
			"bufferView":59,
			"componentType":5126,
			"count":1022,
			"type":"VEC4"
		},
		{
			"bufferView":60,
			"componentType":5123,
			"count":4878,
			"type":"SCALAR"
		},
		{
			"bufferView":61,
			"componentType":5126,
			"count":973,
			"max":[
				-143.86297607421875,
				18.78948974609375,
				-71.70582580566406
			],
			"min":[
				-146.46934509277344,
				12.886911392211914,
				-75.59136199951172
			],
			"type":"VEC3"
		},
		{
			"bufferView":62,
			"componentType":5126,
			"count":973,
			"type":"VEC3"
		},
		{
			"bufferView":63,
			"componentType":5126,
			"count":973,
			"type":"VEC2"
		},
		{
			"bufferView":64,
			"componentType":5126,
			"count":973,
			"type":"VEC2"
		},
		{
			"bufferView":65,
			"componentType":5126,
			"count":973,
			"type":"VEC2"
		},
		{
			"bufferView":66,
			"componentType":5126,
			"count":973,
			"type":"VEC2"
		},
		{
			"bufferView":67,
			"componentType":5126,
			"count":973,
			"type":"VEC4"
		},
		{
			"bufferView":68,
			"componentType":5123,
			"count":4650,
			"type":"SCALAR"
		}
	],
	"bufferViews":[
		{
			"buffer":0,
			"byteLength":5256,
			"byteOffset":0,
			"target":34962
		},
		{
			"buffer":0,
			"byteLength":5256,
			"byteOffset":5256,
			"target":34962
		},
		{
			"buffer":0,
			"byteLength":3504,
			"byteOffset":10512,
			"target":34962
		},
		{
			"buffer":0,
			"byteLength":3504,
			"byteOffset":14016,
			"target":34962
		},
		{
			"buffer":0,
			"byteLength":3504,
			"byteOffset":17520,
			"target":34962
		},
		{
			"buffer":0,
			"byteLength":7008,
			"byteOffset":21024,
			"target":34962
		},
		{
			"buffer":0,
			"byteLength":3816,
			"byteOffset":28032,
			"target":34963
		},
		{
			"buffer":0,
			"byteLength":10716,
			"byteOffset":31848,
			"target":34962
		},
		{
			"buffer":0,
			"byteLength":10716,
			"byteOffset":42564,
			"target":34962
		},
		{
			"buffer":0,
			"byteLength":7144,
			"byteOffset":53280,
			"target":34962
		},
		{
			"buffer":0,
			"byteLength":7144,
			"byteOffset":60424,
			"target":34962
		},
		{
			"buffer":0,
			"byteLength":7144,
			"byteOffset":67568,
			"target":34962
		},
		{
			"buffer":0,
			"byteLength":14288,
			"byteOffset":74712,
			"target":34962
		},
		{
			"buffer":0,
			"byteLength":5124,
			"byteOffset":89000,
			"target":34963
		},
		{
			"buffer":0,
			"byteLength":30840,
			"byteOffset":94124,
			"target":34962
		},
		{
			"buffer":0,
			"byteLength":30840,
			"byteOffset":124964,
			"target":34962
		},
		{
			"buffer":0,
			"byteLength":20560,
			"byteOffset":155804,
			"target":34962
		},
		{
			"buffer":0,
			"byteLength":20560,
			"byteOffset":176364,
			"target":34962
		},
		{
			"buffer":0,
			"byteLength":41120,
			"byteOffset":196924,
			"target":34962
		},
		{
			"buffer":0,
			"byteLength":27522,
			"byteOffset":238044,
			"target":34963
		},
		{
			"buffer":0,
			"byteLength":28836,
			"byteOffset":265568,
			"target":34962
		},
		{
			"buffer":0,
			"byteLength":28836,
			"byteOffset":294404,
			"target":34962
		},
		{
			"buffer":0,
			"byteLength":19224,
			"byteOffset":323240,
			"target":34962
		},
		{
			"buffer":0,
			"byteLength":19224,
			"byteOffset":342464,
			"target":34962
		},
		{
			"buffer":0,
			"byteLength":19224,
			"byteOffset":361688,
			"target":34962
		},
		{
			"buffer":0,
			"byteLength":19224,
			"byteOffset":380912,
			"target":34962
		},
		{
			"buffer":0,
			"byteLength":38448,
			"byteOffset":400136,
			"target":34962
		},
		{
			"buffer":0,
			"byteLength":24258,
			"byteOffset":438584,
			"target":34963
		},
		{
			"buffer":0,
			"byteLength":3144,
			"byteOffset":462844,
			"target":34962
		},
		{
			"buffer":0,
			"byteLength":3144,
			"byteOffset":465988,
			"target":34962
		},
		{
			"buffer":0,
			"byteLength":2096,
			"byteOffset":469132,
			"target":34962
		},
		{
			"buffer":0,
			"byteLength":2096,
			"byteOffset":471228,
			"target":34962
		},
		{
			"buffer":0,
			"byteLength":4192,
			"byteOffset":473324,
			"target":34962
		},
		{
			"buffer":0,
			"byteLength":2640,
			"byteOffset":477516,
			"target":34963
		},
		{
			"buffer":0,
			"byteLength":1824,
			"byteOffset":480156,
			"target":34962
		},
		{
			"buffer":0,
			"byteLength":1824,
			"byteOffset":481980,
			"target":34962
		},
		{
			"buffer":0,
			"byteLength":1216,
			"byteOffset":483804,
			"target":34962
		},
		{
			"buffer":0,
			"byteLength":2432,
			"byteOffset":485020,
			"target":34962
		},
		{
			"buffer":0,
			"byteLength":1236,
			"byteOffset":487452,
			"target":34963
		},
		{
			"buffer":0,
			"byteLength":27432,
			"byteOffset":488688,
			"target":34962
		},
		{
			"buffer":0,
			"byteLength":27432,
			"byteOffset":516120,
			"target":34962
		},
		{
			"buffer":0,
			"byteLength":18288,
			"byteOffset":543552,
			"target":34962
		},
		{
			"buffer":0,
			"byteLength":36576,
			"byteOffset":561840,
			"target":34962
		},
		{
			"buffer":0,
			"byteLength":24564,
			"byteOffset":598416,
			"target":34963
		},
		{
			"buffer":0,
			"byteLength":3564,
			"byteOffset":622980,
			"target":34962
		},
		{
			"buffer":0,
			"byteLength":3564,
			"byteOffset":626544,
			"target":34962
		},
		{
			"buffer":0,
			"byteLength":2376,
			"byteOffset":630108,
			"target":34962
		},
		{
			"buffer":0,
			"byteLength":2376,
			"byteOffset":632484,
			"target":34962
		},
		{
			"buffer":0,
			"byteLength":4752,
			"byteOffset":634860,
			"target":34962
		},
		{
			"buffer":0,
			"byteLength":3234,
			"byteOffset":639612,
			"target":34963
		},
		{
			"buffer":0,
			"byteLength":1824,
			"byteOffset":642848,
			"target":34962
		},
		{
			"buffer":0,
			"byteLength":1824,
			"byteOffset":644672,
			"target":34962
		},
		{
			"buffer":0,
			"byteLength":1216,
			"byteOffset":646496,
			"target":34962
		},
		{
			"buffer":0,
			"byteLength":2432,
			"byteOffset":647712,
			"target":34962
		},
		{
			"buffer":0,
			"byteLength":1236,
			"byteOffset":650144,
			"target":34963
		},
		{
			"buffer":0,
			"byteLength":12264,
			"byteOffset":651380,
			"target":34962
		},
		{
			"buffer":0,
			"byteLength":12264,
			"byteOffset":663644,
			"target":34962
		},
		{
			"buffer":0,
			"byteLength":8176,
			"byteOffset":675908,
			"target":34962
		},
		{
			"buffer":0,
			"byteLength":8176,
			"byteOffset":684084,
			"target":34962
		},
		{
			"buffer":0,
			"byteLength":16352,
			"byteOffset":692260,
			"target":34962
		},
		{
			"buffer":0,
			"byteLength":9756,
			"byteOffset":708612,
			"target":34963
		},
		{
			"buffer":0,
			"byteLength":11676,
			"byteOffset":718368,
			"target":34962
		},
		{
			"buffer":0,
			"byteLength":11676,
			"byteOffset":730044,
			"target":34962
		},
		{
			"buffer":0,
			"byteLength":7784,
			"byteOffset":741720,
			"target":34962
		},
		{
			"buffer":0,
			"byteLength":7784,
			"byteOffset":749504,
			"target":34962
		},
		{
			"buffer":0,
			"byteLength":7784,
			"byteOffset":757288,
			"target":34962
		},
		{
			"buffer":0,
			"byteLength":7784,
			"byteOffset":765072,
			"target":34962
		},
		{
			"buffer":0,
			"byteLength":15568,
			"byteOffset":772856,
			"target":34962
		},
		{
			"buffer":0,
			"byteLength":9300,
			"byteOffset":788424,
			"target":34963
		}
	],
	"samplers":[
		{
			"magFilter":9729,
			"minFilter":9987
		}
	],
	"buffers":[
		{
			"byteLength":797724,
			"uri":"ManDrinking.bin"
		}
	]
}
