{
	"asset":{
		"generator":"Khronos glTF Blender I/O v5.0.21",
		"version":"2.0"
	},
	"scene":0,
	"scenes":[
		{
			"name":"Scene",
			"nodes":[
				0
			]
		}
	],
	"nodes":[
		{
			"mesh":0,
			"name":"Text"
		}
	],
	"materials":[
		{
			"doubleSided":true,
			"name":"Material.001",
			"pbrMetallicRoughness":{
				"baseColorFactor":[
					0.9300949573516846,
					0.5271056294441223,
					0.0012138064485043287,
					1
				],
				"metallicFactor":0,
				"roughnessFactor":0.5
			}
		}
	],
	"meshes":[
		{
			"name":"Text",
			"primitives":[
				{
					"attributes":{
						"POSITION":0,
						"NORMAL":1,
						"TEXCOORD_0":2
					},
					"indices":3,
					"material":0
				}
			]
		}
	],
	"accessors":[
		{
			"bufferView":0,
			"componentType":5126,
			"count":26762,
			"max":[
				5.378000259399414,
				0.04999999701976776,
				-0.02493937686085701
			],
			"min":[
				-5.381628036499023,
				-0.04999999701976776,
				-1.8619344234466553
			],
			"type":"VEC3"
		},
		{
			"bufferView":1,
			"componentType":5126,
			"count":26762,
			"type":"VEC3"
		},
		{
			"bufferView":2,
			"componentType":5126,
			"count":26762,
			"type":"VEC2"
		},
		{
			"bufferView":3,
			"componentType":5123,
			"count":79716,
			"type":"SCALAR"
		}
	],
	"bufferViews":[
		{
			"buffer":0,
			"byteLength":321144,
			"byteOffset":0,
			"target":34962
		},
		{
			"buffer":0,
			"byteLength":321144,
			"byteOffset":321144,
			"target":34962
		},
		{
			"buffer":0,
			"byteLength":214096,
			"byteOffset":642288,
			"target":34962
		},
		{
			"buffer":0,
			"byteLength":159432,
			"byteOffset":856384,
			"target":34963
		}
	],
	"buffers":[
		{
			"byteLength":1015816,
			"uri":"developedBy.bin"
		}
	]
}
