{
	"asset":{
		"generator":"Khronos glTF Blender I/O v5.0.21",
		"version":"2.0"
	},
	"scene":0,
	"scenes":[
		{
			"name":"Scene",
			"nodes":[
				0
			]
		}
	],
	"nodes":[
		{
			"mesh":0,
			"name":"Text",
			"rotation":[
				0.7132388353347778,
				0,
				0,
				0.7009211778640747
			],
			"translation":[
				0,
				0.06538105010986328,
				0.29380297660827637
			]
		}
	],
	"materials":[
		{
			"doubleSided":true,
			"name":"Material.001",
			"pbrMetallicRoughness":{
				"baseColorFactor":[
					0.9301111102104187,
					0.5271152257919312,
					0.0012141079641878605,
					1
				],
				"metallicFactor":0,
				"roughnessFactor":0.5
			}
		}
	],
	"meshes":[
		{
			"name":"Text",
			"primitives":[
				{
					"attributes":{
						"POSITION":0,
						"NORMAL":1,
						"TEXCOORD_0":2
					},
					"indices":3,
					"material":0
				}
			]
		}
	],
	"accessors":[
		{
			"bufferView":0,
			"componentType":5126,
			"count":97144,
			"max":[
				7.096441268920898,
				0.06999999284744263,
				-0.0007859766483306885
			],
			"min":[
				-7.096327781677246,
				-0.06999999284744263,
				-4.866692543029785
			],
			"type":"VEC3"
		},
		{
			"bufferView":1,
			"componentType":5126,
			"count":97144,
			"type":"VEC3"
		},
		{
			"bufferView":2,
			"componentType":5126,
			"count":97144,
			"type":"VEC2"
		},
		{
			"bufferView":3,
			"componentType":5125,
			"count":288768,
			"type":"SCALAR"
		}
	],
	"bufferViews":[
		{
			"buffer":0,
			"byteLength":1165728,
			"byteOffset":0,
			"target":34962
		},
		{
			"buffer":0,
			"byteLength":1165728,
			"byteOffset":1165728,
			"target":34962
		},
		{
			"buffer":0,
			"byteLength":777152,
			"byteOffset":2331456,
			"target":34962
		},
		{
			"buffer":0,
			"byteLength":1155072,
			"byteOffset":3108608,
			"target":34963
		}
	],
	"buffers":[
		{
			"byteLength":4263680,
			"uri":"technology.bin"
		}
	]
}
