{
	"asset":{
		"generator":"Khronos glTF Blender I/O v3.6.27",
		"version":"2.0"
	},
	"scene":0,
	"scenes":[
		{
			"name":"Scene",
			"nodes":[
				0
			]
		}
	],
	"nodes":[
		{
			"mesh":0,
			"name":"Plane"
		}
	],
	"materials":[
		{
			"doubleSided":true,
			"name":"Material.003",
			"pbrMetallicRoughness":{
				"baseColorFactor":[
					0.8000000715255737,
					0.437614768743515,
					0,
					1
				],
				"metallicFactor":0,
				"roughnessFactor":0.3999999761581421
			}
		}
	],
	"meshes":[
		{
			"name":"Plane",
			"primitives":[
				{
					"attributes":{
						"POSITION":0,
						"NORMAL":1,
						"TEXCOORD_0":2
					},
					"indices":3,
					"material":0
				}
			]
		}
	],
	"accessors":[
		{
			"bufferView":0,
			"componentType":5126,
			"count":100298,
			"max":[
				2.557565212249756,
				3.030845880508423,
				0.27734026312828064
			],
			"min":[
				-2.7929251194000244,
				-3.3203091621398926,
				0.06071382388472557
			],
			"type":"VEC3"
		},
		{
			"bufferView":1,
			"componentType":5126,
			"count":100298,
			"type":"VEC3"
		},
		{
			"bufferView":2,
			"componentType":5126,
			"count":100298,
			"type":"VEC2"
		},
		{
			"bufferView":3,
			"componentType":5125,
			"count":459702,
			"type":"SCALAR"
		}
	],
	"bufferViews":[
		{
			"buffer":0,
			"byteLength":1203576,
			"byteOffset":0,
			"target":34962
		},
		{
			"buffer":0,
			"byteLength":1203576,
			"byteOffset":1203576,
			"target":34962
		},
		{
			"buffer":0,
			"byteLength":802384,
			"byteOffset":2407152,
			"target":34962
		},
		{
			"buffer":0,
			"byteLength":1838808,
			"byteOffset":3209536,
			"target":34963
		}
	],
	"buffers":[
		{
			"byteLength":5048344,
			"uri":"TextureLogo.bin"
		}
	]
}
