{
	"asset":{
		"generator":"Khronos glTF Blender I/O v5.0.21",
		"version":"2.0"
	},
	"extensionsUsed":[
		"KHR_materials_specular"
	],
	"scene":0,
	"scenes":[
		{
			"name":"Scene",
			"nodes":[
				0,
				1,
				2,
				3,
				4,
				5,
				6,
				7,
				8,
				9
			]
		}
	],
	"nodes":[
		{
			"mesh":0,
			"name":"EyeLeft"
		},
		{
			"mesh":1,
			"name":"EyeRight"
		},
		{
			"mesh":2,
			"name":"Wolf3D_Beard"
		},
		{
			"mesh":3,
			"name":"Wolf3D_Body"
		},
		{
			"mesh":4,
			"name":"Wolf3D_Glasses"
		},
		{
			"mesh":5,
			"name":"Wolf3D_Hair"
		},
		{
			"mesh":6,
			"name":"Wolf3D_Head"
		},
		{
			"mesh":7,
			"name":"Wolf3D_Outfit_Bottom"
		},
		{
			"mesh":8,
			"name":"Wolf3D_Outfit_Top"
		},
		{
			"mesh":9,
			"name":"Wolf3D_Teeth"
		}
	],
	"materials":[
		{
			"doubleSided":true,
			"name":"Material.023",
			"pbrMetallicRoughness":{
				"baseColorTexture":{
					"index":0
				},
				"metallicFactor":0,
				"roughnessFactor":0.5
			}
		},
		{
			"doubleSided":true,
			"name":"Material.024",
			"pbrMetallicRoughness":{
				"baseColorTexture":{
					"index":1
				},
				"metallicFactor":0,
				"roughnessFactor":0.5
			}
		},
		{
			"doubleSided":true,
			"name":"Material.025",
			"pbrMetallicRoughness":{
				"baseColorFactor":[
					0.21402600407600403,
					0.21403299272060394,
					0.2140370011329651,
					1
				],
				"metallicFactor":0,
				"roughnessFactor":0.5
			}
		},
		{
			"doubleSided":true,
			"name":"Material.026",
			"pbrMetallicRoughness":{
				"baseColorTexture":{
					"index":2
				},
				"metallicFactor":0.75,
				"roughnessFactor":0.5
			}
		},
		{
			"doubleSided":true,
			"name":"Material.027",
			"pbrMetallicRoughness":{
				"baseColorTexture":{
					"index":3
				},
				"metallicFactor":0,
				"roughnessFactor":0.5
			}
		},
		{
			"doubleSided":true,
			"name":"Material.028",
			"pbrMetallicRoughness":{
				"baseColorFactor":[
					0.214028999209404,
					0.21403299272060394,
					0.2140370011329651,
					1
				],
				"metallicFactor":0,
				"roughnessFactor":0.20000000298023224
			}
		},
		{
			"doubleSided":true,
			"name":"Material.029",
			"pbrMetallicRoughness":{
				"baseColorTexture":{
					"index":4
				},
				"metallicFactor":0.5,
				"roughnessFactor":0.75
			}
		},
		{
			"doubleSided":true,
			"name":"Material.030",
			"pbrMetallicRoughness":{
				"baseColorTexture":{
					"index":5
				},
				"metallicFactor":0,
				"roughnessFactor":0.5
			}
		},
		{
			"doubleSided":true,
			"extensions":{
				"KHR_materials_specular":{
					"specularColorFactor":[
						1.7999998331069946,
						1.7999998331069946,
						1.7999998331069946
					]
				}
			},
			"name":"Material.031",
			"pbrMetallicRoughness":{
				"baseColorTexture":{
					"index":6
				},
				"roughnessFactor":0.75
			}
		}
	],
	"meshes":[
		{
			"name":"EyeLeft",
			"primitives":[
				{
					"attributes":{
						"POSITION":0,
						"NORMAL":1,
						"TEXCOORD_0":2
					},
					"indices":3,
					"material":0
				}
			]
		},
		{
			"name":"EyeRight",
			"primitives":[
				{
					"attributes":{
						"POSITION":4,
						"NORMAL":5,
						"TEXCOORD_0":6
					},
					"indices":7,
					"material":1
				}
			]
		},
		{
			"name":"Wolf3D_Beard",
			"primitives":[
				{
					"attributes":{
						"POSITION":8,
						"NORMAL":9,
						"TEXCOORD_0":10
					},
					"indices":11,
					"material":2
				}
			]
		},
		{
			"name":"Wolf3D_Body",
			"primitives":[
				{
					"attributes":{
						"POSITION":12,
						"NORMAL":13,
						"TEXCOORD_0":14
					},
					"indices":15,
					"material":3
				}
			]
		},
		{
			"name":"Wolf3D_Glasses",
			"primitives":[
				{
					"attributes":{
						"POSITION":16,
						"NORMAL":17,
						"TEXCOORD_0":18
					},
					"indices":19,
					"material":4
				}
			]
		},
		{
			"name":"Wolf3D_Hair",
			"primitives":[
				{
					"attributes":{
						"POSITION":20,
						"NORMAL":21,
						"TEXCOORD_0":22
					},
					"indices":23,
					"material":5
				}
			]
		},
		{
			"name":"Wolf3D_Head",
			"primitives":[
				{
					"attributes":{
						"POSITION":24,
						"NORMAL":25,
						"TEXCOORD_0":26
					},
					"indices":27,
					"material":6
				}
			]
		},
		{
			"name":"Wolf3D_Outfit_Bottom",
			"primitives":[
				{
					"attributes":{
						"POSITION":28,
						"NORMAL":29,
						"TEXCOORD_0":30
					},
					"indices":31,
					"material":7
				}
			]
		},
		{
			"name":"Wolf3D_Outfit_Top",
			"primitives":[
				{
					"attributes":{
						"POSITION":32,
						"NORMAL":33,
						"TEXCOORD_0":34
					},
					"indices":35,
					"material":8
				}
			]
		},
		{
			"name":"Wolf3D_Teeth",
			"primitives":[
				{
					"attributes":{
						"POSITION":36,
						"NORMAL":37,
						"TEXCOORD_0":38
					},
					"indices":39,
					"material":1
				}
			]
		}
	],
	"textures":[
		{
			"sampler":0,
			"source":0
		},
		{
			"sampler":0,
			"source":0
		},
		{
			"sampler":0,
			"source":1
		},
		{
			"sampler":0,
			"source":2
		},
		{
			"sampler":0,
			"source":3
		},
		{
			"sampler":0,
			"source":4
		},
		{
			"sampler":0,
			"source":5
		}
	],
	"images":[
		{
			"mimeType":"image/jpeg",
			"name":"baseColor",
			"uri":"baseColor.jpg"
		},
		{
			"mimeType":"image/jpeg",
			"name":"baseColor_003",
			"uri":"baseColor_003.jpg"
		},
		{
			"mimeType":"image/png",
			"name":"glasses-02-D",
			"uri":"glasses-02-D.png"
		},
		{
			"mimeType":"image/jpeg",
			"name":"baseColor_001",
			"uri":"baseColor_001.jpg"
		},
		{
			"mimeType":"image/jpeg",
			"name":"outfit-classic-04-v2-m-bottom-D",
			"uri":"outfit-classic-04-v2-m-bottom-D.jpg"
		},
		{
			"mimeType":"image/jpeg",
			"name":"outfit-classic-04-v2-m-top-D",
			"uri":"outfit-classic-04-v2-m-top-D.jpg"
		}
	],
	"accessors":[
		{
			"bufferView":0,
			"componentType":5126,
			"count":120,
			"max":[
				0.81215900182724,
				12.566398620605469,
				2.271833896636963
			],
			"min":[
				0.3767620027065277,
				12.095074653625488,
				1.9082999229431152
			],
			"type":"VEC3"
		},
		{
			"bufferView":1,
			"componentType":5126,
			"count":120,
			"type":"VEC3"
		},
		{
			"bufferView":2,
			"componentType":5126,
			"count":120,
			"type":"VEC2"
		},
		{
			"bufferView":3,
			"componentType":5123,
			"count":618,
			"type":"SCALAR"
		},
		{
			"bufferView":4,
			"componentType":5126,
			"count":120,
			"max":[
				0.13690799474716187,
				12.532344818115234,
				1.840938925743103
			],
			"min":[
				-0.30135199427604675,
				12.059020042419434,
				1.4764797687530518
			],
			"type":"VEC3"
		},
		{
			"bufferView":5,
			"componentType":5126,
			"count":120,
			"type":"VEC3"
		},
		{
			"bufferView":6,
			"componentType":5126,
			"count":120,
			"type":"VEC2"
		},
		{
			"bufferView":7,
			"componentType":5123,
			"count":618,
			"type":"SCALAR"
		},
		{
			"bufferView":8,
			"componentType":5126,
			"count":390,
			"max":[
				1.571789026260376,
				12.544629096984863,
				2.283052921295166
			],
			"min":[
				-0.27512699365615845,
				10.440164566040039,
				0.5814946293830872
			],
			"type":"VEC3"
		},
		{
			"bufferView":9,
			"componentType":5126,
			"count":390,
			"type":"VEC3"
		},
		{
			"bufferView":10,
			"componentType":5126,
			"count":390,
			"type":"VEC2"
		},
		{
			"bufferView":11,
			"componentType":5123,
			"count":1617,
			"type":"SCALAR"
		},
		{
			"bufferView":12,
			"componentType":5126,
			"count":902,
			"max":[
				3.0481228828430176,
				4.181149005889893,
				4.695641994476318
			],
			"min":[
				0.6971049904823303,
				2.266629457473755,
				-4.620436191558838
			],
			"type":"VEC3"
		},
		{
			"bufferView":13,
			"componentType":5126,
			"count":902,
			"type":"VEC3"
		},
		{
			"bufferView":14,
			"componentType":5126,
			"count":902,
			"type":"VEC2"
		},
		{
			"bufferView":15,
			"componentType":5123,
			"count":4230,
			"type":"SCALAR"
		},
		{
			"bufferView":16,
			"componentType":5126,
			"count":614,
			"max":[
				1.7496349811553955,
				12.551132202148438,
				2.594758987426758
			],
			"min":[
				-0.6670849919319153,
				11.897171974182129,
				0.290934681892395
			],
			"type":"VEC3"
		},
		{
			"bufferView":17,
			"componentType":5126,
			"count":614,
			"type":"VEC3"
		},
		{
			"bufferView":18,
			"componentType":5126,
			"count":614,
			"type":"VEC2"
		},
		{
			"bufferView":19,
			"componentType":5123,
			"count":1860,
			"type":"SCALAR"
		},
		{
			"bufferView":20,
			"componentType":5126,
			"count":408,
			"max":[
				1.892914056777954,
				13.01672077178955,
				2.0400569438934326
			],
			"min":[
				-0.35687899589538574,
				11.660628318786621,
				-0.15836232900619507
			],
			"type":"VEC3"
		},
		{
			"bufferView":21,
			"componentType":5126,
			"count":408,
			"type":"VEC3"
		},
		{
			"bufferView":22,
			"componentType":5126,
			"count":408,
			"type":"VEC2"
		},
		{
			"bufferView":23,
			"componentType":5123,
			"count":2274,
			"type":"SCALAR"
		},
		{
			"bufferView":24,
			"componentType":5126,
			"count":2162,
			"max":[
				2.0237300395965576,
				13.762687683105469,
				2.3451077938079834
			],
			"min":[
				-0.3922620117664337,
				9.902350425720215,
				-0.7199816107749939
			],
			"type":"VEC3"
		},
		{
			"bufferView":25,
			"componentType":5126,
			"count":2162,
			"type":"VEC3"
		},
		{
			"bufferView":26,
			"componentType":5126,
			"count":2162,
			"type":"VEC2"
		},
		{
			"bufferView":27,
			"componentType":5123,
			"count":12282,
			"type":"SCALAR"
		},
		{
			"bufferView":28,
			"componentType":5126,
			"count":1284,
			"max":[
				1.904716968536377,
				5.27927827835083,
				1.8474196195602417
			],
			"min":[
				-6.457956790924072,
				1.8656153678894043,
				-2.2877306938171387
			],
			"type":"VEC3"
		},
		{
			"bufferView":29,
			"componentType":5126,
			"count":1284,
			"type":"VEC3"
		},
		{
			"bufferView":30,
			"componentType":5126,
			"count":1284,
			"type":"VEC2"
		},
		{
			"bufferView":31,
			"componentType":5123,
			"count":6036,
			"type":"SCALAR"
		},
		{
			"bufferView":32,
			"componentType":5126,
			"count":1822,
			"max":[
				3.3082098960876465,
				11.230531692504883,
				3.813783645629883
			],
			"min":[
				-1.5509040355682373,
				1.810859203338623,
				-3.1468348503112793
			],
			"type":"VEC3"
		},
		{
			"bufferView":33,
			"componentType":5126,
			"count":1822,
			"type":"VEC3"
		},
		{
			"bufferView":34,
			"componentType":5126,
			"count":1822,
			"type":"VEC2"
		},
		{
			"bufferView":35,
			"componentType":5123,
			"count":8562,
			"type":"SCALAR"
		},
		{
			"bufferView":36,
			"componentType":5126,
			"count":98,
			"max":[
				0.7270020246505737,
				11.74044132232666,
				2.0911529064178467
			],
			"min":[
				0.03375399857759476,
				11.241085052490234,
				1.2647106647491455
			],
			"type":"VEC3"
		},
		{
			"bufferView":37,
			"componentType":5126,
			"count":98,
			"type":"VEC3"
		},
		{
			"bufferView":38,
			"componentType":5126,
			"count":98,
			"type":"VEC2"
		},
		{
			"bufferView":39,
			"componentType":5123,
			"count":300,
			"type":"SCALAR"
		}
	],
	"bufferViews":[
		{
			"buffer":0,
			"byteLength":1440,
			"byteOffset":0,
			"target":34962
		},
		{
			"buffer":0,
			"byteLength":1440,
			"byteOffset":1440,
			"target":34962
		},
		{
			"buffer":0,
			"byteLength":960,
			"byteOffset":2880,
			"target":34962
		},
		{
			"buffer":0,
			"byteLength":1236,
			"byteOffset":3840,
			"target":34963
		},
		{
			"buffer":0,
			"byteLength":1440,
			"byteOffset":5076,
			"target":34962
		},
		{
			"buffer":0,
			"byteLength":1440,
			"byteOffset":6516,
			"target":34962
		},
		{
			"buffer":0,
			"byteLength":960,
			"byteOffset":7956,
			"target":34962
		},
		{
			"buffer":0,
			"byteLength":1236,
			"byteOffset":8916,
			"target":34963
		},
		{
			"buffer":0,
			"byteLength":4680,
			"byteOffset":10152,
			"target":34962
		},
		{
			"buffer":0,
			"byteLength":4680,
			"byteOffset":14832,
			"target":34962
		},
		{
			"buffer":0,
			"byteLength":3120,
			"byteOffset":19512,
			"target":34962
		},
		{
			"buffer":0,
			"byteLength":3234,
			"byteOffset":22632,
			"target":34963
		},
		{
			"buffer":0,
			"byteLength":10824,
			"byteOffset":25868,
			"target":34962
		},
		{
			"buffer":0,
			"byteLength":10824,
			"byteOffset":36692,
			"target":34962
		},
		{
			"buffer":0,
			"byteLength":7216,
			"byteOffset":47516,
			"target":34962
		},
		{
			"buffer":0,
			"byteLength":8460,
			"byteOffset":54732,
			"target":34963
		},
		{
			"buffer":0,
			"byteLength":7368,
			"byteOffset":63192,
			"target":34962
		},
		{
			"buffer":0,
			"byteLength":7368,
			"byteOffset":70560,
			"target":34962
		},
		{
			"buffer":0,
			"byteLength":4912,
			"byteOffset":77928,
			"target":34962
		},
		{
			"buffer":0,
			"byteLength":3720,
			"byteOffset":82840,
			"target":34963
		},
		{
			"buffer":0,
			"byteLength":4896,
			"byteOffset":86560,
			"target":34962
		},
		{
			"buffer":0,
			"byteLength":4896,
			"byteOffset":91456,
			"target":34962
		},
		{
			"buffer":0,
			"byteLength":3264,
			"byteOffset":96352,
			"target":34962
		},
		{
			"buffer":0,
			"byteLength":4548,
			"byteOffset":99616,
			"target":34963
		},
		{
			"buffer":0,
			"byteLength":25944,
			"byteOffset":104164,
			"target":34962
		},
		{
			"buffer":0,
			"byteLength":25944,
			"byteOffset":130108,
			"target":34962
		},
		{
			"buffer":0,
			"byteLength":17296,
			"byteOffset":156052,
			"target":34962
		},
		{
			"buffer":0,
			"byteLength":24564,
			"byteOffset":173348,
			"target":34963
		},
		{
			"buffer":0,
			"byteLength":15408,
			"byteOffset":197912,
			"target":34962
		},
		{
			"buffer":0,
			"byteLength":15408,
			"byteOffset":213320,
			"target":34962
		},
		{
			"buffer":0,
			"byteLength":10272,
			"byteOffset":228728,
			"target":34962
		},
		{
			"buffer":0,
			"byteLength":12072,
			"byteOffset":239000,
			"target":34963
		},
		{
			"buffer":0,
			"byteLength":21864,
			"byteOffset":251072,
			"target":34962
		},
		{
			"buffer":0,
			"byteLength":21864,
			"byteOffset":272936,
			"target":34962
		},
		{
			"buffer":0,
			"byteLength":14576,
			"byteOffset":294800,
			"target":34962
		},
		{
			"buffer":0,
			"byteLength":17124,
			"byteOffset":309376,
			"target":34963
		},
		{
			"buffer":0,
			"byteLength":1176,
			"byteOffset":326500,
			"target":34962
		},
		{
			"buffer":0,
			"byteLength":1176,
			"byteOffset":327676,
			"target":34962
		},
		{
			"buffer":0,
			"byteLength":784,
			"byteOffset":328852,
			"target":34962
		},
		{
			"buffer":0,
			"byteLength":600,
			"byteOffset":329636,
			"target":34963
		}
	],
	"samplers":[
		{
			"magFilter":9729,
			"minFilter":9987
		}
	],
	"buffers":[
		{
			"byteLength":330236,
			"uri":"Couple_Man.bin"
		}
	]
}
