{
  "accessors": [
    {
      "bufferView": 2,
      "componentType": 5126,
      "count": 16961,
      "max": [
        4.146930694580078,
        4.772790431976318,
        4.062277793884277
      ],
      "min": [
        -4.146930694580078,
        0.0017816424369812012,
        -3.9085679054260254
      ],
      "type": "VEC3"
    },
    {
      "bufferView": 2,
      "byteOffset": 203532,
      "componentType": 5126,
      "count": 16961,
      "max": [
        0.9992038607597351,
        0.9997352361679077,
        0.9999069571495056
      ],
      "min": [
        -0.9999672174453735,
        -0.9998244643211365,
        -0.9998089075088501
      ],
      "type": "VEC3"
    },
    {
      "bufferView": 3,
      "componentType": 5126,
      "count": 16961,
      "max": [
        0.999670147895813,
        0.9951866269111633,
        0.9999927282333374,
        1.0
      ],
      "min": [
        -0.9998440742492676,
        -0.9988455176353455,
        -0.9999067187309265,
        -1.0
      ],
      "type": "VEC4"
    },
    {
      "bufferView": 1,
      "componentType": 5126,
      "count": 16961,
      "max": [
        0.9901142120361328,
        0.9967300295829773
      ],
      "min": [
        0.0019499999471008778,
        0.008970022201538086
      ],
      "type": "VEC2"
    },
    {
      "bufferView": 1,
      "byteOffset": 135688,
      "componentType": 5126,
      "count": 16961,
      "max": [
        0.9901142120361328,
        0.9967300295829773
      ],
      "min": [
        0.0019499999471008778,
        0.008970022201538086
      ],
      "type": "VEC2"
    },
    {
      "bufferView": 1,
      "byteOffset": 271376,
      "componentType": 5126,
      "count": 16961,
      "max": [
        0.9901142120361328,
        0.9967300295829773
      ],
      "min": [
        0.0019499999471008778,
        0.008970022201538086
      ],
      "type": "VEC2"
    },
    {
      "bufferView": 1,
      "byteOffset": 407064,
      "componentType": 5126,
      "count": 16961,
      "max": [
        0.9901142120361328,
        0.9967300295829773
      ],
      "min": [
        0.0019499999471008778,
        0.008970022201538086
      ],
      "type": "VEC2"
    },
    {
      "bufferView": 1,
      "byteOffset": 542752,
      "componentType": 5126,
      "count": 16961,
      "max": [
        0.9901142120361328,
        0.9967300295829773
      ],
      "min": [
        0.0019499999471008778,
        0.008970022201538086
      ],
      "type": "VEC2"
    },
    {
      "bufferView": 0,
      "componentType": 5125,
      "count": 86064,
      "type": "SCALAR"
    }
  ],
  "asset": {
    "extras": {
      "author": "rk8359041 (https://sketchfab.com/rk8359041)",
      "license": "CC-BY-4.0 (http://creativecommons.org/licenses/by/4.0/)",
      "source": "https://sketchfab.com/3d-models/tuft-of-grass-92ef3a61d1244e8186b4129b56e2c83d",
      "title": "Tuft Of Grass"
    },
    "generator": "Sketchfab-12.68.0",
    "version": "2.0"
  },
  "bufferViews": [
    {
      "buffer": 0,
      "byteLength": 344256,
      "name": "floatBufferViews",
      "target": 34963
    },
    {
      "buffer": 0,
      "byteLength": 678440,
      "byteOffset": 344256,
      "byteStride": 8,
      "name": "floatBufferViews",
      "target": 34962
    },
    {
      "buffer": 0,
      "byteLength": 407064,
      "byteOffset": 1022696,
      "byteStride": 12,
      "name": "floatBufferViews",
      "target": 34962
    },
    {
      "buffer": 0,
      "byteLength": 271376,
      "byteOffset": 1429760,
      "byteStride": 16,
      "name": "floatBufferViews",
      "target": 34962
    }
  ],
  "buffers": [
    {
      "byteLength": 1701136,
      "uri": "scene.bin"
    }
  ],
  "extensionsRequired": [
    "KHR_materials_pbrSpecularGlossiness"
  ],
  "extensionsUsed": [
    "KHR_materials_pbrSpecularGlossiness"
  ],
  "images": [
    {
      "uri": "textures/material_0_diffuse.png"
    },
    {
      "uri": "textures/material_0_specularGlossiness.png"
    },
    {
      "uri": "textures/material_0_normal.png"
    },
    {
      "uri": "textures/material_0_occlusion.png"
    }
  ],
  "materials": [
    {
      "doubleSided": true,
      "extensions": {
        "KHR_materials_pbrSpecularGlossiness": {
          "diffuseFactor": [
            1.0,
            1.0,
            1.0,
            1.0
          ],
          "diffuseTexture": {
            "index": 0
          },
          "glossinessFactor": 1.0,
          "specularFactor": [
            1.0,
            1.0,
            1.0
          ],
          "specularGlossinessTexture": {
            "index": 1
          }
        }
      },
      "name": "material_0",
      "normalTexture": {
        "index": 2
      },
      "occlusionTexture": {
        "index": 3
      }
    }
  ],
  "meshes": [
    {
      "name": "Object_0",
      "primitives": [
        {
          "attributes": {
            "NORMAL": 1,
            "POSITION": 0,
            "TANGENT": 2,
            "TEXCOORD_0": 3,
            "TEXCOORD_1": 4,
            "TEXCOORD_2": 5,
            "TEXCOORD_3": 6,
            "TEXCOORD_4": 7
          },
          "indices": 8,
          "material": 0,
          "mode": 4
        }
      ]
    }
  ],
  "nodes": [
    {
      "children": [
        1
      ],
      "matrix": [
        1.0,
        0.0,
        0.0,
        0.0,
        0.0,
        2.220446049250313e-16,
        -1.0,
        0.0,
        0.0,
        1.0,
        2.220446049250313e-16,
        0.0,
        0.0,
        0.0,
        0.0,
        1.0
      ],
      "name": "Sketchfab_model"
    },
    {
      "children": [
        2
      ],
      "name": "root"
    },
    {
      "children": [
        3
      ],
      "matrix": [
        1.0,
        0.0,
        0.0,
        0.0,
        0.0,
        2.220446049250313e-16,
        1.0,
        0.0,
        0.0,
        -1.0,
        2.220446049250313e-16,
        0.0,
        0.0,
        0.0,
        0.0,
        1.0
      ],
      "name": "GLTF_SceneRootNode"
    },
    {
      "children": [
        4
      ],
      "matrix": [
        0.009999999776482582,
        0.0,
        0.0,
        0.0,
        0.0,
        0.009999999776482582,
        0.0,
        0.0,
        0.0,
        0.0,
        0.009999999776482582,
        0.0,
        0.0,
        0.0,
        0.0,
        1.0
      ],
      "name": "RootNode.0_0"
    },
    {
      "children": [
        5
      ],
      "name": "patch_of_long_grass.1_1"
    },
    {
      "mesh": 0,
      "name": "Object_5"
    }
  ],
  "samplers": [
    {
      "magFilter": 9729,
      "minFilter": 9987,
      "wrapS": 10497,
      "wrapT": 10497
    }
  ],
  "scene": 0,
  "scenes": [
    {
      "name": "Sketchfab_Scene",
      "nodes": [
        0
      ]
    }
  ],
  "textures": [
    {
      "sampler": 0,
      "source": 0
    },
    {
      "sampler": 0,
      "source": 1
    },
    {
      "sampler": 0,
      "source": 2
    },
    {
      "sampler": 0,
      "source": 3
    }
  ]
}
