{
	"asset":{
		"generator":"Khronos glTF Blender I/O v5.0.21",
		"version":"2.0"
	},
	"scene":0,
	"scenes":[
		{
			"name":"Scene",
			"nodes":[
				0
			]
		}
	],
	"nodes":[
		{
			"mesh":0,
			"name":"Text"
		}
	],
	"materials":[
		{
			"doubleSided":true,
			"name":"Material.001",
			"pbrMetallicRoughness":{
				"baseColorFactor":[
					0.9300949573516846,
					0.5271056294441223,
					0.0012138064485043287,
					1
				],
				"metallicFactor":0,
				"roughnessFactor":0.5
			}
		}
	],
	"meshes":[
		{
			"name":"Text",
			"primitives":[
				{
					"attributes":{
						"POSITION":0,
						"NORMAL":1,
						"TEXCOORD_0":2
					},
					"indices":3,
					"material":0
				}
			]
		}
	],
	"accessors":[
		{
			"bufferView":0,
			"componentType":5126,
			"count":710267,
			"max":[
				7.096229553222656,
				0.029999999329447746,
				84.02188873291016
			],
			"min":[
				-7.096207618713379,
				-0.029999999329447746,
				-0.6142538785934448
			],
			"type":"VEC3"
		},
		{
			"bufferView":1,
			"componentType":5126,
			"count":710267,
			"type":"VEC3"
		},
		{
			"bufferView":2,
			"componentType":5126,
			"count":710267,
			"type":"VEC2"
		},
		{
			"bufferView":3,
			"componentType":5125,
			"count":2110176,
			"type":"SCALAR"
		}
	],
	"bufferViews":[
		{
			"buffer":0,
			"byteLength":8523204,
			"byteOffset":0,
			"target":34962
		},
		{
			"buffer":0,
			"byteLength":8523204,
			"byteOffset":8523204,
			"target":34962
		},
		{
			"buffer":0,
			"byteLength":5682136,
			"byteOffset":17046408,
			"target":34962
		},
		{
			"buffer":0,
			"byteLength":8440704,
			"byteOffset":22728544,
			"target":34963
		}
	],
	"buffers":[
		{
			"byteLength":31169248,
			"uri":"allModel.bin"
		}
	]
}
