{
	"asset":{
		"generator":"Khronos glTF Blender I/O v5.0.21",
		"version":"2.0"
	},
	"scene":0,
	"scenes":[
		{
			"name":"Scene",
			"nodes":[
				0
			]
		}
	],
	"nodes":[
		{
			"mesh":0,
			"name":"Text"
		}
	],
	"materials":[
		{
			"doubleSided":true,
			"name":"Material.001",
			"pbrMetallicRoughness":{
				"baseColorFactor":[
					0.9300949573516846,
					0.5271056294441223,
					0.0012138064485043287,
					1
				],
				"metallicFactor":0,
				"roughnessFactor":0.5
			}
		}
	],
	"meshes":[
		{
			"name":"Text",
			"primitives":[
				{
					"attributes":{
						"POSITION":0,
						"NORMAL":1,
						"TEXCOORD_0":2
					},
					"indices":3,
					"material":0
				}
			]
		}
	],
	"accessors":[
		{
			"bufferView":0,
			"componentType":5126,
			"count":72866,
			"max":[
				5.528575420379639,
				0.04999999701976776,
				0.014010755345225334
			],
			"min":[
				-4.007487773895264,
				-0.04999999701976776,
				-5.612585067749023
			],
			"type":"VEC3"
		},
		{
			"bufferView":1,
			"componentType":5126,
			"count":72866,
			"type":"VEC3"
		},
		{
			"bufferView":2,
			"componentType":5126,
			"count":72866,
			"type":"VEC2"
		},
		{
			"bufferView":3,
			"componentType":5125,
			"count":213816,
			"type":"SCALAR"
		}
	],
	"bufferViews":[
		{
			"buffer":0,
			"byteLength":874392,
			"byteOffset":0,
			"target":34962
		},
		{
			"buffer":0,
			"byteLength":874392,
			"byteOffset":874392,
			"target":34962
		},
		{
			"buffer":0,
			"byteLength":582928,
			"byteOffset":1748784,
			"target":34962
		},
		{
			"buffer":0,
			"byteLength":855264,
			"byteOffset":2331712,
			"target":34963
		}
	],
	"buffers":[
		{
			"byteLength":3186976,
			"uri":"backgroundScore.bin"
		}
	]
}
