{
	"asset":{
		"generator":"Khronos glTF Blender I/O v5.0.21",
		"version":"2.0"
	},
	"scene":0,
	"scenes":[
		{
			"name":"Scene",
			"nodes":[
				0
			]
		}
	],
	"nodes":[
		{
			"mesh":0,
			"name":"Text"
		}
	],
	"materials":[
		{
			"doubleSided":true,
			"name":"Material.002",
			"pbrMetallicRoughness":{
				"baseColorFactor":[
					0.9300949573516846,
					0.5271056294441223,
					0.0012138064485043287,
					1
				],
				"metallicFactor":0,
				"roughnessFactor":0.5
			}
		}
	],
	"meshes":[
		{
			"name":"Text",
			"primitives":[
				{
					"attributes":{
						"POSITION":0,
						"NORMAL":1,
						"TEXCOORD_0":2
					},
					"indices":3,
					"material":0
				}
			]
		}
	],
	"accessors":[
		{
			"bufferView":0,
			"componentType":5126,
			"count":19651,
			"max":[
				2.971256971359253,
				1.8662981986999512,
				0.0658300369977951
			],
			"min":[
				-2.8990845680236816,
				0.0005987532204017043,
				-0.05999726057052612
			],
			"type":"VEC3"
		},
		{
			"bufferView":1,
			"componentType":5126,
			"count":19651,
			"type":"VEC3"
		},
		{
			"bufferView":2,
			"componentType":5126,
			"count":19651,
			"type":"VEC2"
		},
		{
			"bufferView":3,
			"componentType":5123,
			"count":56052,
			"type":"SCALAR"
		}
	],
	"bufferViews":[
		{
			"buffer":0,
			"byteLength":235812,
			"byteOffset":0,
			"target":34962
		},
		{
			"buffer":0,
			"byteLength":235812,
			"byteOffset":235812,
			"target":34962
		},
		{
			"buffer":0,
			"byteLength":157208,
			"byteOffset":471624,
			"target":34962
		},
		{
			"buffer":0,
			"byteLength":112104,
			"byteOffset":628832,
			"target":34963
		}
	],
	"buffers":[
		{
			"byteLength":740936,
			"uri":"ourInspirationSir.bin"
		}
	]
}
