{
	"asset":{
		"generator":"Khronos glTF Blender I/O v5.0.21",
		"version":"2.0"
	},
	"scene":0,
	"scenes":[
		{
			"name":"Scene",
			"nodes":[
				0
			]
		}
	],
	"nodes":[
		{
			"mesh":0,
			"name":"Text"
		}
	],
	"materials":[
		{
			"doubleSided":true,
			"name":"Material.001",
			"pbrMetallicRoughness":{
				"baseColorFactor":[
					0.9300949573516846,
					0.5271056294441223,
					0.0012138064485043287,
					1
				],
				"metallicFactor":0,
				"roughnessFactor":0.5
			}
		}
	],
	"meshes":[
		{
			"name":"Text",
			"primitives":[
				{
					"attributes":{
						"POSITION":0,
						"NORMAL":1,
						"TEXCOORD_0":2
					},
					"indices":3,
					"material":0
				}
			]
		}
	],
	"accessors":[
		{
			"bufferView":0,
			"componentType":5126,
			"count":74559,
			"max":[
				4.571176052093506,
				0.04999999701976776,
				0.24078133702278137
			],
			"min":[
				-4.583104610443115,
				-0.04999999701976776,
				-5.612585544586182
			],
			"type":"VEC3"
		},
		{
			"bufferView":1,
			"componentType":5126,
			"count":74559,
			"type":"VEC3"
		},
		{
			"bufferView":2,
			"componentType":5126,
			"count":74559,
			"type":"VEC2"
		},
		{
			"bufferView":3,
			"componentType":5125,
			"count":219384,
			"type":"SCALAR"
		}
	],
	"bufferViews":[
		{
			"buffer":0,
			"byteLength":894708,
			"byteOffset":0,
			"target":34962
		},
		{
			"buffer":0,
			"byteLength":894708,
			"byteOffset":894708,
			"target":34962
		},
		{
			"buffer":0,
			"byteLength":596472,
			"byteOffset":1789416,
			"target":34962
		},
		{
			"buffer":0,
			"byteLength":877536,
			"byteOffset":2385888,
			"target":34963
		}
	],
	"buffers":[
		{
			"byteLength":3263424,
			"uri":"specialThanks.bin"
		}
	]
}
