{
	"asset":{
		"generator":"Khronos glTF Blender I/O v5.0.21",
		"version":"2.0"
	},
	"scene":0,
	"scenes":[
		{
			"name":"Scene",
			"nodes":[
				0
			]
		}
	],
	"nodes":[
		{
			"mesh":0,
			"name":"Text",
			"rotation":[
				0.7132388353347778,
				0,
				0,
				0.7009211778640747
			],
			"translation":[
				0,
				0.06538105010986328,
				0.29380297660827637
			]
		}
	],
	"materials":[
		{
			"doubleSided":true,
			"name":"Material.001",
			"pbrMetallicRoughness":{
				"baseColorFactor":[
					0.9301111102104187,
					0.5271152257919312,
					0.0012141079641878605,
					1
				],
				"metallicFactor":0,
				"roughnessFactor":0.5
			}
		}
	],
	"meshes":[
		{
			"name":"Text",
			"primitives":[
				{
					"attributes":{
						"POSITION":0,
						"NORMAL":1,
						"TEXCOORD_0":2
					},
					"indices":3,
					"material":0
				}
			]
		}
	],
	"accessors":[
		{
			"bufferView":0,
			"componentType":5126,
			"count":4446,
			"max":[
				1.2386006116867065,
				0.06999999284744263,
				-0.22980520129203796
			],
			"min":[
				-1.2377604246139526,
				-0.06999999284744263,
				-0.866692841053009
			],
			"type":"VEC3"
		},
		{
			"bufferView":1,
			"componentType":5126,
			"count":4446,
			"type":"VEC3"
		},
		{
			"bufferView":2,
			"componentType":5126,
			"count":4446,
			"type":"VEC2"
		},
		{
			"bufferView":3,
			"componentType":5123,
			"count":13212,
			"type":"SCALAR"
		}
	],
	"bufferViews":[
		{
			"buffer":0,
			"byteLength":53352,
			"byteOffset":0,
			"target":34962
		},
		{
			"buffer":0,
			"byteLength":53352,
			"byteOffset":53352,
			"target":34962
		},
		{
			"buffer":0,
			"byteLength":35568,
			"byteOffset":106704,
			"target":34962
		},
		{
			"buffer":0,
			"byteLength":26424,
			"byteOffset":142272,
			"target":34963
		}
	],
	"buffers":[
		{
			"byteLength":168696,
			"uri":"theEnd.bin"
		}
	]
}
