{
	"asset":{
		"generator":"Khronos glTF Blender I/O v5.0.21",
		"version":"2.0"
	},
	"scene":0,
	"scenes":[
		{
			"name":"Scene",
			"nodes":[
				4,
				9,
				14,
				19,
				24,
				25,
				30,
				31,
				36,
				37,
				42,
				43,
				48,
				49,
				50
			]
		}
	],
	"nodes":[
		{
			"name":"House2_2.005"
		},
		{
			"name":"Street_0.005"
		},
		{
			"children":[
				0,
				1
			],
			"name":"GLTF_SceneRootNode.005"
		},
		{
			"children":[
				2
			],
			"name":"root.005"
		},
		{
			"children":[
				3
			],
			"name":"Sketchfab_model.006",
			"translation":[
				54.18778991699219,
				0,
				-5.746919631958008
			]
		},
		{
			"name":"House2_2.006",
			"rotation":[
				0.70710688829422,
				0,
				0,
				0.7071066498756409
			],
			"translation":[
				7.62939453125e-06,
				0,
				0
			]
		},
		{
			"name":"Street_0.006",
			"rotation":[
				0.70710688829422,
				0,
				0,
				0.7071066498756409
			],
			"translation":[
				7.62939453125e-06,
				0,
				0
			]
		},
		{
			"children":[
				5,
				6
			],
			"name":"GLTF_SceneRootNode.006",
			"rotation":[
				0.70710688829422,
				0,
				0,
				0.7071066498756409
			]
		},
		{
			"children":[
				7
			],
			"name":"root.006"
		},
		{
			"children":[
				8
			],
			"name":"Sketchfab_model.007",
			"rotation":[
				-0.70710688829422,
				0,
				0,
				0.7071066498756409
			],
			"translation":[
				54.18778991699219,
				0,
				-5.746919631958008
			]
		},
		{
			"name":"House2_2.007",
			"rotation":[
				0.70710688829422,
				0,
				0,
				0.7071066498756409
			],
			"translation":[
				7.62939453125e-06,
				0,
				0
			]
		},
		{
			"name":"Street_0.007",
			"rotation":[
				0.70710688829422,
				0,
				0,
				0.7071066498756409
			],
			"translation":[
				7.62939453125e-06,
				0,
				0
			]
		},
		{
			"children":[
				10,
				11
			],
			"name":"GLTF_SceneRootNode.007",
			"rotation":[
				0.70710688829422,
				0,
				0,
				0.7071066498756409
			]
		},
		{
			"children":[
				12
			],
			"name":"root.007"
		},
		{
			"children":[
				13
			],
			"name":"Sketchfab_model.008",
			"rotation":[
				-0.70710688829422,
				0,
				0,
				0.7071066498756409
			],
			"translation":[
				54.18778991699219,
				4.02711296081543,
				-5.746919631958008
			]
		},
		{
			"name":"House2_2.008",
			"rotation":[
				0.70710688829422,
				0,
				0,
				0.7071066498756409
			],
			"translation":[
				7.62939453125e-06,
				0,
				0
			]
		},
		{
			"name":"Street_0.008",
			"rotation":[
				0.70710688829422,
				0,
				0,
				0.7071066498756409
			],
			"translation":[
				7.62939453125e-06,
				0,
				0
			]
		},
		{
			"children":[
				15,
				16
			],
			"name":"GLTF_SceneRootNode.008",
			"rotation":[
				0.70710688829422,
				0,
				0,
				0.7071066498756409
			]
		},
		{
			"children":[
				17
			],
			"name":"root.008"
		},
		{
			"children":[
				18
			],
			"name":"Sketchfab_model.009",
			"rotation":[
				-0.70710688829422,
				0,
				0,
				0.7071066498756409
			],
			"translation":[
				54.18778991699219,
				4.123735427856445,
				-5.746919631958008
			]
		},
		{
			"name":"House2_2.009"
		},
		{
			"name":"Street_0.009"
		},
		{
			"children":[
				20,
				21
			],
			"name":"GLTF_SceneRootNode.009"
		},
		{
			"children":[
				22
			],
			"name":"root.009"
		},
		{
			"children":[
				23
			],
			"name":"Sketchfab_model.010",
			"translation":[
				54.18778991699219,
				0,
				-5.746919631958008
			]
		},
		{
			"name":"Object_7.005",
			"translation":[
				54.18778991699219,
				0,
				-5.746919631958008
			]
		},
		{
			"name":"House2_2.010",
			"rotation":[
				0.70710688829422,
				0,
				0,
				0.7071066498756409
			],
			"translation":[
				7.62939453125e-06,
				0,
				0
			]
		},
		{
			"name":"Street_0.010",
			"rotation":[
				0.70710688829422,
				0,
				0,
				0.7071066498756409
			],
			"translation":[
				7.62939453125e-06,
				0,
				0
			]
		},
		{
			"children":[
				26,
				27
			],
			"name":"GLTF_SceneRootNode.010",
			"rotation":[
				0.70710688829422,
				0,
				0,
				0.7071066498756409
			]
		},
		{
			"children":[
				28
			],
			"name":"root.010"
		},
		{
			"children":[
				29
			],
			"name":"Sketchfab_model.011",
			"rotation":[
				-0.70710688829422,
				0,
				0,
				0.7071066498756409
			],
			"translation":[
				54.18778991699219,
				0,
				-5.746919631958008
			]
		},
		{
			"name":"Object_7.006",
			"translation":[
				54.18778610229492,
				2.4373312044190243e-06,
				-5.746919631958008
			]
		},
		{
			"name":"House2_2.011",
			"rotation":[
				0.70710688829422,
				0,
				0,
				0.7071066498756409
			],
			"translation":[
				7.62939453125e-06,
				0,
				0
			]
		},
		{
			"name":"Street_0.011",
			"rotation":[
				0.70710688829422,
				0,
				0,
				0.7071066498756409
			],
			"translation":[
				7.62939453125e-06,
				0,
				0
			]
		},
		{
			"children":[
				32,
				33
			],
			"name":"GLTF_SceneRootNode.011",
			"rotation":[
				0.70710688829422,
				0,
				0,
				0.7071066498756409
			]
		},
		{
			"children":[
				34
			],
			"name":"root.011"
		},
		{
			"children":[
				35
			],
			"name":"Sketchfab_model.012",
			"rotation":[
				-0.70710688829422,
				0,
				0,
				0.7071066498756409
			],
			"translation":[
				54.18778991699219,
				4.02711296081543,
				-5.746919631958008
			]
		},
		{
			"name":"Object_7.007",
			"translation":[
				54.18778610229492,
				0,
				-5.746919631958008
			]
		},
		{
			"name":"House2_2.012",
			"rotation":[
				0.70710688829422,
				0,
				0,
				0.7071066498756409
			],
			"translation":[
				7.62939453125e-06,
				0,
				0
			]
		},
		{
			"name":"Street_0.012",
			"rotation":[
				0.70710688829422,
				0,
				0,
				0.7071066498756409
			],
			"translation":[
				7.62939453125e-06,
				0,
				0
			]
		},
		{
			"children":[
				38,
				39
			],
			"name":"GLTF_SceneRootNode.012",
			"rotation":[
				0.70710688829422,
				0,
				0,
				0.7071066498756409
			]
		},
		{
			"children":[
				40
			],
			"name":"root.012"
		},
		{
			"children":[
				41
			],
			"name":"Sketchfab_model.013",
			"rotation":[
				-0.70710688829422,
				0,
				0,
				0.7071066498756409
			],
			"translation":[
				54.18778991699219,
				4.123735427856445,
				-5.746919631958008
			]
		},
		{
			"name":"Object_7.008",
			"translation":[
				54.18778610229492,
				0,
				-5.746919631958008
			]
		},
		{
			"name":"House2_2.013",
			"rotation":[
				0.70710688829422,
				0,
				0,
				0.7071066498756409
			]
		},
		{
			"name":"Street_0.013",
			"rotation":[
				0.70710688829422,
				0,
				0,
				0.7071066498756409
			]
		},
		{
			"children":[
				44,
				45
			],
			"name":"GLTF_SceneRootNode.013",
			"rotation":[
				0.70710688829422,
				0,
				0,
				0.7071066498756409
			]
		},
		{
			"children":[
				46
			],
			"name":"root.013"
		},
		{
			"children":[
				47
			],
			"name":"Sketchfab_model.014",
			"rotation":[
				-0.70710688829422,
				0,
				0,
				0.7071066498756409
			],
			"scale":[
				4.148910045623779,
				4.148909568786621,
				4.148909568786621
			],
			"translation":[
				4.004046331829159e-06,
				-2.558312189648859e-06,
				0
			]
		},
		{
			"name":"Object_7.009",
			"scale":[
				4.148910045623779,
				4.148910045623779,
				4.148910045623779
			],
			"translation":[
				-1.1822789019788615e-05,
				7.553955583716743e-06,
				0
			]
		},
		{
			"mesh":0,
			"name":"Object_7.010"
		}
	],
	"materials":[
		{
			"doubleSided":true,
			"name":"Material410.013",
			"pbrMetallicRoughness":{
				"baseColorTexture":{
					"index":0
				},
				"metallicFactor":0,
				"roughnessFactor":0.6732680201530457
			}
		}
	],
	"meshes":[
		{
			"name":"Object_2.015",
			"primitives":[
				{
					"attributes":{
						"POSITION":0,
						"NORMAL":1,
						"TEXCOORD_0":2
					},
					"indices":3,
					"material":0
				}
			]
		}
	],
	"textures":[
		{
			"sampler":0,
			"source":0
		}
	],
	"images":[
		{
			"mimeType":"image/png",
			"name":"Material410_baseColor",
			"uri":"Material410_baseColor.png"
		}
	],
	"accessors":[
		{
			"bufferView":0,
			"componentType":5126,
			"count":547,
			"max":[
				15.055344581604004,
				8.850228309631348,
				17.192176818847656
			],
			"min":[
				-17.732383728027344,
				-17.176225662231445,
				-16.09007453918457
			],
			"type":"VEC3"
		},
		{
			"bufferView":1,
			"componentType":5126,
			"count":547,
			"type":"VEC3"
		},
		{
			"bufferView":2,
			"componentType":5126,
			"count":547,
			"type":"VEC2"
		},
		{
			"bufferView":3,
			"componentType":5123,
			"count":708,
			"type":"SCALAR"
		}
	],
	"bufferViews":[
		{
			"buffer":0,
			"byteLength":6564,
			"byteOffset":0,
			"target":34962
		},
		{
			"buffer":0,
			"byteLength":6564,
			"byteOffset":6564,
			"target":34962
		},
		{
			"buffer":0,
			"byteLength":4376,
			"byteOffset":13128,
			"target":34962
		},
		{
			"buffer":0,
			"byteLength":1416,
			"byteOffset":17504,
			"target":34963
		}
	],
	"samplers":[
		{
			"magFilter":9729,
			"minFilter":9987
		}
	],
	"buffers":[
		{
			"byteLength":18920,
			"uri":"House_Five.bin"
		}
	]
}
