{
	"asset":{
		"generator":"Khronos glTF Blender I/O v4.4.56",
		"version":"2.0"
	},
	"extensionsUsed":[
		"KHR_materials_specular",
		"KHR_materials_ior"
	],
	"scene":0,
	"scenes":[
		{
			"name":"Scene",
			"nodes":[
				7
			]
		}
	],
	"nodes":[
		{
			"mesh":0,
			"name":"LOD0_LotusFlower_Med_Mat_0"
		},
		{
			"mesh":1,
			"name":"LOD0_LotusFlowerStem_Mat_0"
		},
		{
			"mesh":2,
			"name":"LOD0_LotusPad_01_Mat_0"
		},
		{
			"children":[
				0,
				1,
				2
			],
			"name":"LOD0"
		},
		{
			"children":[
				3
			],
			"name":"LotusFlower_Med"
		},
		{
			"children":[
				4
			],
			"name":"RootNode"
		},
		{
			"children":[
				5
			],
			"name":"LotusFlower_Med.fbx"
		},
		{
			"children":[
				6
			],
			"name":"Sketchfab_model"
		}
	],
	"materials":[
		{
			"alphaCutoff":0.17523862421512604,
			"alphaMode":"MASK",
			"doubleSided":true,
			"extensions":{
				"KHR_materials_specular":{
					"specularColorTexture":{
						"index":0
					}
				},
				"KHR_materials_ior":{
					"ior":1000
				}
			},
			"name":"LotusFlower_Med_Mat.001",
			"normalTexture":{
				"index":1
			},
			"pbrMetallicRoughness":{
				"baseColorTexture":{
					"index":2
				},
				"metallicFactor":0,
				"metallicRoughnessTexture":{
					"index":3
				}
			}
		},
		{
			"alphaCutoff":0.412953644990921,
			"alphaMode":"MASK",
			"doubleSided":true,
			"extensions":{
				"KHR_materials_specular":{
					"specularColorTexture":{
						"index":4
					}
				},
				"KHR_materials_ior":{
					"ior":1000
				}
			},
			"name":"LotusFlowerStem_Mat.001",
			"normalTexture":{
				"index":5
			},
			"pbrMetallicRoughness":{
				"baseColorTexture":{
					"index":6
				},
				"metallicFactor":0,
				"metallicRoughnessTexture":{
					"index":7
				}
			}
		},
		{
			"alphaCutoff":0.19352440536022186,
			"alphaMode":"MASK",
			"doubleSided":true,
			"extensions":{
				"KHR_materials_specular":{
					"specularColorTexture":{
						"index":8
					}
				},
				"KHR_materials_ior":{
					"ior":1000
				}
			},
			"name":"LotusPad_01_Mat.001",
			"normalTexture":{
				"index":9
			},
			"pbrMetallicRoughness":{
				"baseColorTexture":{
					"index":10
				},
				"metallicFactor":0,
				"metallicRoughnessTexture":{
					"index":11
				}
			}
		}
	],
	"meshes":[
		{
			"name":"LOD0_LotusFlower_Med_Mat_0.003",
			"primitives":[
				{
					"attributes":{
						"POSITION":0,
						"NORMAL":1,
						"TEXCOORD_0":2,
						"TEXCOORD_1":3,
						"TEXCOORD_2":4,
						"TEXCOORD_3":5,
						"TANGENT":6,
						"COLOR_0":7
					},
					"indices":8,
					"material":0
				}
			]
		},
		{
			"name":"LOD0_LotusFlowerStem_Mat_0.005",
			"primitives":[
				{
					"attributes":{
						"POSITION":9,
						"NORMAL":10,
						"TEXCOORD_0":11,
						"TEXCOORD_1":12,
						"TEXCOORD_2":13,
						"TEXCOORD_3":14,
						"TANGENT":15,
						"COLOR_0":16
					},
					"indices":17,
					"material":1
				}
			]
		},
		{
			"name":"LOD0_LotusPad_01_Mat_0.001",
			"primitives":[
				{
					"attributes":{
						"POSITION":18,
						"NORMAL":19,
						"TEXCOORD_0":20,
						"TEXCOORD_1":21,
						"TEXCOORD_2":22,
						"TEXCOORD_3":23,
						"TANGENT":24,
						"COLOR_0":25
					},
					"indices":26,
					"material":2
				}
			]
		}
	],
	"textures":[
		{
			"sampler":0,
			"source":0
		},
		{
			"sampler":0,
			"source":1
		},
		{
			"sampler":0,
			"source":2
		},
		{
			"sampler":0,
			"source":3
		},
		{
			"sampler":0,
			"source":4
		},
		{
			"sampler":0,
			"source":5
		},
		{
			"sampler":0,
			"source":6
		},
		{
			"sampler":0,
			"source":7
		},
		{
			"sampler":0,
			"source":8
		},
		{
			"sampler":0,
			"source":9
		},
		{
			"sampler":0,
			"source":10
		},
		{
			"sampler":0,
			"source":11
		}
	],
	"images":[
		{
			"mimeType":"image/png",
			"name":"LotusFlower_Med_Mat_specularGlossiness",
			"uri":"textures/LotusFlower_Med_Mat_specularGlossiness.png"
		},
		{
			"mimeType":"image/png",
			"name":"LotusFlower_Med_Mat_normal",
			"uri":"textures/LotusFlower_Med_Mat_normal.png"
		},
		{
			"mimeType":"image/png",
			"name":"LotusFlower_Med_Mat_diffuse",
			"uri":"textures/LotusFlower_Med_Mat_diffuse.png"
		},
		{
			"mimeType":"image/png",
			"name":"LotusFlower_Med_Mat_specularGlossiness-1",
			"uri":"textures/LotusFlower_Med_Mat_specularGlossiness-1.png"
		},
		{
			"mimeType":"image/png",
			"name":"LotusFlowerStem_Mat_specularGlossiness",
			"uri":"textures/LotusFlowerStem_Mat_specularGlossiness.png"
		},
		{
			"mimeType":"image/png",
			"name":"LotusFlowerStem_Mat_normal",
			"uri":"textures/LotusFlowerStem_Mat_normal.png"
		},
		{
			"mimeType":"image/png",
			"name":"LotusFlowerStem_Mat_diffuse",
			"uri":"textures/LotusFlowerStem_Mat_diffuse.png"
		},
		{
			"mimeType":"image/png",
			"name":"LotusFlowerStem_Mat_specularGlossiness-1",
			"uri":"textures/LotusFlowerStem_Mat_specularGlossiness-1.png"
		},
		{
			"mimeType":"image/png",
			"name":"LotusPad_01_Mat_specularGlossiness",
			"uri":"textures/LotusPad_01_Mat_specularGlossiness.png"
		},
		{
			"mimeType":"image/png",
			"name":"LotusPad_01_Mat_normal",
			"uri":"textures/LotusPad_01_Mat_normal.png"
		},
		{
			"mimeType":"image/png",
			"name":"LotusPad_01_Mat_diffuse",
			"uri":"textures/LotusPad_01_Mat_diffuse.png"
		},
		{
			"mimeType":"image/png",
			"name":"LotusPad_01_Mat_specularGlossiness-1",
			"uri":"textures/LotusPad_01_Mat_specularGlossiness-1.png"
		}
	],
	"accessors":[
		{
			"bufferView":0,
			"componentType":5126,
			"count":20206,
			"max":[
				17.10970687866211,
				3.0746257305145264,
				15.287009239196777
			],
			"min":[
				-17.937833786010742,
				0.3248719573020935,
				-15.977673530578613
			],
			"type":"VEC3"
		},
		{
			"bufferView":1,
			"componentType":5126,
			"count":20206,
			"type":"VEC3"
		},
		{
			"bufferView":2,
			"componentType":5126,
			"count":20206,
			"type":"VEC2"
		},
		{
			"bufferView":3,
			"componentType":5126,
			"count":20206,
			"type":"VEC2"
		},
		{
			"bufferView":4,
			"componentType":5126,
			"count":20206,
			"type":"VEC2"
		},
		{
			"bufferView":5,
			"componentType":5126,
			"count":20206,
			"type":"VEC2"
		},
		{
			"bufferView":6,
			"componentType":5126,
			"count":20206,
			"type":"VEC4"
		},
		{
			"bufferView":7,
			"componentType":5123,
			"count":20206,
			"normalized":true,
			"type":"VEC4"
		},
		{
			"bufferView":8,
			"componentType":5123,
			"count":113772,
			"type":"SCALAR"
		},
		{
			"bufferView":9,
			"componentType":5126,
			"count":1233,
			"max":[
				14.700075149536133,
				0.8561863899230957,
				12.561515808105469
			],
			"min":[
				-15.336956024169922,
				-2.630824089050293,
				-13.769716262817383
			],
			"type":"VEC3"
		},
		{
			"bufferView":10,
			"componentType":5126,
			"count":1233,
			"type":"VEC3"
		},
		{
			"bufferView":11,
			"componentType":5126,
			"count":1233,
			"type":"VEC2"
		},
		{
			"bufferView":12,
			"componentType":5126,
			"count":1233,
			"type":"VEC2"
		},
		{
			"bufferView":13,
			"componentType":5126,
			"count":1233,
			"type":"VEC2"
		},
		{
			"bufferView":14,
			"componentType":5126,
			"count":1233,
			"type":"VEC2"
		},
		{
			"bufferView":15,
			"componentType":5126,
			"count":1233,
			"type":"VEC4"
		},
		{
			"bufferView":16,
			"componentType":5123,
			"count":1233,
			"normalized":true,
			"type":"VEC4"
		},
		{
			"bufferView":17,
			"componentType":5123,
			"count":5781,
			"type":"SCALAR"
		},
		{
			"bufferView":18,
			"componentType":5126,
			"count":6615,
			"max":[
				5.7184576988220215,
				0.45704346895217896,
				17.081472396850586
			],
			"min":[
				-9.247631072998047,
				-0.6706995368003845,
				-8.168222427368164
			],
			"type":"VEC3"
		},
		{
			"bufferView":19,
			"componentType":5126,
			"count":6615,
			"type":"VEC3"
		},
		{
			"bufferView":20,
			"componentType":5126,
			"count":6615,
			"type":"VEC2"
		},
		{
			"bufferView":21,
			"componentType":5126,
			"count":6615,
			"type":"VEC2"
		},
		{
			"bufferView":22,
			"componentType":5126,
			"count":6615,
			"type":"VEC2"
		},
		{
			"bufferView":23,
			"componentType":5126,
			"count":6615,
			"type":"VEC2"
		},
		{
			"bufferView":24,
			"componentType":5126,
			"count":6615,
			"type":"VEC4"
		},
		{
			"bufferView":25,
			"componentType":5123,
			"count":6615,
			"normalized":true,
			"type":"VEC4"
		},
		{
			"bufferView":26,
			"componentType":5123,
			"count":38322,
			"type":"SCALAR"
		}
	],
	"bufferViews":[
		{
			"buffer":0,
			"byteLength":242472,
			"byteOffset":0,
			"target":34962
		},
		{
			"buffer":0,
			"byteLength":242472,
			"byteOffset":242472,
			"target":34962
		},
		{
			"buffer":0,
			"byteLength":161648,
			"byteOffset":484944,
			"target":34962
		},
		{
			"buffer":0,
			"byteLength":161648,
			"byteOffset":646592,
			"target":34962
		},
		{
			"buffer":0,
			"byteLength":161648,
			"byteOffset":808240,
			"target":34962
		},
		{
			"buffer":0,
			"byteLength":161648,
			"byteOffset":969888,
			"target":34962
		},
		{
			"buffer":0,
			"byteLength":323296,
			"byteOffset":1131536,
			"target":34962
		},
		{
			"buffer":0,
			"byteLength":161648,
			"byteOffset":1454832,
			"target":34962
		},
		{
			"buffer":0,
			"byteLength":227544,
			"byteOffset":1616480,
			"target":34963
		},
		{
			"buffer":0,
			"byteLength":14796,
			"byteOffset":1844024,
			"target":34962
		},
		{
			"buffer":0,
			"byteLength":14796,
			"byteOffset":1858820,
			"target":34962
		},
		{
			"buffer":0,
			"byteLength":9864,
			"byteOffset":1873616,
			"target":34962
		},
		{
			"buffer":0,
			"byteLength":9864,
			"byteOffset":1883480,
			"target":34962
		},
		{
			"buffer":0,
			"byteLength":9864,
			"byteOffset":1893344,
			"target":34962
		},
		{
			"buffer":0,
			"byteLength":9864,
			"byteOffset":1903208,
			"target":34962
		},
		{
			"buffer":0,
			"byteLength":19728,
			"byteOffset":1913072,
			"target":34962
		},
		{
			"buffer":0,
			"byteLength":9864,
			"byteOffset":1932800,
			"target":34962
		},
		{
			"buffer":0,
			"byteLength":11562,
			"byteOffset":1942664,
			"target":34963
		},
		{
			"buffer":0,
			"byteLength":79380,
			"byteOffset":1954228,
			"target":34962
		},
		{
			"buffer":0,
			"byteLength":79380,
			"byteOffset":2033608,
			"target":34962
		},
		{
			"buffer":0,
			"byteLength":52920,
			"byteOffset":2112988,
			"target":34962
		},
		{
			"buffer":0,
			"byteLength":52920,
			"byteOffset":2165908,
			"target":34962
		},
		{
			"buffer":0,
			"byteLength":52920,
			"byteOffset":2218828,
			"target":34962
		},
		{
			"buffer":0,
			"byteLength":52920,
			"byteOffset":2271748,
			"target":34962
		},
		{
			"buffer":0,
			"byteLength":105840,
			"byteOffset":2324668,
			"target":34962
		},
		{
			"buffer":0,
			"byteLength":52920,
			"byteOffset":2430508,
			"target":34962
		},
		{
			"buffer":0,
			"byteLength":76644,
			"byteOffset":2483428,
			"target":34963
		}
	],
	"samplers":[
		{
			"magFilter":9729,
			"minFilter":9987
		}
	],
	"buffers":[
		{
			"byteLength":2560072,
			"uri":"scene.bin"
		}
	]
}
