{
	"asset":{
		"generator":"Khronos glTF Blender I/O v5.0.21",
		"version":"2.0"
	},
	"extensionsUsed":[
		"KHR_materials_specular"
	],
	"scene":0,
	"scenes":[
		{
			"name":"Scene",
			"nodes":[
				6
			]
		}
	],
	"nodes":[
		{
			"mesh":0,
			"name":"Maple_14_Maple_Bark_0"
		},
		{
			"mesh":1,
			"name":"Maple_14_Maple_Leaf_0"
		},
		{
			"children":[
				0,
				1
			],
			"name":"Maple_14"
		},
		{
			"children":[
				2
			],
			"name":"GameObject"
		},
		{
			"children":[
				3
			],
			"name":"RootNode"
		},
		{
			"children":[
				4
			],
			"name":"Tree Free.fbx"
		},
		{
			"children":[
				5
			],
			"name":"Sketchfab_model"
		}
	],
	"materials":[
		{
			"doubleSided":true,
			"extensions":{
				"KHR_materials_specular":{
					"specularFactor":0
				}
			},
			"name":"Maple_Bark.001",
			"pbrMetallicRoughness":{
				"baseColorTexture":{
					"index":0
				},
				"metallicFactor":0,
				"roughnessFactor":0.6000000238418579
			}
		},
		{
			"alphaCutoff":0.3019999861717224,
			"alphaMode":"MASK",
			"doubleSided":true,
			"extensions":{
				"KHR_materials_specular":{
					"specularFactor":0
				}
			},
			"name":"Maple_Leaf.001",
			"pbrMetallicRoughness":{
				"baseColorTexture":{
					"index":1
				},
				"metallicFactor":0,
				"roughnessFactor":0.6000000238418579
			}
		}
	],
	"meshes":[
		{
			"name":"Maple_14_Maple_Bark_0.001",
			"primitives":[
				{
					"attributes":{
						"POSITION":0,
						"NORMAL":1,
						"TEXCOORD_0":2,
						"TEXCOORD_1":3,
						"TANGENT":4
					},
					"indices":5,
					"material":0
				}
			]
		},
		{
			"name":"Maple_14_Maple_Leaf_0.001",
			"primitives":[
				{
					"attributes":{
						"POSITION":6,
						"NORMAL":7,
						"TEXCOORD_0":8,
						"TEXCOORD_1":9,
						"TANGENT":10
					},
					"indices":11,
					"material":1
				}
			]
		}
	],
	"textures":[
		{
			"sampler":0,
			"source":0
		},
		{
			"sampler":0,
			"source":1
		}
	],
	"images":[
		{
			"mimeType":"image/png",
			"name":"Maple_Bark_baseColor",
			"uri":"Maple_Bark_baseColor.png"
		},
		{
			"mimeType":"image/png",
			"name":"Maple_Leaf_baseColor",
			"uri":"Maple_Leaf_baseColor.png"
		}
	],
	"accessors":[
		{
			"bufferView":0,
			"componentType":5126,
			"count":16126,
			"max":[
				13.063077926635742,
				35.32988357543945,
				14.579599380493164
			],
			"min":[
				-13.591334342956543,
				-0.013085476122796535,
				-13.924798965454102
			],
			"type":"VEC3"
		},
		{
			"bufferView":1,
			"componentType":5126,
			"count":16126,
			"type":"VEC3"
		},
		{
			"bufferView":2,
			"componentType":5126,
			"count":16126,
			"type":"VEC2"
		},
		{
			"bufferView":3,
			"componentType":5126,
			"count":16126,
			"type":"VEC2"
		},
		{
			"bufferView":4,
			"componentType":5126,
			"count":16126,
			"type":"VEC4"
		},
		{
			"bufferView":5,
			"componentType":5123,
			"count":50982,
			"type":"SCALAR"
		},
		{
			"bufferView":6,
			"componentType":5126,
			"count":9224,
			"max":[
				18.855131149291992,
				40.01991653442383,
				19.0237979888916
			],
			"min":[
				-19.341238021850586,
				4.235391139984131,
				-18.132593154907227
			],
			"type":"VEC3"
		},
		{
			"bufferView":7,
			"componentType":5126,
			"count":9224,
			"type":"VEC3"
		},
		{
			"bufferView":8,
			"componentType":5126,
			"count":9224,
			"type":"VEC2"
		},
		{
			"bufferView":9,
			"componentType":5126,
			"count":9224,
			"type":"VEC2"
		},
		{
			"bufferView":10,
			"componentType":5126,
			"count":9224,
			"type":"VEC4"
		},
		{
			"bufferView":11,
			"componentType":5123,
			"count":13836,
			"type":"SCALAR"
		}
	],
	"bufferViews":[
		{
			"buffer":0,
			"byteLength":193512,
			"byteOffset":0,
			"target":34962
		},
		{
			"buffer":0,
			"byteLength":193512,
			"byteOffset":193512,
			"target":34962
		},
		{
			"buffer":0,
			"byteLength":129008,
			"byteOffset":387024,
			"target":34962
		},
		{
			"buffer":0,
			"byteLength":129008,
			"byteOffset":516032,
			"target":34962
		},
		{
			"buffer":0,
			"byteLength":258016,
			"byteOffset":645040,
			"target":34962
		},
		{
			"buffer":0,
			"byteLength":101964,
			"byteOffset":903056,
			"target":34963
		},
		{
			"buffer":0,
			"byteLength":110688,
			"byteOffset":1005020,
			"target":34962
		},
		{
			"buffer":0,
			"byteLength":110688,
			"byteOffset":1115708,
			"target":34962
		},
		{
			"buffer":0,
			"byteLength":73792,
			"byteOffset":1226396,
			"target":34962
		},
		{
			"buffer":0,
			"byteLength":73792,
			"byteOffset":1300188,
			"target":34962
		},
		{
			"buffer":0,
			"byteLength":147584,
			"byteOffset":1373980,
			"target":34962
		},
		{
			"buffer":0,
			"byteLength":27672,
			"byteOffset":1521564,
			"target":34963
		}
	],
	"samplers":[
		{
			"magFilter":9729,
			"minFilter":9987
		}
	],
	"buffers":[
		{
			"byteLength":1549236,
			"uri":"tree.bin"
		}
	]
}
